<svg width="50" height="45" viewBox="0 0 50 45" fill="none" xmlns="http://www.w3.org/2000/svg">
<path d="M18.0556 37.8947C17.2315 37.8947 16.4259 38.1031 15.7407 38.4935C15.0555 38.8838 14.5214 39.4387 14.2061 40.0878C13.8907 40.737 13.8082 41.4513 13.9689 42.1405C14.1297 42.8296 14.5266 43.4626 15.1093 43.9595C15.692 44.4563 16.4344 44.7947 17.2427 44.9317C18.0509 45.0688 18.8887 44.9985 19.6501 44.7296C20.4114 44.4607 21.0622 44.0053 21.52 43.4211C21.9779 42.8369 22.2222 42.15 22.2222 41.4474C22.2222 40.5052 21.7832 39.6015 21.0018 38.9353C20.2204 38.269 19.1606 37.8947 18.0556 37.8947ZM47.2222 30.7895H13.8889C13.1522 30.7895 12.4456 30.5399 11.9247 30.0958C11.4038 29.6516 11.1111 29.0492 11.1111 28.4211C11.1111 27.7929 11.4038 27.1905 11.9247 26.7463C12.4456 26.3022 13.1522 26.0526 13.8889 26.0526H37.4756C39.2851 26.0477 41.044 25.5428 42.4887 24.6138C43.9333 23.6848 44.986 22.3815 45.4889 20.8995L49.8929 7.75634C50.011 7.40385 50.0316 7.03279 49.953 6.67237C49.8743 6.31195 49.6987 5.97201 49.4398 5.67931C49.1809 5.38661 48.8459 5.14914 48.4611 4.9856C48.0763 4.82206 47.6522 4.7369 47.2222 4.73684H13.1641C12.589 3.3569 11.529 2.16168 10.1284 1.31403C8.7278 0.466385 7.05474 0.00753335 5.33719 0H2.77778C2.04107 0 1.33453 0.249529 0.813592 0.693694C0.292658 1.13786 0 1.74028 0 2.36842C0 2.99657 0.292658 3.59898 0.813592 4.04315C1.33453 4.48731 2.04107 4.73684 2.77778 4.73684H5.33719C5.9402 4.73864 6.5263 4.90693 7.00774 5.21652C7.48918 5.52611 7.84004 5.96034 8.00781 6.45418L8.43981 7.74436L8.44047 7.75634L12.9978 21.3563C10.8771 21.5508 8.92465 22.4312 7.5424 23.8162C6.16016 25.2012 5.45337 26.9854 5.56757 28.8014C5.68177 30.6173 6.60827 32.3268 8.15628 33.5779C9.7043 34.8289 11.756 35.5263 13.8889 35.5263H47.2222C47.9589 35.5263 48.6655 35.2768 49.1864 34.8326C49.7073 34.3885 50 33.786 50 33.1579C50 32.5298 49.7073 31.9273 49.1864 31.4832C48.6655 31.039 47.9589 30.7895 47.2222 30.7895ZM43.5398 9.47368L40.1476 19.5973C39.98 20.0915 39.629 20.5262 39.1473 20.836C38.6655 21.1458 38.079 21.3142 37.4756 21.3158H18.7622L18.054 19.2027L14.7956 9.47368H43.5398ZM40.2778 37.8947C39.4537 37.8947 38.6481 38.1031 37.9629 38.4935C37.2777 38.8838 36.7436 39.4387 36.4283 40.0878C36.1129 40.737 36.0304 41.4513 36.1912 42.1405C36.3519 42.8296 36.7488 43.4626 37.3315 43.9595C37.9142 44.4563 38.6566 44.7947 39.4649 44.9317C40.2732 45.0688 41.1109 44.9985 41.8723 44.7296C42.6336 44.4607 43.2844 44.0053 43.7422 43.4211C44.2001 42.8369 44.4444 42.15 44.4444 41.4474C44.4444 40.5052 44.0055 39.6015 43.2241 38.9353C42.4427 38.269 41.3828 37.8947 40.2778 37.8947Z" fill="#1E1E1E" fill-opacity="0.75"/>
</svg>
