<svg width="184" height="164" viewBox="0 0 184 164" fill="none" xmlns="http://www.w3.org/2000/svg">
<rect width="184" height="164" fill="#C1DCDC"/>
<path d="M27.06 131.78L31.92 144.32C32.12 144.8 32.3333 145.133 32.56 145.32C32.8 145.493 33.02 145.587 33.22 145.6V146C32.8733 145.973 32.4533 145.96 31.96 145.96C31.48 145.947 30.9867 145.94 30.48 145.94C29.8933 145.94 29.3467 145.947 28.84 145.96C28.3333 145.96 27.92 145.973 27.6 146V145.6C28.28 145.573 28.7133 145.46 28.9 145.26C29.0867 145.047 29.0467 144.6 28.78 143.92L25.26 134.42L25.62 133.98L22.42 142.28C22.1667 142.947 22.0133 143.493 21.96 143.92C21.9067 144.347 21.94 144.68 22.06 144.92C22.18 145.16 22.38 145.333 22.66 145.44C22.94 145.533 23.2867 145.587 23.7 145.6V146C23.2733 145.973 22.86 145.96 22.46 145.96C22.06 145.947 21.66 145.94 21.26 145.94C20.9667 145.94 20.6867 145.947 20.42 145.96C20.1667 145.96 19.94 145.973 19.74 146V145.6C20.0333 145.533 20.32 145.36 20.6 145.08C20.8933 144.8 21.1733 144.313 21.44 143.62L26.02 131.78C26.18 131.793 26.3533 131.8 26.54 131.8C26.7267 131.8 26.9 131.793 27.06 131.78ZM28.8 140.24V140.64H22.84L23.04 140.24H28.8ZM43.2055 130.34V143.82C43.2055 144.42 43.3055 144.867 43.5055 145.16C43.7055 145.44 44.0588 145.58 44.5655 145.58V146C44.1521 145.96 43.7388 145.94 43.3255 145.94C42.8321 145.94 42.3655 145.96 41.9255 146C41.4855 146.04 41.0721 146.113 40.6855 146.22V132.74C40.6855 132.14 40.5855 131.7 40.3855 131.42C40.1988 131.127 39.8455 130.98 39.3255 130.98V130.56C39.7521 130.6 40.1655 130.62 40.5655 130.62C41.0721 130.62 41.5455 130.6 41.9855 130.56C42.4255 130.507 42.8321 130.433 43.2055 130.34ZM38.4255 135.38C39.0121 135.38 39.5388 135.493 40.0055 135.72C40.4721 135.947 40.8188 136.327 41.0455 136.86L40.8055 137.06C40.6188 136.673 40.3655 136.387 40.0455 136.2C39.7255 136.013 39.3655 135.92 38.9655 135.92C38.2455 135.92 37.6655 136.327 37.2255 137.14C36.7988 137.94 36.5855 139.173 36.5855 140.84C36.5855 141.96 36.6721 142.867 36.8455 143.56C37.0188 144.24 37.2655 144.733 37.5855 145.04C37.9188 145.347 38.3121 145.5 38.7655 145.5C39.2455 145.5 39.6788 145.307 40.0655 144.92C40.4521 144.52 40.6788 143.953 40.7455 143.22L40.8855 143.78C40.7121 144.593 40.3855 145.213 39.9055 145.64C39.4255 146.067 38.7921 146.28 38.0055 146.28C37.2055 146.28 36.4921 146.087 35.8655 145.7C35.2521 145.3 34.7721 144.7 34.4255 143.9C34.0921 143.087 33.9255 142.06 33.9255 140.82C33.9255 139.607 34.1255 138.6 34.5255 137.8C34.9255 136.987 35.4655 136.38 36.1455 135.98C36.8255 135.58 37.5855 135.38 38.4255 135.38ZM55.0414 130.34V143.82C55.0414 144.42 55.1414 144.867 55.3414 145.16C55.5414 145.44 55.8947 145.58 56.4014 145.58V146C55.9881 145.96 55.5747 145.94 55.1614 145.94C54.6681 145.94 54.2014 145.96 53.7614 146C53.3214 146.04 52.9081 146.113 52.5214 146.22V132.74C52.5214 132.14 52.4214 131.7 52.2214 131.42C52.0347 131.127 51.6814 130.98 51.1614 130.98V130.56C51.5881 130.6 52.0014 130.62 52.4014 130.62C52.9081 130.62 53.3814 130.6 53.8214 130.56C54.2614 130.507 54.6681 130.433 55.0414 130.34ZM50.2614 135.38C50.8481 135.38 51.3747 135.493 51.8414 135.72C52.3081 135.947 52.6547 136.327 52.8814 136.86L52.6414 137.06C52.4547 136.673 52.2014 136.387 51.8814 136.2C51.5614 136.013 51.2014 135.92 50.8014 135.92C50.0814 135.92 49.5014 136.327 49.0614 137.14C48.6347 137.94 48.4214 139.173 48.4214 140.84C48.4214 141.96 48.5081 142.867 48.6814 143.56C48.8547 144.24 49.1014 144.733 49.4214 145.04C49.7547 145.347 50.1481 145.5 50.6014 145.5C51.0814 145.5 51.5147 145.307 51.9014 144.92C52.2881 144.52 52.5147 143.953 52.5814 143.22L52.7214 143.78C52.5481 144.593 52.2214 145.213 51.7414 145.64C51.2614 146.067 50.6281 146.28 49.8414 146.28C49.0414 146.28 48.3281 146.087 47.7014 145.7C47.0881 145.3 46.6081 144.7 46.2614 143.9C45.9281 143.087 45.7614 142.06 45.7614 140.82C45.7614 139.607 45.9614 138.6 46.3614 137.8C46.7614 136.987 47.3014 136.38 47.9814 135.98C48.6614 135.58 49.4214 135.38 50.2614 135.38ZM69.1225 135.38C69.6425 135.38 70.0758 135.453 70.4225 135.6C70.7825 135.747 71.0625 135.933 71.2625 136.16C71.5025 136.413 71.6692 136.753 71.7625 137.18C71.8558 137.593 71.9025 138.12 71.9025 138.76V144.14C71.9025 144.7 71.9958 145.08 72.1825 145.28C72.3825 145.48 72.7158 145.58 73.1825 145.58V146C72.9425 145.987 72.5825 145.973 72.1025 145.96C71.6225 145.933 71.1558 145.92 70.7025 145.92C70.2225 145.92 69.7558 145.933 69.3025 145.96C68.8625 145.973 68.5292 145.987 68.3025 146V145.58C68.6892 145.58 68.9625 145.48 69.1225 145.28C69.2958 145.08 69.3825 144.7 69.3825 144.14V138.08C69.3825 137.72 69.3558 137.4 69.3025 137.12C69.2492 136.827 69.1358 136.6 68.9625 136.44C68.7892 136.267 68.5225 136.18 68.1625 136.18C67.7492 136.18 67.3758 136.3 67.0425 136.54C66.7092 136.78 66.4425 137.113 66.2425 137.54C66.0558 137.953 65.9625 138.42 65.9625 138.94V144.14C65.9625 144.7 66.0425 145.08 66.2025 145.28C66.3625 145.48 66.6425 145.58 67.0425 145.58V146C66.8158 145.987 66.4825 145.973 66.0425 145.96C65.6158 145.933 65.1758 145.92 64.7225 145.92C64.2292 145.92 63.7292 145.933 63.2225 145.96C62.7158 145.973 62.3358 145.987 62.0825 146V145.58C62.5758 145.58 62.9225 145.48 63.1225 145.28C63.3358 145.08 63.4425 144.7 63.4425 144.14V137.84C63.4425 137.24 63.3425 136.8 63.1425 136.52C62.9558 136.227 62.6025 136.08 62.0825 136.08V135.66C62.5092 135.7 62.9225 135.72 63.3225 135.72C63.8158 135.72 64.2825 135.7 64.7225 135.66C65.1758 135.607 65.5892 135.533 65.9625 135.44V137.44C66.2958 136.707 66.7425 136.18 67.3025 135.86C67.8625 135.54 68.4692 135.38 69.1225 135.38ZM75.1425 135.38C75.6625 135.38 76.0958 135.453 76.4425 135.6C76.8025 135.747 77.0825 135.933 77.2825 136.16C77.5225 136.413 77.6892 136.753 77.7825 137.18C77.8758 137.593 77.9225 138.12 77.9225 138.76V144.14C77.9225 144.7 78.0225 145.08 78.2225 145.28C78.4358 145.48 78.7892 145.58 79.2825 145.58V146C79.0425 145.987 78.6692 145.973 78.1625 145.96C77.6692 145.933 77.1892 145.92 76.7225 145.92C76.2425 145.92 75.7758 145.933 75.3225 145.96C74.8825 145.973 74.5492 145.987 74.3225 146V145.58C74.7092 145.58 74.9825 145.48 75.1425 145.28C75.3158 145.08 75.4025 144.7 75.4025 144.14V138.08C75.4025 137.72 75.3692 137.4 75.3025 137.12C75.2492 136.827 75.1292 136.6 74.9425 136.44C74.7558 136.267 74.4758 136.18 74.1025 136.18C73.6892 136.18 73.3158 136.307 72.9825 136.56C72.6492 136.813 72.3825 137.153 72.1825 137.58C71.9958 137.993 71.8958 138.46 71.8825 138.98L71.7825 137.54C72.1425 136.713 72.6225 136.147 73.2225 135.84C73.8225 135.533 74.4625 135.38 75.1425 135.38ZM85.1508 135.38C86.0708 135.38 86.8841 135.567 87.5908 135.94C88.3108 136.3 88.8774 136.88 89.2908 137.68C89.7174 138.48 89.9308 139.533 89.9308 140.84C89.9308 142.147 89.7174 143.2 89.2908 144C88.8774 144.8 88.3108 145.38 87.5908 145.74C86.8841 146.1 86.0708 146.28 85.1508 146.28C84.2308 146.28 83.4108 146.1 82.6908 145.74C81.9708 145.38 81.4041 144.8 80.9908 144C80.5774 143.2 80.3708 142.147 80.3708 140.84C80.3708 139.533 80.5774 138.48 80.9908 137.68C81.4041 136.88 81.9708 136.3 82.6908 135.94C83.4108 135.567 84.2308 135.38 85.1508 135.38ZM85.1508 135.78C84.5241 135.78 84.0108 136.18 83.6108 136.98C83.2241 137.767 83.0308 139.053 83.0308 140.84C83.0308 142.627 83.2241 143.913 83.6108 144.7C84.0108 145.487 84.5241 145.88 85.1508 145.88C85.7641 145.88 86.2708 145.487 86.6708 144.7C87.0708 143.913 87.2708 142.627 87.2708 140.84C87.2708 139.053 87.0708 137.767 86.6708 136.98C86.2708 136.18 85.7641 135.78 85.1508 135.78ZM97.8827 135.38C98.296 135.38 98.636 135.467 98.9027 135.64C99.1827 135.813 99.3893 136.033 99.5227 136.3C99.656 136.567 99.7227 136.847 99.7227 137.14C99.7227 137.58 99.5893 137.947 99.3227 138.24C99.0693 138.533 98.7293 138.68 98.3027 138.68C97.9027 138.68 97.576 138.573 97.3227 138.36C97.0693 138.147 96.9427 137.853 96.9427 137.48C96.9427 137.147 97.0227 136.867 97.1827 136.64C97.356 136.413 97.5493 136.233 97.7627 136.1C97.616 136.02 97.4493 135.993 97.2627 136.02C96.9427 136.047 96.6493 136.16 96.3827 136.36C96.116 136.56 95.8893 136.807 95.7027 137.1C95.516 137.393 95.3693 137.707 95.2627 138.04C95.1693 138.373 95.1227 138.693 95.1227 139V143.94C95.1227 144.593 95.2893 145.033 95.6227 145.26C95.956 145.473 96.4427 145.58 97.0827 145.58V146C96.776 145.987 96.3293 145.973 95.7427 145.96C95.1693 145.933 94.5693 145.92 93.9427 145.92C93.4227 145.92 92.9027 145.933 92.3827 145.96C91.876 145.973 91.496 145.987 91.2427 146V145.58C91.736 145.58 92.0827 145.48 92.2827 145.28C92.496 145.08 92.6027 144.7 92.6027 144.14V137.84C92.6027 137.24 92.5027 136.8 92.3027 136.52C92.116 136.227 91.7627 136.08 91.2427 136.08V135.66C91.6693 135.7 92.0827 135.72 92.4827 135.72C92.976 135.72 93.4427 135.7 93.8827 135.66C94.336 135.607 94.7493 135.533 95.1227 135.44V137.52C95.2827 137.147 95.4893 136.8 95.7427 136.48C96.0093 136.16 96.3227 135.9 96.6827 135.7C97.056 135.487 97.456 135.38 97.8827 135.38ZM105.15 135.38C106.323 135.38 107.243 135.733 107.91 136.44C108.577 137.147 108.91 138.273 108.91 139.82H102.17L102.15 139.44H106.59C106.617 138.787 106.577 138.187 106.47 137.64C106.363 137.08 106.19 136.633 105.95 136.3C105.723 135.967 105.423 135.8 105.05 135.8C104.543 135.8 104.103 136.1 103.73 136.7C103.357 137.287 103.123 138.253 103.03 139.6L103.11 139.72C103.083 139.893 103.063 140.08 103.05 140.28C103.05 140.48 103.05 140.68 103.05 140.88C103.05 141.8 103.183 142.56 103.45 143.16C103.717 143.76 104.063 144.2 104.49 144.48C104.917 144.76 105.357 144.9 105.81 144.9C106.117 144.9 106.43 144.853 106.75 144.76C107.07 144.667 107.383 144.493 107.69 144.24C107.997 143.987 108.277 143.627 108.53 143.16L108.91 143.32C108.763 143.787 108.517 144.253 108.17 144.72C107.837 145.173 107.403 145.547 106.87 145.84C106.337 146.133 105.71 146.28 104.99 146.28C104.083 146.28 103.283 146.08 102.59 145.68C101.897 145.28 101.357 144.687 100.97 143.9C100.583 143.1 100.39 142.127 100.39 140.98C100.39 139.767 100.59 138.747 100.99 137.92C101.403 137.093 101.97 136.467 102.69 136.04C103.41 135.6 104.23 135.38 105.15 135.38ZM117.473 130.56C117.953 130.56 118.346 130.693 118.653 130.96C118.959 131.227 119.113 131.58 119.113 132.02C119.113 132.46 118.959 132.813 118.653 133.08C118.346 133.347 117.953 133.48 117.473 133.48C116.993 133.48 116.599 133.347 116.293 133.08C115.986 132.813 115.833 132.46 115.833 132.02C115.833 131.58 115.986 131.227 116.293 130.96C116.599 130.693 116.993 130.56 117.473 130.56ZM118.873 135.44V144.14C118.873 144.7 118.973 145.08 119.173 145.28C119.386 145.48 119.739 145.58 120.233 145.58V146C119.993 145.987 119.626 145.973 119.133 145.96C118.639 145.933 118.139 145.92 117.633 145.92C117.139 145.92 116.639 145.933 116.133 145.96C115.626 145.973 115.246 145.987 114.993 146V145.58C115.486 145.58 115.833 145.48 116.033 145.28C116.246 145.08 116.353 144.7 116.353 144.14V137.86C116.353 137.247 116.253 136.8 116.053 136.52C115.866 136.227 115.513 136.08 114.993 136.08V135.66C115.419 135.7 115.833 135.72 116.233 135.72C116.726 135.72 117.193 135.7 117.633 135.66C118.086 135.607 118.499 135.533 118.873 135.44ZM124.925 132.38V135.68H127.485V136.08H124.925V144.04C124.925 144.52 125.012 144.86 125.185 145.06C125.358 145.26 125.605 145.36 125.925 145.36C126.232 145.36 126.512 145.247 126.765 145.02C127.018 144.78 127.245 144.387 127.445 143.84L127.805 144C127.605 144.653 127.292 145.2 126.865 145.64C126.452 146.067 125.865 146.28 125.105 146.28C124.652 146.28 124.265 146.22 123.945 146.1C123.638 145.993 123.372 145.833 123.145 145.62C122.852 145.313 122.652 144.947 122.545 144.52C122.452 144.093 122.405 143.527 122.405 142.82V136.08H120.645V135.68H122.405V132.9C122.885 132.887 123.332 132.84 123.745 132.76C124.158 132.68 124.552 132.553 124.925 132.38ZM135.216 135.38C135.736 135.38 136.17 135.453 136.516 135.6C136.876 135.747 137.156 135.933 137.356 136.16C137.596 136.413 137.763 136.753 137.856 137.18C137.95 137.593 137.996 138.12 137.996 138.76V144.14C137.996 144.7 138.09 145.08 138.276 145.28C138.476 145.48 138.81 145.58 139.276 145.58V146C139.036 145.987 138.676 145.973 138.196 145.96C137.716 145.933 137.25 145.92 136.796 145.92C136.316 145.92 135.85 145.933 135.396 145.96C134.956 145.973 134.623 145.987 134.396 146V145.58C134.783 145.58 135.056 145.48 135.216 145.28C135.39 145.08 135.476 144.7 135.476 144.14V138.08C135.476 137.72 135.45 137.4 135.396 137.12C135.343 136.827 135.23 136.6 135.056 136.44C134.883 136.267 134.616 136.18 134.256 136.18C133.843 136.18 133.47 136.3 133.136 136.54C132.803 136.78 132.536 137.113 132.336 137.54C132.15 137.953 132.056 138.42 132.056 138.94V144.14C132.056 144.7 132.136 145.08 132.296 145.28C132.456 145.48 132.736 145.58 133.136 145.58V146C132.91 145.987 132.576 145.973 132.136 145.96C131.71 145.933 131.27 145.92 130.816 145.92C130.323 145.92 129.823 145.933 129.316 145.96C128.81 145.973 128.43 145.987 128.176 146V145.58C128.67 145.58 129.016 145.48 129.216 145.28C129.43 145.08 129.536 144.7 129.536 144.14V137.84C129.536 137.24 129.436 136.8 129.236 136.52C129.05 136.227 128.696 136.08 128.176 136.08V135.66C128.603 135.7 129.016 135.72 129.416 135.72C129.91 135.72 130.376 135.7 130.816 135.66C131.27 135.607 131.683 135.533 132.056 135.44V137.44C132.39 136.707 132.836 136.18 133.396 135.86C133.956 135.54 134.563 135.38 135.216 135.38ZM141.236 135.38C141.756 135.38 142.19 135.453 142.536 135.6C142.896 135.747 143.176 135.933 143.376 136.16C143.616 136.413 143.783 136.753 143.876 137.18C143.97 137.593 144.016 138.12 144.016 138.76V144.14C144.016 144.7 144.116 145.08 144.316 145.28C144.53 145.48 144.883 145.58 145.376 145.58V146C145.136 145.987 144.763 145.973 144.256 145.96C143.763 145.933 143.283 145.92 142.816 145.92C142.336 145.92 141.87 145.933 141.416 145.96C140.976 145.973 140.643 145.987 140.416 146V145.58C140.803 145.58 141.076 145.48 141.236 145.28C141.41 145.08 141.496 144.7 141.496 144.14V138.08C141.496 137.72 141.463 137.4 141.396 137.12C141.343 136.827 141.223 136.6 141.036 136.44C140.85 136.267 140.57 136.18 140.196 136.18C139.783 136.18 139.41 136.307 139.076 136.56C138.743 136.813 138.476 137.153 138.276 137.58C138.09 137.993 137.99 138.46 137.976 138.98L137.876 137.54C138.236 136.713 138.716 136.147 139.316 135.84C139.916 135.533 140.556 135.38 141.236 135.38ZM151.205 135.38C152.378 135.38 153.298 135.733 153.965 136.44C154.631 137.147 154.965 138.273 154.965 139.82H148.225L148.205 139.44H152.645C152.671 138.787 152.631 138.187 152.525 137.64C152.418 137.08 152.245 136.633 152.005 136.3C151.778 135.967 151.478 135.8 151.105 135.8C150.598 135.8 150.158 136.1 149.785 136.7C149.411 137.287 149.178 138.253 149.085 139.6L149.165 139.72C149.138 139.893 149.118 140.08 149.105 140.28C149.105 140.48 149.105 140.68 149.105 140.88C149.105 141.8 149.238 142.56 149.505 143.16C149.771 143.76 150.118 144.2 150.545 144.48C150.971 144.76 151.411 144.9 151.865 144.9C152.171 144.9 152.485 144.853 152.805 144.76C153.125 144.667 153.438 144.493 153.745 144.24C154.051 143.987 154.331 143.627 154.585 143.16L154.965 143.32C154.818 143.787 154.571 144.253 154.225 144.72C153.891 145.173 153.458 145.547 152.925 145.84C152.391 146.133 151.765 146.28 151.045 146.28C150.138 146.28 149.338 146.08 148.645 145.68C147.951 145.28 147.411 144.687 147.025 143.9C146.638 143.1 146.445 142.127 146.445 140.98C146.445 139.767 146.645 138.747 147.045 137.92C147.458 137.093 148.025 136.467 148.745 136.04C149.465 135.6 150.285 135.38 151.205 135.38ZM160.082 135.38C160.642 135.38 161.122 135.46 161.522 135.62C161.922 135.78 162.216 135.92 162.402 136.04C162.856 136.373 163.129 136.16 163.222 135.4H163.662C163.636 135.787 163.616 136.247 163.602 136.78C163.589 137.3 163.582 138 163.582 138.88H163.142C163.076 138.387 162.949 137.907 162.762 137.44C162.576 136.973 162.302 136.587 161.942 136.28C161.582 135.96 161.109 135.8 160.522 135.8C160.109 135.8 159.762 135.92 159.482 136.16C159.216 136.4 159.082 136.74 159.082 137.18C159.082 137.58 159.202 137.933 159.442 138.24C159.682 138.533 159.989 138.813 160.362 139.08C160.749 139.333 161.149 139.613 161.562 139.92C162.042 140.24 162.469 140.567 162.842 140.9C163.216 141.22 163.516 141.58 163.742 141.98C163.969 142.367 164.082 142.827 164.082 143.36C164.082 143.973 163.909 144.5 163.562 144.94C163.229 145.367 162.782 145.7 162.222 145.94C161.676 146.167 161.069 146.28 160.402 146.28C160.042 146.28 159.716 146.247 159.422 146.18C159.129 146.113 158.869 146.027 158.642 145.92C158.469 145.827 158.309 145.74 158.162 145.66C158.029 145.58 157.889 145.513 157.742 145.46C157.609 145.393 157.489 145.42 157.382 145.54C157.289 145.66 157.216 145.86 157.162 146.14H156.722C156.749 145.713 156.769 145.193 156.782 144.58C156.796 143.967 156.802 143.153 156.802 142.14H157.242C157.336 142.873 157.476 143.52 157.662 144.08C157.862 144.627 158.149 145.06 158.522 145.38C158.896 145.687 159.376 145.84 159.962 145.84C160.216 145.84 160.456 145.787 160.682 145.68C160.922 145.573 161.116 145.407 161.262 145.18C161.422 144.953 161.502 144.647 161.502 144.26C161.502 143.673 161.302 143.187 160.902 142.8C160.502 142.413 160.002 142 159.402 141.56C158.949 141.227 158.522 140.9 158.122 140.58C157.736 140.26 157.416 139.9 157.162 139.5C156.922 139.1 156.802 138.627 156.802 138.08C156.802 137.48 156.956 136.987 157.262 136.6C157.569 136.2 157.969 135.9 158.462 135.7C158.969 135.487 159.509 135.38 160.082 135.38Z" fill="black"/>
<path d="M92.5 115C87.529 115 83.5 114.282 83.5 113.397V31.6034C83.5 30.7178 87.529 30 92.5 30C97.471 30 101.5 30.7178 101.5 31.6034V113.397C101.5 114.282 97.471 115 92.5 115Z" fill="black"/>
<path d="M50 72.5C50 67.529 50.7178 63.5 51.6034 63.5L133.397 63.5C134.282 63.5 135 67.529 135 72.5C135 77.471 134.282 81.5 133.397 81.5L51.6034 81.5C50.7178 81.5 50 77.471 50 72.5Z" fill="black"/>
</svg>
