<svg width="202" height="60" viewBox="0 0 202 60" fill="none" xmlns="http://www.w3.org/2000/svg">
<rect width="202" height="60" fill="#C1DCDC"/>
<path d="M22.88 14.12C24.64 14.12 26.08 14.3867 27.2 14.92C28.3467 15.4267 29.36 16.0267 30.24 16.72C30.7733 17.12 31.1733 17.1733 31.44 16.88C31.7333 16.56 31.9333 15.8267 32.04 14.68H32.96C32.9067 15.72 32.8667 16.9867 32.84 18.48C32.8133 19.9467 32.8 21.9067 32.8 24.36H31.88C31.7467 23.1333 31.5733 22.0933 31.36 21.24C31.1467 20.36 30.8533 19.5867 30.48 18.92C30.1067 18.2533 29.5733 17.6533 28.88 17.12C28.2133 16.4533 27.44 15.96 26.56 15.64C25.68 15.32 24.76 15.16 23.8 15.16C22.36 15.16 21.1333 15.5467 20.12 16.32C19.1067 17.0667 18.28 18.0933 17.64 19.4C17.0267 20.7067 16.5733 22.1867 16.28 23.84C15.9867 25.4667 15.84 27.16 15.84 28.92C15.84 30.7067 15.9867 32.4267 16.28 34.08C16.6 35.7067 17.08 37.16 17.72 38.44C18.3867 39.72 19.24 40.7333 20.28 41.48C21.32 42.2267 22.5467 42.6 23.96 42.6C24.84 42.6 25.72 42.44 26.6 42.12C27.5067 41.7733 28.28 41.28 28.92 40.64C29.96 39.84 30.6667 38.8533 31.04 37.68C31.4133 36.48 31.6933 34.8933 31.88 32.92H32.8C32.8 35.4533 32.8133 37.5067 32.84 39.08C32.8667 40.6267 32.9067 41.9333 32.96 43H32.04C31.9333 41.8533 31.7467 41.1333 31.48 40.84C31.24 40.5467 30.8267 40.5867 30.24 40.96C29.2533 41.6533 28.2 42.2667 27.08 42.8C25.9867 43.3067 24.5733 43.56 22.84 43.56C20.0133 43.56 17.5333 42.9867 15.4 41.84C13.2933 40.6933 11.6533 39.04 10.48 36.88C9.30667 34.72 8.72 32.12 8.72 29.08C8.72 26.0933 9.32 23.48 10.52 21.24C11.7467 19 13.4133 17.2533 15.52 16C17.6533 14.7467 20.1067 14.12 22.88 14.12ZM44.2831 11.72V25.48C44.9498 24.0933 45.8431 23.1333 46.9631 22.6C48.1098 22.04 49.3898 21.76 50.8031 21.76C51.9498 21.76 52.8698 21.9067 53.5631 22.2C54.2565 22.4667 54.8031 22.84 55.2031 23.32C55.6565 23.8267 55.9765 24.48 56.1631 25.28C56.3765 26.08 56.4831 27.16 56.4831 28.52V39.28C56.4831 40.4 56.6698 41.16 57.0431 41.56C57.4431 41.96 58.1098 42.16 59.0431 42.16V43C58.5365 42.9733 57.7631 42.9467 56.7231 42.92C55.7098 42.8667 54.7231 42.84 53.7631 42.84C52.7231 42.84 51.7098 42.8667 50.7231 42.92C49.7631 42.9467 49.0431 42.9733 48.5631 43V42.16C49.3631 42.16 49.9231 41.96 50.2431 41.56C50.5631 41.16 50.7231 40.4 50.7231 39.28V26.84C50.7231 26.1733 50.6565 25.6 50.5231 25.12C50.3898 24.6133 50.1365 24.2267 49.7631 23.96C49.4165 23.6667 48.9098 23.52 48.2431 23.52C47.5231 23.52 46.8565 23.72 46.2431 24.12C45.6565 24.4933 45.1765 25.0267 44.8031 25.72C44.4565 26.4133 44.2831 27.2133 44.2831 28.12V39.28C44.2831 40.4 44.4431 41.16 44.7631 41.56C45.0831 41.96 45.6431 42.16 46.4431 42.16V43C45.9631 42.9733 45.2565 42.9467 44.3231 42.92C43.3898 42.8667 42.4431 42.84 41.4831 42.84C40.4431 42.84 39.3898 42.8667 38.3231 42.92C37.2831 42.9467 36.4965 42.9733 35.9631 43V42.16C36.8965 42.16 37.5498 41.96 37.9231 41.56C38.3231 41.16 38.5231 40.4 38.5231 39.28V16.52C38.5231 15.32 38.3365 14.44 37.9631 13.88C37.6165 13.2933 36.9498 13 35.9631 13V12.16C36.8165 12.24 37.6431 12.28 38.4431 12.28C39.5365 12.28 40.5765 12.24 41.5631 12.16C42.5498 12.0533 43.4565 11.9067 44.2831 11.72ZM70.8191 21.76C73.1657 21.76 75.0057 22.4533 76.3391 23.84C77.6724 25.2267 78.3391 27.4933 78.3391 30.64H65.1791L65.0991 29.88H73.2991C73.3257 28.5733 73.2457 27.3733 73.0591 26.28C72.8724 25.16 72.5791 24.2667 72.1791 23.6C71.7791 22.9333 71.2457 22.6 70.5791 22.6C69.6457 22.6 68.8457 23.1867 68.1791 24.36C67.5391 25.5333 67.1524 27.48 67.0191 30.2L67.1391 30.44C67.1124 30.76 67.0857 31.0933 67.0591 31.44C67.0591 31.7867 67.0591 32.1467 67.0591 32.52C67.0591 34.36 67.3124 35.8533 67.8191 37C68.3524 38.1467 69.0191 38.9867 69.8191 39.52C70.6191 40.0267 71.4324 40.28 72.2591 40.28C72.8191 40.28 73.3924 40.2 73.9791 40.04C74.5924 39.8533 75.2057 39.5333 75.8191 39.08C76.4324 38.6 77.0057 37.9333 77.5391 37.08L78.2591 37.32C77.9391 38.3333 77.4324 39.32 76.7391 40.28C76.0457 41.24 75.1657 42.0267 74.0991 42.64C73.0324 43.2533 71.7524 43.56 70.2591 43.56C68.4457 43.56 66.8457 43.1733 65.4591 42.4C64.0724 41.6267 62.9791 40.4533 62.1791 38.88C61.4057 37.3067 61.0191 35.3067 61.0191 32.88C61.0191 30.4 61.4324 28.3333 62.2591 26.68C63.1124 25.0267 64.2724 23.8 65.7391 23C67.2324 22.1733 68.9257 21.76 70.8191 21.76ZM91.0553 21.76C92.0953 21.76 93.042 21.88 93.8953 22.12C94.7753 22.3333 95.4953 22.6133 96.0553 22.96C96.7486 23.3867 97.282 23.92 97.6553 24.56C98.0553 25.1733 98.2553 25.8933 98.2553 26.72C98.2553 27.6533 97.962 28.4267 97.3753 29.04C96.7886 29.6267 96.0286 29.92 95.0953 29.92C94.162 29.92 93.4153 29.6533 92.8553 29.12C92.2953 28.5867 92.0153 27.8667 92.0153 26.96C92.0153 26.1067 92.282 25.4 92.8153 24.84C93.3486 24.2533 93.962 23.8667 94.6553 23.68C94.442 23.4133 94.122 23.1867 93.6953 23C93.2686 22.8133 92.7886 22.72 92.2553 22.72C91.4286 22.72 90.6953 22.96 90.0553 23.44C89.442 23.92 88.922 24.5867 88.4953 25.44C88.0686 26.2933 87.7353 27.2933 87.4953 28.44C87.282 29.5867 87.1753 30.84 87.1753 32.2C87.1753 34.2533 87.4286 35.8667 87.9353 37.04C88.4686 38.2133 89.1353 39.04 89.9353 39.52C90.762 40 91.6153 40.24 92.4953 40.24C93.002 40.24 93.5486 40.16 94.1353 40C94.7486 39.84 95.362 39.52 95.9753 39.04C96.6153 38.56 97.202 37.88 97.7353 37L98.4153 37.24C98.122 38.2267 97.642 39.2133 96.9753 40.2C96.3086 41.1867 95.442 42 94.3753 42.64C93.3086 43.2533 92.002 43.56 90.4553 43.56C88.722 43.56 87.1486 43.1867 85.7353 42.44C84.3486 41.6667 83.2286 40.4933 82.3753 38.92C81.5486 37.32 81.1353 35.2667 81.1353 32.76C81.1353 30.36 81.562 28.3467 82.4153 26.72C83.2953 25.0667 84.482 23.8267 85.9753 23C87.4686 22.1733 89.162 21.76 91.0553 21.76ZM108.619 11.68V39.28C108.619 40.4 108.792 41.16 109.139 41.56C109.512 41.96 110.139 42.16 111.019 42.16V43C110.512 42.9733 109.766 42.9467 108.779 42.92C107.819 42.8667 106.832 42.84 105.819 42.84C104.779 42.84 103.726 42.8667 102.659 42.92C101.619 42.9467 100.832 42.9733 100.299 43V42.16C101.232 42.16 101.886 41.96 102.259 41.56C102.659 41.16 102.859 40.4 102.859 39.28V16.48C102.859 15.28 102.672 14.4 102.299 13.84C101.952 13.2533 101.286 12.96 100.299 12.96V12.12C101.152 12.2 101.979 12.24 102.779 12.24C103.872 12.24 104.912 12.2 105.899 12.12C106.886 12.0133 107.792 11.8667 108.619 11.68ZM121.659 22.32V23.12C120.832 23.28 120.006 23.6267 119.179 24.16C118.352 24.6933 117.512 25.3733 116.659 26.2L113.579 29.4L113.979 28.64L120.819 40.08C121.112 40.56 121.419 40.9867 121.739 41.36C122.059 41.7333 122.446 42 122.899 42.16V43C122.499 42.9733 121.899 42.9467 121.099 42.92C120.299 42.8667 119.499 42.84 118.699 42.84C117.712 42.84 116.726 42.8667 115.739 42.92C114.752 42.9467 114.019 42.9733 113.539 43V42.16C114.072 42.16 114.432 42.04 114.619 41.8C114.806 41.5333 114.779 41.2 114.539 40.8L110.579 33.64C110.259 33.1333 109.939 32.8133 109.619 32.68C109.326 32.52 108.926 32.4267 108.419 32.4V31.64C108.979 31.5867 109.459 31.4933 109.859 31.36C110.286 31.2267 110.672 30.9733 111.019 30.6L114.059 27.64C114.966 26.7867 115.419 26.0267 115.419 25.36C115.419 24.6933 115.126 24.16 114.539 23.76C113.979 23.36 113.232 23.1467 112.299 23.12V22.32C113.046 22.3467 113.859 22.3733 114.739 22.4C115.619 22.4267 116.366 22.44 116.979 22.44C117.512 22.44 118.072 22.44 118.659 22.44C119.272 22.4133 119.846 22.4 120.379 22.4C120.912 22.3733 121.339 22.3467 121.659 22.32ZM143.358 21.76C145.305 21.76 147.011 22.12 148.478 22.84C149.945 23.56 151.091 24.72 151.918 26.32C152.745 27.92 153.158 30.04 153.158 32.68C153.158 35.32 152.745 37.44 151.918 39.04C151.091 40.6133 149.945 41.76 148.478 42.48C147.011 43.2 145.305 43.56 143.358 43.56C141.465 43.56 139.771 43.2 138.278 42.48C136.811 41.76 135.651 40.6133 134.798 39.04C133.971 37.44 133.558 35.32 133.558 32.68C133.558 30.04 133.971 27.92 134.798 26.32C135.651 24.72 136.811 23.56 138.278 22.84C139.771 22.12 141.465 21.76 143.358 21.76ZM143.358 22.56C142.291 22.56 141.398 23.36 140.678 24.96C139.958 26.5333 139.598 29.1067 139.598 32.68C139.598 36.2533 139.958 38.8267 140.678 40.4C141.398 41.9733 142.291 42.76 143.358 42.76C144.451 42.76 145.345 41.9733 146.038 40.4C146.758 38.8267 147.118 36.2533 147.118 32.68C147.118 29.1067 146.758 26.5333 146.038 24.96C145.345 23.36 144.451 22.56 143.358 22.56ZM175.575 21.88V38.64C175.575 39.84 175.762 40.7333 176.135 41.32C176.509 41.88 177.175 42.16 178.135 42.16V43C177.309 42.92 176.482 42.88 175.655 42.88C174.535 42.88 173.495 42.92 172.535 43C171.575 43.08 170.669 43.2267 169.815 43.44V39.84C169.175 41.1733 168.282 42.1333 167.135 42.72C166.015 43.28 164.762 43.56 163.375 43.56C162.255 43.56 161.349 43.4133 160.655 43.12C159.962 42.8267 159.415 42.4533 159.015 42C158.562 41.4933 158.242 40.8267 158.055 40C157.869 39.1733 157.775 38.1067 157.775 36.8V26.68C157.775 25.48 157.589 24.6 157.215 24.04C156.869 23.4533 156.202 23.16 155.215 23.16V22.32C156.069 22.4 156.895 22.44 157.695 22.44C158.815 22.44 159.855 22.4 160.815 22.32C161.802 22.2133 162.709 22.0667 163.535 21.88V38.44C163.535 39.1067 163.589 39.6933 163.695 40.2C163.829 40.7067 164.069 41.1067 164.415 41.4C164.762 41.6667 165.269 41.8 165.935 41.8C166.655 41.8 167.295 41.6 167.855 41.2C168.442 40.8 168.909 40.2533 169.255 39.56C169.629 38.84 169.815 38.04 169.815 37.16V26.68C169.815 25.48 169.629 24.6 169.255 24.04C168.909 23.4533 168.242 23.16 167.255 23.16V22.32C168.109 22.4 168.935 22.44 169.735 22.44C170.855 22.44 171.895 22.4 172.855 22.32C173.842 22.2133 174.749 22.0667 175.575 21.88ZM188.033 15.76V22.32H192.753V23.12H188.033V39.28C188.033 40.08 188.18 40.6533 188.473 41C188.766 41.32 189.206 41.48 189.793 41.48C190.273 41.48 190.753 41.3067 191.233 40.96C191.713 40.5867 192.14 39.96 192.513 39.08L193.193 39.44C192.766 40.64 192.113 41.6267 191.233 42.4C190.38 43.1733 189.206 43.56 187.713 43.56C186.833 43.56 186.06 43.44 185.393 43.2C184.726 42.9867 184.166 42.6533 183.713 42.2C183.126 41.6133 182.74 40.8933 182.553 40.04C182.366 39.16 182.273 38.0267 182.273 36.64V23.12H178.913V22.32H182.273V17.04C183.393 17.04 184.42 16.9467 185.353 16.76C186.313 16.5467 187.206 16.2133 188.033 15.76Z" fill="black"/>
</svg>
