<svg width="1423" height="248" viewBox="0 0 1423 248" fill="none" xmlns="http://www.w3.org/2000/svg">
<g filter="url(#filter0_d_532_2)">
<rect x="-24" y="21" width="1540" height="273" fill="#C1DCDC"/>
</g>
<path d="M57.04 67.72C54.912 67.72 53.24 67.112 52.024 65.896C50.824 64.664 50.224 62.952 50.224 60.76C50.224 58.68 50.704 56.784 51.664 55.072C52.624 53.36 53.92 52.016 55.552 51.04C57.184 50.064 58.968 49.576 60.904 49.576C62.104 49.576 63.032 49.76 63.688 50.128C64.36 50.496 64.696 51.008 64.696 51.664C64.696 52.224 64.472 52.688 64.024 53.056C63.592 53.424 63.04 53.608 62.368 53.608C61.664 53.608 61.016 53.456 60.424 53.152C59.848 52.848 59.376 52.336 59.008 51.616C57.92 52.064 56.944 52.744 56.08 53.656C55.216 54.568 54.536 55.656 54.04 56.92C53.544 58.168 53.296 59.512 53.296 60.952C53.296 62.52 53.616 63.744 54.256 64.624C54.896 65.488 55.784 65.92 56.92 65.92C57.88 65.92 58.728 65.672 59.464 65.176C60.2 64.68 60.784 64 61.216 63.136C61.648 62.272 61.896 61.304 61.96 60.232C62.12 60.232 62.248 60.4 62.344 60.736C62.456 61.072 62.512 61.6 62.512 62.32C62.512 63.28 62.264 64.176 61.768 65.008C61.272 65.84 60.6 66.504 59.752 67C58.92 67.48 58.016 67.72 57.04 67.72ZM61.24 71.44C60.68 71.44 60.264 71.32 59.992 71.08C59.736 70.84 59.608 70.456 59.608 69.928C59.608 69.144 59.824 67.88 60.256 66.136L62.272 61.84L61.96 60.232L60.4 59.152C60.816 58.784 61.304 58.496 61.864 58.288C62.44 58.064 62.96 57.952 63.424 57.952C63.904 57.952 64.248 58.04 64.456 58.216C64.664 58.392 64.768 58.696 64.768 59.128C64.768 59.272 64.608 59.904 64.288 61.024C63.76 62.88 63.328 64.544 62.992 66.016C62.656 67.472 62.488 68.712 62.488 69.736C62.488 70.28 62.624 70.664 62.896 70.888C62.384 71.256 61.832 71.44 61.24 71.44ZM70.7759 67.6C70.2319 67.6 69.8239 67.432 69.5519 67.096C69.2799 66.776 69.1439 66.28 69.1439 65.608C69.1439 64.952 69.3599 63.512 69.7919 61.288C70.2399 59.048 70.7199 56.952 71.2319 55L70.1759 53.8C70.6079 53.448 71.0239 53.176 71.4239 52.984C71.8399 52.776 72.2159 52.672 72.5519 52.672C72.9999 52.672 73.3279 52.8 73.5359 53.056C73.7439 53.296 73.8479 53.608 73.8479 53.992C73.8479 54.488 73.7599 55.032 73.5839 55.624C73.4239 56.2 73.1839 56.88 72.8639 57.664L73.1039 57.784C73.5999 56.6 74.1039 55.624 74.6159 54.856C75.1439 54.088 75.6719 53.52 76.1999 53.152C76.7439 52.768 77.2879 52.576 77.8319 52.576C78.3599 52.576 78.7519 52.696 79.0079 52.936C79.2799 53.16 79.4159 53.512 79.4159 53.992C79.4159 54.52 79.2079 54.944 78.7919 55.264C78.3759 55.584 77.8319 55.744 77.1599 55.744C76.3119 55.744 75.4879 56.224 74.6879 57.184C73.8879 58.144 73.2399 59.392 72.7439 60.928C72.2479 62.464 71.9999 64.048 71.9999 65.68C71.9999 66.272 72.0959 66.688 72.2879 66.928C71.8079 67.376 71.3039 67.6 70.7759 67.6ZM85.3116 67.6C83.6156 67.6 82.2876 67.08 81.3276 66.04C80.3676 65 79.8876 63.568 79.8876 61.744C79.8876 60.016 80.2636 58.456 81.0156 57.064C81.7676 55.672 82.8076 54.584 84.1356 53.8C85.4636 53 86.9436 52.6 88.5756 52.6C89.8396 52.6 90.8236 52.904 91.5276 53.512C92.2476 54.12 92.6076 54.96 92.6076 56.032C92.6076 57.168 92.1996 58.144 91.3836 58.96C90.5676 59.76 89.3756 60.376 87.8076 60.808C86.2556 61.224 84.3756 61.432 82.1676 61.432L82.4556 60.088C84.8396 60.104 86.6876 59.752 87.9996 59.032C89.3276 58.296 89.9916 57.272 89.9916 55.96C89.9916 55.4 89.8236 54.952 89.4876 54.616C89.1516 54.28 88.7116 54.112 88.1676 54.112C87.2236 54.112 86.3436 54.464 85.5276 55.168C84.7116 55.856 84.0636 56.8 83.5836 58C83.1036 59.184 82.8636 60.48 82.8636 61.888C82.8636 63.168 83.1036 64.176 83.5836 64.912C84.0636 65.632 84.7196 65.992 85.5516 65.992C86.5916 65.992 87.4396 65.664 88.0956 65.008C88.7516 64.352 89.1116 63.48 89.1756 62.392C89.7996 62.392 90.2796 62.512 90.6156 62.752C90.9516 62.976 91.1196 63.336 91.1196 63.832C91.1196 64.472 90.8636 65.088 90.3516 65.68C89.8396 66.256 89.1356 66.72 88.2396 67.072C87.3596 67.424 86.3836 67.6 85.3116 67.6ZM100.921 67.6C99.225 67.6 97.897 67.08 96.937 66.04C95.977 65 95.497 63.568 95.497 61.744C95.497 60.016 95.873 58.456 96.625 57.064C97.377 55.672 98.417 54.584 99.745 53.8C101.073 53 102.553 52.6 104.185 52.6C105.449 52.6 106.433 52.904 107.137 53.512C107.857 54.12 108.217 54.96 108.217 56.032C108.217 57.168 107.809 58.144 106.993 58.96C106.177 59.76 104.985 60.376 103.417 60.808C101.865 61.224 99.985 61.432 97.777 61.432L98.065 60.088C100.449 60.104 102.297 59.752 103.609 59.032C104.937 58.296 105.601 57.272 105.601 55.96C105.601 55.4 105.433 54.952 105.097 54.616C104.761 54.28 104.321 54.112 103.777 54.112C102.833 54.112 101.953 54.464 101.137 55.168C100.321 55.856 99.673 56.8 99.193 58C98.713 59.184 98.473 60.48 98.473 61.888C98.473 63.168 98.713 64.176 99.193 64.912C99.673 65.632 100.329 65.992 101.161 65.992C102.201 65.992 103.049 65.664 103.705 65.008C104.361 64.352 104.721 63.48 104.785 62.392C105.409 62.392 105.889 62.512 106.225 62.752C106.561 62.976 106.729 63.336 106.729 63.832C106.729 64.472 106.473 65.088 105.961 65.68C105.449 66.256 104.745 66.72 103.849 67.072C102.969 67.424 101.993 67.6 100.921 67.6ZM113.362 67.6C112.802 67.6 112.386 67.464 112.114 67.192C111.858 66.92 111.73 66.488 111.73 65.896C111.73 65.192 111.938 63.744 112.354 61.552C112.786 59.344 113.274 57.16 113.818 55L112.738 53.8C113.122 53.464 113.57 53.192 114.082 52.984C114.61 52.776 115.082 52.672 115.498 52.672C115.978 52.672 116.314 52.768 116.506 52.96C116.698 53.152 116.794 53.496 116.794 53.992C116.794 54.408 116.722 54.88 116.578 55.408C116.45 55.936 116.274 56.424 116.05 56.872L116.29 56.992C117.906 54.064 120.002 52.6 122.578 52.6C123.618 52.6 124.386 52.864 124.882 53.392C125.394 53.904 125.65 54.704 125.65 55.792C125.65 56.432 125.578 57.096 125.434 57.784C125.306 58.472 125.114 59.336 124.858 60.376C124.554 61.592 124.33 62.592 124.186 63.376C124.042 64.144 123.97 64.912 123.97 65.68C123.97 66.256 124.074 66.672 124.282 66.928C123.802 67.376 123.29 67.6 122.746 67.6C122.202 67.6 121.794 67.464 121.522 67.192C121.266 66.92 121.138 66.488 121.138 65.896C121.138 65.288 121.202 64.608 121.33 63.856C121.474 63.088 121.674 62.096 121.93 60.88C122.17 59.872 122.346 59.032 122.458 58.36C122.586 57.672 122.65 57.08 122.65 56.584C122.65 55.288 122.162 54.64 121.186 54.64C120.05 54.64 118.97 55.184 117.946 56.272C116.938 57.344 116.122 58.736 115.498 60.448C114.89 62.16 114.586 63.904 114.586 65.68C114.586 66.272 114.682 66.688 114.874 66.928C114.394 67.376 113.89 67.6 113.362 67.6ZM131.67 67.72C131.206 67.72 130.838 67.584 130.566 67.312C130.31 67.056 130.126 66.688 130.014 66.208C129.918 65.728 129.87 65.128 129.87 64.408C129.87 63.368 129.878 62.584 129.894 62.056C129.91 59.928 129.886 58.208 129.822 56.896C129.774 55.584 129.606 54.336 129.318 53.152C129.03 51.968 128.558 50.992 127.902 50.224C128.494 49.792 129.142 49.576 129.846 49.576C130.662 49.576 131.278 49.864 131.694 50.44C132.126 51.016 132.422 51.952 132.582 53.248C132.742 54.544 132.822 56.392 132.822 58.792V64.12C132.822 64.424 132.814 64.672 132.798 64.864C132.798 65.056 132.798 65.224 132.798 65.368H133.11C135.206 62.792 136.758 60.448 137.766 58.336C138.774 56.208 139.414 54.552 139.686 53.368C139.702 53.32 139.71 53.28 139.71 53.248C139.726 53.2 139.734 53.16 139.734 53.128C139.734 52.984 139.686 52.8 139.59 52.576C139.51 52.352 139.406 52.104 139.278 51.832C139.214 51.704 139.158 51.584 139.11 51.472C139.062 51.36 139.03 51.264 139.014 51.184C139.318 50.896 139.566 50.704 139.758 50.608C139.966 50.496 140.19 50.44 140.43 50.44C140.958 50.44 141.382 50.624 141.702 50.992C142.022 51.344 142.182 51.832 142.182 52.456C142.182 53.064 142.062 53.712 141.822 54.4C141.598 55.072 141.27 55.808 140.838 56.608C140.422 57.392 139.75 58.6 138.822 60.232C138.774 60.296 138.718 60.392 138.654 60.52C137.534 62.488 136.582 63.992 135.798 65.032C135.014 66.072 134.302 66.776 133.662 67.144C133.038 67.528 132.374 67.72 131.67 67.72ZM142.014 67.72C141.342 67.72 140.822 67.56 140.454 67.24C140.102 66.936 139.854 66.52 139.71 65.992C139.566 65.448 139.47 64.768 139.422 63.952L138.486 51.184C138.662 50.96 138.918 50.784 139.254 50.656C139.606 50.512 139.998 50.44 140.43 50.44L141.15 52.192L141.606 65.368H141.894C144.006 62.04 145.534 59.36 146.478 57.328C147.438 55.28 147.918 53.728 147.918 52.672C147.918 51.712 147.71 50.896 147.294 50.224C147.774 49.968 148.158 49.8 148.446 49.72C148.75 49.624 149.078 49.576 149.43 49.576C149.894 49.576 150.254 49.768 150.51 50.152C150.782 50.536 150.918 51.048 150.918 51.688C150.918 52.472 150.67 53.536 150.174 54.88C149.694 56.208 148.974 57.8 148.014 59.656C147.054 61.496 145.87 63.576 144.462 65.896L144.894 66.712C144.622 67 144.206 67.24 143.646 67.432C143.102 67.624 142.558 67.72 142.014 67.72ZM158.657 67.6C157.505 67.6 156.489 67.344 155.609 66.832C154.745 66.304 154.073 65.568 153.593 64.624C153.129 63.664 152.897 62.552 152.897 61.288C152.897 59.592 153.249 58.088 153.953 56.776C154.673 55.464 155.673 54.44 156.953 53.704C158.233 52.968 159.681 52.6 161.297 52.6C161.969 52.6 162.585 52.664 163.145 52.792C163.321 53.048 163.425 53.424 163.457 53.92C161.857 53.92 160.489 54.24 159.353 54.88C158.217 55.52 157.353 56.416 156.761 57.568C156.169 58.704 155.873 60 155.873 61.456C155.873 62.88 156.137 63.992 156.665 64.792C157.193 65.592 157.945 65.992 158.921 65.992C159.865 65.992 160.713 65.728 161.465 65.2C162.233 64.672 162.857 63.92 163.337 62.944C163.833 61.968 164.145 60.832 164.273 59.536C163.617 59.12 163.137 58.664 162.833 58.168C162.545 57.672 162.401 57.088 162.401 56.416C162.401 56.016 162.481 55.656 162.641 55.336C162.817 55 163.049 54.744 163.337 54.568C163.625 54.376 163.953 54.28 164.321 54.28C165.057 54.28 165.633 54.608 166.049 55.264C166.465 55.92 166.673 56.832 166.673 58C166.673 59.76 166.313 61.376 165.593 62.848C164.889 64.304 163.921 65.464 162.689 66.328C161.473 67.176 160.129 67.6 158.657 67.6ZM172.448 67.6C171.904 67.6 171.496 67.432 171.224 67.096C170.952 66.776 170.816 66.28 170.816 65.608C170.816 64.952 171.032 63.512 171.464 61.288C171.912 59.048 172.392 56.952 172.904 55L171.848 53.8C172.28 53.448 172.696 53.176 173.096 52.984C173.512 52.776 173.888 52.672 174.224 52.672C174.672 52.672 175 52.8 175.208 53.056C175.416 53.296 175.52 53.608 175.52 53.992C175.52 54.488 175.432 55.032 175.256 55.624C175.096 56.2 174.856 56.88 174.536 57.664L174.776 57.784C175.272 56.6 175.776 55.624 176.288 54.856C176.816 54.088 177.344 53.52 177.872 53.152C178.416 52.768 178.96 52.576 179.504 52.576C180.032 52.576 180.424 52.696 180.68 52.936C180.952 53.16 181.088 53.512 181.088 53.992C181.088 54.52 180.88 54.944 180.464 55.264C180.048 55.584 179.504 55.744 178.832 55.744C177.984 55.744 177.16 56.224 176.36 57.184C175.56 58.144 174.912 59.392 174.416 60.928C173.92 62.464 173.672 64.048 173.672 65.68C173.672 66.272 173.768 66.688 173.96 66.928C173.48 67.376 172.976 67.6 172.448 67.6ZM184.044 67.6C183.564 67.6 183.196 67.44 182.94 67.12C182.684 66.816 182.556 66.344 182.556 65.704C182.556 65.08 182.732 63.592 183.084 61.24C183.436 58.872 183.836 56.368 184.284 53.728C184.38 53.168 184.476 52.632 184.572 52.12C184.668 51.592 184.756 51.096 184.836 50.632L183.78 49.432C184.148 49.112 184.588 48.864 185.1 48.688C185.628 48.496 186.108 48.4 186.54 48.4C186.988 48.4 187.308 48.504 187.5 48.712C187.692 48.904 187.788 49.24 187.788 49.72C187.788 49.928 187.724 50.368 187.596 51.04C187.468 51.712 187.316 52.464 187.14 53.296C186.612 55.872 186.18 58.16 185.844 60.16C185.524 62.144 185.364 63.912 185.364 65.464C185.364 65.768 185.404 66.056 185.484 66.328C185.58 66.584 185.7 66.784 185.844 66.928C185.604 67.136 185.332 67.296 185.028 67.408C184.724 67.536 184.396 67.6 184.044 67.6ZM195.324 67.6C194.46 67.6 193.692 67.368 193.02 66.904C192.364 66.44 191.852 65.784 191.484 64.936C191.132 64.072 190.956 63.08 190.956 61.96C190.956 60.344 191.364 58.872 192.18 57.544C192.996 56.2 194.108 55.144 195.516 54.376C196.924 53.592 198.476 53.2 200.172 53.2C201.036 53.2 201.788 53.264 202.428 53.392C202.62 53.696 202.716 54.072 202.716 54.52C200.94 54.52 199.388 54.832 198.06 55.456C196.732 56.08 195.708 56.952 194.988 58.072C194.268 59.176 193.908 60.448 193.908 61.888C193.908 62.976 194.132 63.824 194.58 64.432C195.028 65.04 195.66 65.344 196.476 65.344C197.356 65.344 198.22 64.952 199.068 64.168C199.916 63.384 200.572 62.328 201.036 61L200.82 64.264L200.34 64.072C199.764 65.192 199.036 66.064 198.156 66.688C197.292 67.296 196.348 67.6 195.324 67.6ZM201.996 67.6C201.5 67.6 201.124 67.44 200.868 67.12C200.612 66.816 200.484 66.344 200.484 65.704C200.484 65.096 200.652 63.68 200.988 61.456C201.324 59.216 201.732 56.64 202.212 53.728C202.324 53.168 202.42 52.632 202.5 52.12C202.596 51.592 202.684 51.096 202.764 50.632L201.708 49.432C202.092 49.112 202.54 48.864 203.052 48.688C203.564 48.496 204.036 48.4 204.468 48.4C204.916 48.4 205.236 48.504 205.428 48.712C205.62 48.904 205.716 49.24 205.716 49.72C205.716 50.04 205.644 50.536 205.5 51.208C205.372 51.88 205.22 52.616 205.044 53.416C204.516 55.752 204.092 57.864 203.772 59.752C203.452 61.624 203.292 63.528 203.292 65.464C203.292 65.752 203.332 66.032 203.412 66.304C203.508 66.576 203.636 66.784 203.796 66.928C203.54 67.136 203.26 67.296 202.956 67.408C202.668 67.536 202.348 67.6 201.996 67.6Z" fill="black"/>
<path d="M66.64 114.49L62.932 127H60.61L57.982 117.532L55.192 127L52.888 127.018L49.342 114.49H51.52L54.112 124.678L56.92 114.49H59.224L61.834 124.624L64.444 114.49H66.64ZM77.4224 121.798C77.4224 122.17 77.3984 122.506 77.3504 122.806H69.7724C69.8324 123.598 70.1264 124.234 70.6544 124.714C71.1824 125.194 71.8304 125.434 72.5984 125.434C73.7024 125.434 74.4824 124.972 74.9384 124.048H77.1524C76.8524 124.96 76.3064 125.71 75.5144 126.298C74.7344 126.874 73.7624 127.162 72.5984 127.162C71.6504 127.162 70.7984 126.952 70.0424 126.532C69.2984 126.1 68.7104 125.5 68.2784 124.732C67.8584 123.952 67.6484 123.052 67.6484 122.032C67.6484 121.012 67.8524 120.118 68.2604 119.35C68.6804 118.57 69.2624 117.97 70.0064 117.55C70.7624 117.13 71.6264 116.92 72.5984 116.92C73.5344 116.92 74.3684 117.124 75.1004 117.532C75.8324 117.94 76.4024 118.516 76.8104 119.26C77.2184 119.992 77.4224 120.838 77.4224 121.798ZM75.2804 121.15C75.2684 120.394 74.9984 119.788 74.4704 119.332C73.9424 118.876 73.2884 118.648 72.5084 118.648C71.8004 118.648 71.1944 118.876 70.6904 119.332C70.1864 119.776 69.8864 120.382 69.7904 121.15H75.2804ZM89.2476 116.92C90.0036 116.92 90.6756 117.082 91.2636 117.406C91.8636 117.73 92.3316 118.21 92.6676 118.846C93.0156 119.482 93.1896 120.25 93.1896 121.15V127H91.1556V121.456C91.1556 120.568 90.9336 119.89 90.4896 119.422C90.0456 118.942 89.4396 118.702 88.6716 118.702C87.9036 118.702 87.2916 118.942 86.8356 119.422C86.3916 119.89 86.1696 120.568 86.1696 121.456V127H84.1176V113.68H86.1696V118.234C86.5176 117.814 86.9556 117.49 87.4836 117.262C88.0236 117.034 88.6116 116.92 89.2476 116.92ZM104.897 121.798C104.897 122.17 104.873 122.506 104.825 122.806H97.247C97.307 123.598 97.601 124.234 98.129 124.714C98.657 125.194 99.305 125.434 100.073 125.434C101.177 125.434 101.957 124.972 102.413 124.048H104.627C104.327 124.96 103.781 125.71 102.989 126.298C102.209 126.874 101.237 127.162 100.073 127.162C99.125 127.162 98.273 126.952 97.517 126.532C96.773 126.1 96.185 125.5 95.753 124.732C95.333 123.952 95.123 123.052 95.123 122.032C95.123 121.012 95.327 120.118 95.735 119.35C96.155 118.57 96.737 117.97 97.481 117.55C98.237 117.13 99.101 116.92 100.073 116.92C101.009 116.92 101.843 117.124 102.575 117.532C103.307 117.94 103.877 118.516 104.285 119.26C104.693 119.992 104.897 120.838 104.897 121.798ZM102.755 121.15C102.743 120.394 102.473 119.788 101.945 119.332C101.417 118.876 100.763 118.648 99.983 118.648C99.275 118.648 98.669 118.876 98.165 119.332C97.661 119.776 97.361 120.382 97.265 121.15H102.755ZM108.968 113.68V127H106.916V113.68H108.968ZM113.715 118.54C114.063 118.084 114.537 117.7 115.137 117.388C115.737 117.076 116.415 116.92 117.171 116.92C118.035 116.92 118.821 117.136 119.529 117.568C120.249 117.988 120.813 118.582 121.221 119.35C121.629 120.118 121.833 121 121.833 121.996C121.833 122.992 121.629 123.886 121.221 124.678C120.813 125.458 120.249 126.07 119.529 126.514C118.821 126.946 118.035 127.162 117.171 127.162C116.415 127.162 115.743 127.012 115.155 126.712C114.567 126.4 114.087 126.016 113.715 125.56V131.716H111.663V117.082H113.715V118.54ZM119.745 121.996C119.745 121.312 119.601 120.724 119.312 120.232C119.037 119.728 118.665 119.35 118.197 119.098C117.741 118.834 117.249 118.702 116.721 118.702C116.205 118.702 115.713 118.834 115.245 119.098C114.789 119.362 114.417 119.746 114.129 120.25C113.853 120.754 113.715 121.348 113.715 122.032C113.715 122.716 113.853 123.316 114.129 123.832C114.417 124.336 114.789 124.72 115.245 124.984C115.713 125.248 116.205 125.38 116.721 125.38C117.249 125.38 117.741 125.248 118.197 124.984C118.665 124.708 119.037 124.312 119.312 123.796C119.601 123.28 119.745 122.68 119.745 121.996ZM137.466 117.082L131.382 131.662H129.258L131.274 126.838L127.368 117.082H129.654L132.444 124.642L135.342 117.082H137.466ZM143.316 127.162C142.38 127.162 141.534 126.952 140.778 126.532C140.022 126.1 139.428 125.5 138.996 124.732C138.564 123.952 138.348 123.052 138.348 122.032C138.348 121.024 138.57 120.13 139.014 119.35C139.458 118.57 140.064 117.97 140.832 117.55C141.6 117.13 142.458 116.92 143.406 116.92C144.354 116.92 145.212 117.13 145.98 117.55C146.748 117.97 147.354 118.57 147.798 119.35C148.242 120.13 148.464 121.024 148.464 122.032C148.464 123.04 148.236 123.934 147.78 124.714C147.324 125.494 146.7 126.1 145.908 126.532C145.128 126.952 144.264 127.162 143.316 127.162ZM143.316 125.38C143.844 125.38 144.336 125.254 144.792 125.002C145.26 124.75 145.638 124.372 145.926 123.868C146.214 123.364 146.358 122.752 146.358 122.032C146.358 121.312 146.22 120.706 145.944 120.214C145.668 119.71 145.302 119.332 144.846 119.08C144.39 118.828 143.898 118.702 143.37 118.702C142.842 118.702 142.35 118.828 141.894 119.08C141.45 119.332 141.096 119.71 140.832 120.214C140.568 120.706 140.436 121.312 140.436 122.032C140.436 123.1 140.706 123.928 141.246 124.516C141.798 125.092 142.488 125.38 143.316 125.38ZM159.475 117.082V127H157.423V125.83C157.099 126.238 156.673 126.562 156.145 126.802C155.629 127.03 155.077 127.144 154.489 127.144C153.709 127.144 153.007 126.982 152.383 126.658C151.771 126.334 151.285 125.854 150.925 125.218C150.577 124.582 150.403 123.814 150.403 122.914V117.082H152.437V122.608C152.437 123.496 152.659 124.18 153.103 124.66C153.547 125.128 154.153 125.362 154.921 125.362C155.689 125.362 156.295 125.128 156.739 124.66C157.195 124.18 157.423 123.496 157.423 122.608V117.082H159.475ZM171.016 118.756H169.18V127H167.11V118.756H165.94V117.082H167.11V116.38C167.11 115.24 167.41 114.412 168.01 113.896C168.622 113.368 169.576 113.104 170.872 113.104V114.814C170.248 114.814 169.81 114.934 169.558 115.174C169.306 115.402 169.18 115.804 169.18 116.38V117.082H171.016V118.756ZM173.878 115.768C173.506 115.768 173.194 115.642 172.942 115.39C172.69 115.138 172.564 114.826 172.564 114.454C172.564 114.082 172.69 113.77 172.942 113.518C173.194 113.266 173.506 113.14 173.878 113.14C174.238 113.14 174.544 113.266 174.796 113.518C175.048 113.77 175.174 114.082 175.174 114.454C175.174 114.826 175.048 115.138 174.796 115.39C174.544 115.642 174.238 115.768 173.878 115.768ZM174.886 117.082V127H172.834V117.082H174.886ZM182.584 116.92C183.364 116.92 184.06 117.082 184.672 117.406C185.296 117.73 185.782 118.21 186.13 118.846C186.478 119.482 186.652 120.25 186.652 121.15V127H184.618V121.456C184.618 120.568 184.396 119.89 183.952 119.422C183.508 118.942 182.902 118.702 182.134 118.702C181.366 118.702 180.754 118.942 180.298 119.422C179.854 119.89 179.632 120.568 179.632 121.456V127H177.58V117.082H179.632V118.216C179.968 117.808 180.394 117.49 180.91 117.262C181.438 117.034 181.996 116.92 182.584 116.92ZM188.586 121.996C188.586 121 188.79 120.118 189.198 119.35C189.618 118.582 190.182 117.988 190.89 117.568C191.61 117.136 192.408 116.92 193.284 116.92C193.932 116.92 194.568 117.064 195.192 117.352C195.828 117.628 196.332 118 196.704 118.468V113.68H198.774V127H196.704V125.506C196.368 125.986 195.9 126.382 195.3 126.694C194.712 127.006 194.034 127.162 193.266 127.162C192.402 127.162 191.61 126.946 190.89 126.514C190.182 126.07 189.618 125.458 189.198 124.678C188.79 123.886 188.586 122.992 188.586 121.996ZM196.704 122.032C196.704 121.348 196.56 120.754 196.272 120.25C195.996 119.746 195.63 119.362 195.174 119.098C194.718 118.834 194.226 118.702 193.698 118.702C193.17 118.702 192.678 118.834 192.222 119.098C191.766 119.35 191.394 119.728 191.106 120.232C190.83 120.724 190.692 121.312 190.692 121.996C190.692 122.68 190.83 123.28 191.106 123.796C191.394 124.312 191.766 124.708 192.222 124.984C192.69 125.248 193.182 125.38 193.698 125.38C194.226 125.38 194.718 125.248 195.174 124.984C195.63 124.72 195.996 124.336 196.272 123.832C196.56 123.316 196.704 122.716 196.704 122.032ZM59.278 144.082L53.194 158.662H51.07L53.086 153.838L49.18 144.082H51.466L54.256 151.642L57.154 144.082H59.278ZM65.1286 154.162C64.1926 154.162 63.3466 153.952 62.5906 153.532C61.8346 153.1 61.2406 152.5 60.8086 151.732C60.3766 150.952 60.1606 150.052 60.1606 149.032C60.1606 148.024 60.3826 147.13 60.8266 146.35C61.2706 145.57 61.8766 144.97 62.6446 144.55C63.4126 144.13 64.2706 143.92 65.2186 143.92C66.1666 143.92 67.0246 144.13 67.7926 144.55C68.5606 144.97 69.1666 145.57 69.6106 146.35C70.0546 147.13 70.2766 148.024 70.2766 149.032C70.2766 150.04 70.0486 150.934 69.5926 151.714C69.1366 152.494 68.5126 153.1 67.7206 153.532C66.9406 153.952 66.0766 154.162 65.1286 154.162ZM65.1286 152.38C65.6566 152.38 66.1486 152.254 66.6046 152.002C67.0726 151.75 67.4506 151.372 67.7386 150.868C68.0266 150.364 68.1706 149.752 68.1706 149.032C68.1706 148.312 68.0326 147.706 67.7566 147.214C67.4806 146.71 67.1146 146.332 66.6586 146.08C66.2026 145.828 65.7106 145.702 65.1826 145.702C64.6546 145.702 64.1626 145.828 63.7066 146.08C63.2626 146.332 62.9086 146.71 62.6446 147.214C62.3806 147.706 62.2486 148.312 62.2486 149.032C62.2486 150.1 62.5186 150.928 63.0586 151.516C63.6106 152.092 64.3006 152.38 65.1286 152.38ZM81.2871 144.082V154H79.2351V152.83C78.9111 153.238 78.4851 153.562 77.9571 153.802C77.4411 154.03 76.8891 154.144 76.3011 154.144C75.5211 154.144 74.8191 153.982 74.1951 153.658C73.5831 153.334 73.0971 152.854 72.7371 152.218C72.3891 151.582 72.2151 150.814 72.2151 149.914V144.082H74.2491V149.608C74.2491 150.496 74.4711 151.18 74.9151 151.66C75.3591 152.128 75.9651 152.362 76.7331 152.362C77.5011 152.362 78.1071 152.128 78.5511 151.66C79.0071 151.18 79.2351 150.496 79.2351 149.608V144.082H81.2871ZM86.0465 145.522C86.3465 145.018 86.7425 144.628 87.2345 144.352C87.7385 144.064 88.3325 143.92 89.0165 143.92V146.044H88.4945C87.6905 146.044 87.0785 146.248 86.6585 146.656C86.2505 147.064 86.0465 147.772 86.0465 148.78V154H83.9945V144.082H86.0465V145.522ZM94.8945 148.996C94.8945 148 95.0985 147.118 95.5065 146.35C95.9265 145.582 96.4905 144.988 97.1985 144.568C97.9185 144.136 98.7165 143.92 99.5925 143.92C100.241 143.92 100.877 144.064 101.501 144.352C102.137 144.628 102.641 145 103.013 145.468V140.68H105.083V154H103.013V152.506C102.677 152.986 102.209 153.382 101.609 153.694C101.021 154.006 100.343 154.162 99.5745 154.162C98.7105 154.162 97.9185 153.946 97.1985 153.514C96.4905 153.07 95.9265 152.458 95.5065 151.678C95.0985 150.886 94.8945 149.992 94.8945 148.996ZM103.013 149.032C103.013 148.348 102.869 147.754 102.581 147.25C102.305 146.746 101.939 146.362 101.483 146.098C101.027 145.834 100.535 145.702 100.007 145.702C99.4785 145.702 98.9865 145.834 98.5305 146.098C98.0745 146.35 97.7025 146.728 97.4145 147.232C97.1385 147.724 97.0005 148.312 97.0005 148.996C97.0005 149.68 97.1385 150.28 97.4145 150.796C97.7025 151.312 98.0745 151.708 98.5305 151.984C98.9985 152.248 99.4905 152.38 100.007 152.38C100.535 152.38 101.027 152.248 101.483 151.984C101.939 151.72 102.305 151.336 102.581 150.832C102.869 150.316 103.013 149.716 103.013 149.032ZM109.83 145.522C110.13 145.018 110.526 144.628 111.018 144.352C111.522 144.064 112.116 143.92 112.8 143.92V146.044H112.278C111.474 146.044 110.862 146.248 110.442 146.656C110.034 147.064 109.83 147.772 109.83 148.78V154H107.778V144.082H109.83V145.522ZM123.776 148.798C123.776 149.17 123.752 149.506 123.704 149.806H116.126C116.186 150.598 116.48 151.234 117.008 151.714C117.536 152.194 118.184 152.434 118.952 152.434C120.056 152.434 120.836 151.972 121.292 151.048H123.506C123.206 151.96 122.66 152.71 121.868 153.298C121.088 153.874 120.116 154.162 118.952 154.162C118.004 154.162 117.152 153.952 116.396 153.532C115.652 153.1 115.064 152.5 114.632 151.732C114.212 150.952 114.002 150.052 114.002 149.032C114.002 148.012 114.206 147.118 114.614 146.35C115.034 145.57 115.616 144.97 116.36 144.55C117.116 144.13 117.98 143.92 118.952 143.92C119.888 143.92 120.722 144.124 121.454 144.532C122.186 144.94 122.756 145.516 123.164 146.26C123.572 146.992 123.776 147.838 123.776 148.798ZM121.634 148.15C121.622 147.394 121.352 146.788 120.824 146.332C120.296 145.876 119.642 145.648 118.862 145.648C118.154 145.648 117.548 145.876 117.044 146.332C116.54 146.776 116.24 147.382 116.144 148.15H121.634ZM125.111 148.996C125.111 148 125.315 147.118 125.723 146.35C126.143 145.582 126.707 144.988 127.415 144.568C128.135 144.136 128.927 143.92 129.791 143.92C130.571 143.92 131.249 144.076 131.825 144.388C132.413 144.688 132.881 145.066 133.229 145.522V144.082H135.299V154H133.229V152.524C132.881 152.992 132.407 153.382 131.807 153.694C131.207 154.006 130.523 154.162 129.755 154.162C128.903 154.162 128.123 153.946 127.415 153.514C126.707 153.07 126.143 152.458 125.723 151.678C125.315 150.886 125.111 149.992 125.111 148.996ZM133.229 149.032C133.229 148.348 133.085 147.754 132.797 147.25C132.521 146.746 132.155 146.362 131.699 146.098C131.243 145.834 130.751 145.702 130.223 145.702C129.695 145.702 129.203 145.834 128.747 146.098C128.291 146.35 127.919 146.728 127.631 147.232C127.355 147.724 127.217 148.312 127.217 148.996C127.217 149.68 127.355 150.28 127.631 150.796C127.919 151.312 128.291 151.708 128.747 151.984C129.215 152.248 129.707 152.38 130.223 152.38C130.751 152.38 131.243 152.248 131.699 151.984C132.155 151.72 132.521 151.336 132.797 150.832C133.085 150.316 133.229 149.716 133.229 149.032ZM150.001 143.92C150.781 143.92 151.477 144.082 152.089 144.406C152.713 144.73 153.199 145.21 153.547 145.846C153.907 146.482 154.087 147.25 154.087 148.15V154H152.053V148.456C152.053 147.568 151.831 146.89 151.387 146.422C150.943 145.942 150.337 145.702 149.569 145.702C148.801 145.702 148.189 145.942 147.733 146.422C147.289 146.89 147.067 147.568 147.067 148.456V154H145.033V148.456C145.033 147.568 144.811 146.89 144.367 146.422C143.923 145.942 143.317 145.702 142.549 145.702C141.781 145.702 141.169 145.942 140.713 146.422C140.269 146.89 140.047 147.568 140.047 148.456V154H137.995V144.082H140.047V145.216C140.383 144.808 140.809 144.49 141.325 144.262C141.841 144.034 142.393 143.92 142.981 143.92C143.773 143.92 144.481 144.088 145.105 144.424C145.729 144.76 146.209 145.246 146.545 145.882C146.845 145.282 147.313 144.808 147.949 144.46C148.585 144.1 149.269 143.92 150.001 143.92ZM163.425 145.54C163.773 145.084 164.247 144.7 164.847 144.388C165.447 144.076 166.125 143.92 166.881 143.92C167.745 143.92 168.531 144.136 169.239 144.568C169.959 144.988 170.523 145.582 170.931 146.35C171.339 147.118 171.543 148 171.543 148.996C171.543 149.992 171.339 150.886 170.931 151.678C170.523 152.458 169.959 153.07 169.239 153.514C168.531 153.946 167.745 154.162 166.881 154.162C166.125 154.162 165.453 154.012 164.865 153.712C164.277 153.4 163.797 153.016 163.425 152.56V158.716H161.373V144.082H163.425V145.54ZM169.455 148.996C169.455 148.312 169.311 147.724 169.023 147.232C168.747 146.728 168.375 146.35 167.907 146.098C167.451 145.834 166.959 145.702 166.431 145.702C165.915 145.702 165.423 145.834 164.955 146.098C164.499 146.362 164.127 146.746 163.839 147.25C163.563 147.754 163.425 148.348 163.425 149.032C163.425 149.716 163.563 150.316 163.839 150.832C164.127 151.336 164.499 151.72 164.955 151.984C165.423 152.248 165.915 152.38 166.431 152.38C166.959 152.38 167.451 152.248 167.907 151.984C168.375 151.708 168.747 151.312 169.023 150.796C169.311 150.28 169.455 149.68 169.455 148.996ZM175.625 140.68V154H173.573V140.68H175.625ZM177.635 148.996C177.635 148 177.839 147.118 178.247 146.35C178.667 145.582 179.231 144.988 179.939 144.568C180.659 144.136 181.451 143.92 182.315 143.92C183.095 143.92 183.773 144.076 184.349 144.388C184.937 144.688 185.405 145.066 185.753 145.522V144.082H187.823V154H185.753V152.524C185.405 152.992 184.931 153.382 184.331 153.694C183.731 154.006 183.047 154.162 182.279 154.162C181.427 154.162 180.647 153.946 179.939 153.514C179.231 153.07 178.667 152.458 178.247 151.678C177.839 150.886 177.635 149.992 177.635 148.996ZM185.753 149.032C185.753 148.348 185.609 147.754 185.321 147.25C185.045 146.746 184.679 146.362 184.223 146.098C183.767 145.834 183.275 145.702 182.747 145.702C182.219 145.702 181.727 145.834 181.271 146.098C180.815 146.35 180.443 146.728 180.155 147.232C179.879 147.724 179.741 148.312 179.741 148.996C179.741 149.68 179.879 150.28 180.155 150.796C180.443 151.312 180.815 151.708 181.271 151.984C181.739 152.248 182.231 152.38 182.747 152.38C183.275 152.38 183.767 152.248 184.223 151.984C184.679 151.72 185.045 151.336 185.321 150.832C185.609 150.316 185.753 149.716 185.753 149.032ZM195.522 143.92C196.302 143.92 196.998 144.082 197.61 144.406C198.234 144.73 198.72 145.21 199.068 145.846C199.416 146.482 199.59 147.25 199.59 148.15V154H197.556V148.456C197.556 147.568 197.334 146.89 196.89 146.422C196.446 145.942 195.84 145.702 195.072 145.702C194.304 145.702 193.692 145.942 193.236 146.422C192.792 146.89 192.57 147.568 192.57 148.456V154H190.518V144.082H192.57V145.216C192.906 144.808 193.332 144.49 193.848 144.262C194.376 144.034 194.934 143.92 195.522 143.92ZM204.601 145.756V151.246C204.601 151.618 204.685 151.888 204.853 152.056C205.033 152.212 205.333 152.29 205.753 152.29H207.013V154H205.393C204.469 154 203.761 153.784 203.269 153.352C202.777 152.92 202.531 152.218 202.531 151.246V145.756H201.361V144.082H202.531V141.616H204.601V144.082H207.013V145.756H204.601Z" fill="#1E1E1E" fill-opacity="0.5"/>
<path d="M69.1648 216.917H72.4982V210.242H75.5015L75.8315 206.925H72.4982V205.25C72.4982 205.029 72.5859 204.817 72.7422 204.661C72.8985 204.505 73.1105 204.417 73.3315 204.417H75.8315V201.083H73.3315C72.2264 201.083 71.1666 201.522 70.3852 202.304C69.6038 203.085 69.1648 204.145 69.1648 205.25V206.925H67.4982L67.1682 210.242H69.1648V216.917Z" fill="#1E1E1E" fill-opacity="0.75"/>
<circle cx="71.5" cy="209" r="23.5" stroke="#1E1E1E" stroke-opacity="0.5"/>
<circle cx="143.5" cy="209" r="23.5" stroke="#1E1E1E" stroke-opacity="0.5"/>
<path d="M143.5 200.667C145.764 200.667 146.047 200.675 146.935 200.717C147.822 200.758 148.427 200.897 148.958 201.104C149.508 201.316 149.972 201.602 150.435 202.065C150.859 202.481 151.186 202.985 151.396 203.542C151.602 204.072 151.742 204.677 151.783 205.565C151.822 206.453 151.833 206.736 151.833 209C151.833 211.264 151.825 211.547 151.783 212.435C151.742 213.322 151.602 213.927 151.396 214.458C151.187 215.015 150.859 215.519 150.435 215.935C150.018 216.358 149.514 216.686 148.958 216.896C148.427 217.102 147.822 217.242 146.935 217.283C146.047 217.322 145.764 217.333 143.5 217.333C141.236 217.333 140.953 217.325 140.065 217.283C139.177 217.242 138.573 217.102 138.042 216.896C137.485 216.687 136.981 216.359 136.565 215.935C136.141 215.518 135.813 215.014 135.604 214.458C135.397 213.927 135.258 213.322 135.217 212.435C135.177 211.547 135.167 211.264 135.167 209C135.167 206.736 135.175 206.453 135.217 205.565C135.258 204.677 135.397 204.073 135.604 203.542C135.813 202.985 136.141 202.481 136.565 202.065C136.981 201.641 137.485 201.313 138.042 201.104C138.573 200.897 139.177 200.758 140.065 200.717C140.953 200.677 141.236 200.667 143.5 200.667ZM143.5 204.833C142.395 204.833 141.335 205.272 140.554 206.054C139.772 206.835 139.333 207.895 139.333 209C139.333 210.105 139.772 211.165 140.554 211.946C141.335 212.728 142.395 213.167 143.5 213.167C144.605 213.167 145.665 212.728 146.446 211.946C147.228 211.165 147.667 210.105 147.667 209C147.667 207.895 147.228 206.835 146.446 206.054C145.665 205.272 144.605 204.833 143.5 204.833ZM148.917 204.625C148.917 204.349 148.807 204.084 148.611 203.888C148.416 203.693 148.151 203.583 147.875 203.583C147.599 203.583 147.334 203.693 147.138 203.888C146.943 204.084 146.833 204.349 146.833 204.625C146.833 204.901 146.943 205.166 147.138 205.361C147.334 205.557 147.599 205.667 147.875 205.667C148.151 205.667 148.416 205.557 148.611 205.361C148.807 205.166 148.917 204.901 148.917 204.625ZM143.5 206.5C144.163 206.5 144.799 206.763 145.268 207.232C145.736 207.701 146 208.337 146 209C146 209.663 145.736 210.299 145.268 210.768C144.799 211.236 144.163 211.5 143.5 211.5C142.837 211.5 142.201 211.236 141.732 210.768C141.263 210.299 141 209.663 141 209C141 208.337 141.263 207.701 141.732 207.232C142.201 206.763 142.837 206.5 143.5 206.5Z" fill="#1E1E1E" fill-opacity="0.75"/>
<circle cx="215.5" cy="209" r="23.5" stroke="#1E1E1E" stroke-opacity="0.5"/>
<path d="M211.783 217.251C219.33 217.251 223.459 210.997 223.459 205.583C223.459 205.408 223.459 205.231 223.451 205.056C224.255 204.474 224.949 203.754 225.5 202.928C224.749 203.259 223.953 203.478 223.139 203.576C223.997 203.063 224.64 202.256 224.948 201.305C224.141 201.782 223.259 202.118 222.339 202.296C221.72 201.637 220.902 201.201 220.01 201.054C219.118 200.908 218.203 201.06 217.407 201.486C216.61 201.912 215.976 202.589 215.603 203.412C215.23 204.235 215.139 205.158 215.344 206.038C213.712 205.957 212.116 205.533 210.659 204.794C209.202 204.056 207.916 203.019 206.885 201.752C206.362 202.656 206.202 203.725 206.438 204.742C206.675 205.76 207.289 206.649 208.157 207.23C207.507 207.208 206.871 207.033 206.3 206.72V206.776C206.301 207.723 206.629 208.64 207.229 209.373C207.828 210.106 208.662 210.609 209.59 210.798C209.238 210.895 208.874 210.944 208.509 210.942C208.251 210.943 207.994 210.919 207.741 210.871C208.003 211.686 208.514 212.399 209.202 212.909C209.889 213.419 210.719 213.702 211.575 213.717C210.121 214.859 208.324 215.479 206.475 215.476C206.149 215.477 205.824 215.458 205.5 215.42C207.377 216.616 209.557 217.252 211.783 217.251Z" fill="#1E1E1E" fill-opacity="0.75"/>
<path d="M958.194 42.364V55H955.116V42.364H958.194ZM966.545 44.848C967.721 44.848 968.657 45.232 969.353 46C970.061 46.756 970.415 47.8 970.415 49.132V55H967.355V49.546C967.355 48.874 967.181 48.352 966.833 47.98C966.485 47.608 966.017 47.422 965.429 47.422C964.841 47.422 964.373 47.608 964.025 47.98C963.677 48.352 963.503 48.874 963.503 49.546V55H960.425V44.956H963.503V46.288C963.815 45.844 964.235 45.496 964.763 45.244C965.291 44.98 965.885 44.848 966.545 44.848ZM977.594 47.512H975.938V55H972.86V47.512H971.744V44.956H972.86V44.668C972.86 43.432 973.214 42.496 973.922 41.86C974.63 41.212 975.668 40.888 977.036 40.888C977.264 40.888 977.432 40.894 977.54 40.906V43.516C976.952 43.48 976.538 43.564 976.298 43.768C976.058 43.972 975.938 44.338 975.938 44.866V44.956H977.594V47.512ZM983.612 55.144C982.628 55.144 981.74 54.934 980.948 54.514C980.168 54.094 979.55 53.494 979.094 52.714C978.65 51.934 978.428 51.022 978.428 49.978C978.428 48.946 978.656 48.04 979.112 47.26C979.568 46.468 980.192 45.862 980.984 45.442C981.776 45.022 982.664 44.812 983.648 44.812C984.632 44.812 985.52 45.022 986.312 45.442C987.104 45.862 987.728 46.468 988.184 47.26C988.64 48.04 988.868 48.946 988.868 49.978C988.868 51.01 988.634 51.922 988.166 52.714C987.71 53.494 987.08 54.094 986.276 54.514C985.484 54.934 984.596 55.144 983.612 55.144ZM983.612 52.48C984.2 52.48 984.698 52.264 985.106 51.832C985.526 51.4 985.736 50.782 985.736 49.978C985.736 49.174 985.532 48.556 985.124 48.124C984.728 47.692 984.236 47.476 983.648 47.476C983.048 47.476 982.55 47.692 982.154 48.124C981.758 48.544 981.56 49.162 981.56 49.978C981.56 50.782 981.752 51.4 982.136 51.832C982.532 52.264 983.024 52.48 983.612 52.48ZM993.579 46.63C993.939 46.078 994.389 45.646 994.929 45.334C995.469 45.01 996.069 44.848 996.729 44.848V48.106H995.883C995.115 48.106 994.539 48.274 994.155 48.61C993.771 48.934 993.579 49.51 993.579 50.338V55H990.501V44.956H993.579V46.63ZM1011.02 44.848C1012.26 44.848 1013.25 45.226 1013.99 45.982C1014.73 46.738 1015.1 47.788 1015.1 49.132V55H1012.04V49.546C1012.04 48.898 1011.87 48.4 1011.52 48.052C1011.18 47.692 1010.72 47.512 1010.12 47.512C1009.52 47.512 1009.04 47.692 1008.69 48.052C1008.36 48.4 1008.19 48.898 1008.19 49.546V55H1005.13V49.546C1005.13 48.898 1004.96 48.4 1004.61 48.052C1004.27 47.692 1003.8 47.512 1003.2 47.512C1002.6 47.512 1002.13 47.692 1001.78 48.052C1001.45 48.4 1001.28 48.898 1001.28 49.546V55H998.2V44.956H1001.28V46.216C1001.59 45.796 1002 45.466 1002.5 45.226C1003.01 44.974 1003.58 44.848 1004.21 44.848C1004.97 44.848 1005.64 45.01 1006.23 45.334C1006.83 45.658 1007.3 46.12 1007.63 46.72C1007.98 46.168 1008.45 45.718 1009.05 45.37C1009.65 45.022 1010.31 44.848 1011.02 44.848ZM1016.64 49.96C1016.64 48.928 1016.83 48.022 1017.22 47.242C1017.61 46.462 1018.15 45.862 1018.82 45.442C1019.49 45.022 1020.24 44.812 1021.07 44.812C1021.78 44.812 1022.4 44.956 1022.92 45.244C1023.46 45.532 1023.88 45.91 1024.17 46.378V44.956H1027.24V55H1024.17V53.578C1023.87 54.046 1023.45 54.424 1022.91 54.712C1022.38 55 1021.76 55.144 1021.05 55.144C1020.24 55.144 1019.49 54.934 1018.82 54.514C1018.15 54.082 1017.61 53.476 1017.22 52.696C1016.83 51.904 1016.64 50.992 1016.64 49.96ZM1024.17 49.978C1024.17 49.21 1023.95 48.604 1023.52 48.16C1023.1 47.716 1022.58 47.494 1021.97 47.494C1021.36 47.494 1020.84 47.716 1020.4 48.16C1019.98 48.592 1019.77 49.192 1019.77 49.96C1019.77 50.728 1019.98 51.34 1020.4 51.796C1020.84 52.24 1021.36 52.462 1021.97 52.462C1022.58 52.462 1023.1 52.24 1023.52 51.796C1023.95 51.352 1024.17 50.746 1024.17 49.978ZM1035.07 52.39V55H1033.5C1032.39 55 1031.52 54.73 1030.89 54.19C1030.27 53.638 1029.96 52.744 1029.96 51.508V47.512H1028.73V44.956H1029.96V42.508H1033.04V44.956H1035.05V47.512H1033.04V51.544C1033.04 51.844 1033.11 52.06 1033.25 52.192C1033.4 52.324 1033.64 52.39 1033.97 52.39H1035.07ZM1038.33 43.912C1037.79 43.912 1037.35 43.756 1037 43.444C1036.66 43.12 1036.5 42.724 1036.5 42.256C1036.5 41.776 1036.66 41.38 1037 41.068C1037.35 40.744 1037.79 40.582 1038.33 40.582C1038.86 40.582 1039.29 40.744 1039.63 41.068C1039.98 41.38 1040.15 41.776 1040.15 42.256C1040.15 42.724 1039.98 43.12 1039.63 43.444C1039.29 43.756 1038.86 43.912 1038.33 43.912ZM1039.86 44.956V55H1036.78V44.956H1039.86ZM1046.66 55.144C1045.68 55.144 1044.79 54.934 1044 54.514C1043.22 54.094 1042.6 53.494 1042.15 52.714C1041.7 51.934 1041.48 51.022 1041.48 49.978C1041.48 48.946 1041.71 48.04 1042.16 47.26C1042.62 46.468 1043.24 45.862 1044.04 45.442C1044.83 45.022 1045.72 44.812 1046.7 44.812C1047.68 44.812 1048.57 45.022 1049.36 45.442C1050.16 45.862 1050.78 46.468 1051.24 47.26C1051.69 48.04 1051.92 48.946 1051.92 49.978C1051.92 51.01 1051.69 51.922 1051.22 52.714C1050.76 53.494 1050.13 54.094 1049.33 54.514C1048.54 54.934 1047.65 55.144 1046.66 55.144ZM1046.66 52.48C1047.25 52.48 1047.75 52.264 1048.16 51.832C1048.58 51.4 1048.79 50.782 1048.79 49.978C1048.79 49.174 1048.58 48.556 1048.18 48.124C1047.78 47.692 1047.29 47.476 1046.7 47.476C1046.1 47.476 1045.6 47.692 1045.21 48.124C1044.81 48.544 1044.61 49.162 1044.61 49.978C1044.61 50.782 1044.8 51.4 1045.19 51.832C1045.58 52.264 1046.08 52.48 1046.66 52.48ZM1059.67 44.848C1060.85 44.848 1061.79 45.232 1062.48 46C1063.19 46.756 1063.54 47.8 1063.54 49.132V55H1060.48V49.546C1060.48 48.874 1060.31 48.352 1059.96 47.98C1059.61 47.608 1059.15 47.422 1058.56 47.422C1057.97 47.422 1057.5 47.608 1057.15 47.98C1056.81 48.352 1056.63 48.874 1056.63 49.546V55H1053.55V44.956H1056.63V46.288C1056.94 45.844 1057.36 45.496 1057.89 45.244C1058.42 44.98 1059.01 44.848 1059.67 44.848Z" fill="#1E1E1E" fill-opacity="0.5"/>
<path d="M962.802 103.21H957.33L956.322 106H954.594L959.13 93.526H961.02L965.538 106H963.81L962.802 103.21ZM962.334 101.878L960.066 95.542L957.798 101.878H962.334ZM969.153 97.972C969.489 97.384 969.981 96.904 970.629 96.532C971.277 96.16 972.015 95.974 972.843 95.974C973.731 95.974 974.529 96.184 975.237 96.604C975.945 97.024 976.503 97.618 976.911 98.386C977.319 99.142 977.523 100.024 977.523 101.032C977.523 102.028 977.319 102.916 976.911 103.696C976.503 104.476 975.939 105.082 975.219 105.514C974.511 105.946 973.719 106.162 972.843 106.162C971.991 106.162 971.241 105.976 970.593 105.604C969.957 105.232 969.477 104.758 969.153 104.182V106H967.515V92.68H969.153V97.972ZM975.849 101.032C975.849 100.288 975.699 99.64 975.399 99.088C975.099 98.536 974.691 98.116 974.175 97.828C973.671 97.54 973.113 97.396 972.501 97.396C971.901 97.396 971.343 97.546 970.827 97.846C970.323 98.134 969.915 98.56 969.603 99.124C969.303 99.676 969.153 100.318 969.153 101.05C969.153 101.794 969.303 102.448 969.603 103.012C969.915 103.564 970.323 103.99 970.827 104.29C971.343 104.578 971.901 104.722 972.501 104.722C973.113 104.722 973.671 104.578 974.175 104.29C974.691 103.99 975.099 103.564 975.399 103.012C975.699 102.448 975.849 101.788 975.849 101.032ZM983.981 106.162C983.057 106.162 982.217 105.952 981.461 105.532C980.717 105.112 980.129 104.518 979.697 103.75C979.277 102.97 979.067 102.07 979.067 101.05C979.067 100.042 979.283 99.154 979.715 98.386C980.159 97.606 980.759 97.012 981.515 96.604C982.271 96.184 983.117 95.974 984.053 95.974C984.989 95.974 985.835 96.184 986.591 96.604C987.347 97.012 987.941 97.6 988.373 98.368C988.817 99.136 989.039 100.03 989.039 101.05C989.039 102.07 988.811 102.97 988.355 103.75C987.911 104.518 987.305 105.112 986.537 105.532C985.769 105.952 984.917 106.162 983.981 106.162ZM983.981 104.722C984.569 104.722 985.121 104.584 985.637 104.308C986.153 104.032 986.567 103.618 986.879 103.066C987.203 102.514 987.365 101.842 987.365 101.05C987.365 100.258 987.209 99.586 986.897 99.034C986.585 98.482 986.177 98.074 985.673 97.81C985.169 97.534 984.623 97.396 984.035 97.396C983.435 97.396 982.883 97.534 982.379 97.81C981.887 98.074 981.491 98.482 981.191 99.034C980.891 99.586 980.741 100.258 980.741 101.05C980.741 101.854 980.885 102.532 981.173 103.084C981.473 103.636 981.869 104.05 982.361 104.326C982.853 104.59 983.393 104.722 983.981 104.722ZM999.941 96.136V106H998.303V104.542C997.991 105.046 997.553 105.442 996.989 105.73C996.437 106.006 995.825 106.144 995.153 106.144C994.385 106.144 993.695 105.988 993.083 105.676C992.471 105.352 991.985 104.872 991.625 104.236C991.277 103.6 991.103 102.826 991.103 101.914V96.136H992.723V101.698C992.723 102.67 992.969 103.42 993.461 103.948C993.953 104.464 994.625 104.722 995.477 104.722C996.353 104.722 997.043 104.452 997.547 103.912C998.051 103.372 998.303 102.586 998.303 101.554V96.136H999.941ZM1004.7 97.486V103.3C1004.7 103.78 1004.81 104.122 1005.01 104.326C1005.21 104.518 1005.57 104.614 1006.07 104.614H1007.28V106H1005.8C1004.89 106 1004.21 105.79 1003.75 105.37C1003.29 104.95 1003.07 104.26 1003.07 103.3V97.486H1001.79V96.136H1003.07V93.652H1004.7V96.136H1007.28V97.486H1004.7Z" fill="#1E1E1E" fill-opacity="0.5"/>
<path d="M963.774 148.126C963.774 149.17 963.414 150.04 962.694 150.736C961.986 151.42 960.9 151.762 959.436 151.762H957.024V157H955.386V144.454H959.436C960.852 144.454 961.926 144.796 962.658 145.48C963.402 146.164 963.774 147.046 963.774 148.126ZM959.436 150.412C960.348 150.412 961.02 150.214 961.452 149.818C961.884 149.422 962.1 148.858 962.1 148.126C962.1 146.578 961.212 145.804 959.436 145.804H957.024V150.412H959.436ZM967.448 148.738C967.736 148.174 968.144 147.736 968.672 147.424C969.212 147.112 969.866 146.956 970.634 146.956V148.648H970.202C968.366 148.648 967.448 149.644 967.448 151.636V157H965.81V147.136H967.448V148.738ZM976.827 157.162C975.903 157.162 975.063 156.952 974.307 156.532C973.563 156.112 972.975 155.518 972.543 154.75C972.123 153.97 971.913 153.07 971.913 152.05C971.913 151.042 972.129 150.154 972.561 149.386C973.005 148.606 973.605 148.012 974.361 147.604C975.117 147.184 975.963 146.974 976.899 146.974C977.835 146.974 978.681 147.184 979.437 147.604C980.193 148.012 980.787 148.6 981.219 149.368C981.663 150.136 981.885 151.03 981.885 152.05C981.885 153.07 981.657 153.97 981.201 154.75C980.757 155.518 980.151 156.112 979.383 156.532C978.615 156.952 977.763 157.162 976.827 157.162ZM976.827 155.722C977.415 155.722 977.967 155.584 978.483 155.308C978.999 155.032 979.413 154.618 979.725 154.066C980.049 153.514 980.211 152.842 980.211 152.05C980.211 151.258 980.055 150.586 979.743 150.034C979.431 149.482 979.023 149.074 978.519 148.81C978.015 148.534 977.469 148.396 976.881 148.396C976.281 148.396 975.729 148.534 975.225 148.81C974.733 149.074 974.337 149.482 974.037 150.034C973.737 150.586 973.587 151.258 973.587 152.05C973.587 152.854 973.731 153.532 974.019 154.084C974.319 154.636 974.715 155.05 975.207 155.326C975.699 155.59 976.239 155.722 976.827 155.722ZM983.426 152.032C983.426 151.024 983.63 150.142 984.038 149.386C984.446 148.618 985.004 148.024 985.712 147.604C986.432 147.184 987.236 146.974 988.124 146.974C988.892 146.974 989.606 147.154 990.266 147.514C990.926 147.862 991.43 148.324 991.778 148.9V143.68H993.434V157H991.778V155.146C991.454 155.734 990.974 156.22 990.338 156.604C989.702 156.976 988.958 157.162 988.106 157.162C987.23 157.162 986.432 156.946 985.712 156.514C985.004 156.082 984.446 155.476 984.038 154.696C983.63 153.916 983.426 153.028 983.426 152.032ZM991.778 152.05C991.778 151.306 991.628 150.658 991.328 150.106C991.028 149.554 990.62 149.134 990.104 148.846C989.6 148.546 989.042 148.396 988.43 148.396C987.818 148.396 987.26 148.54 986.756 148.828C986.252 149.116 985.85 149.536 985.55 150.088C985.25 150.64 985.1 151.288 985.1 152.032C985.1 152.788 985.25 153.448 985.55 154.012C985.85 154.564 986.252 154.99 986.756 155.29C987.26 155.578 987.818 155.722 988.43 155.722C989.042 155.722 989.6 155.578 990.104 155.29C990.62 154.99 991.028 154.564 991.328 154.012C991.628 153.448 991.778 152.794 991.778 152.05ZM1004.95 147.136V157H1003.31V155.542C1003 156.046 1002.56 156.442 1002 156.73C1001.45 157.006 1000.83 157.144 1000.16 157.144C999.394 157.144 998.704 156.988 998.092 156.676C997.48 156.352 996.994 155.872 996.634 155.236C996.286 154.6 996.112 153.826 996.112 152.914V147.136H997.732V152.698C997.732 153.67 997.978 154.42 998.47 154.948C998.962 155.464 999.634 155.722 1000.49 155.722C1001.36 155.722 1002.05 155.452 1002.56 154.912C1003.06 154.372 1003.31 153.586 1003.31 152.554V147.136H1004.95ZM1007.1 152.05C1007.1 151.03 1007.31 150.142 1007.72 149.386C1008.12 148.618 1008.69 148.024 1009.41 147.604C1010.14 147.184 1010.97 146.974 1011.91 146.974C1013.12 146.974 1014.12 147.268 1014.9 147.856C1015.69 148.444 1016.21 149.26 1016.46 150.304H1014.7C1014.53 149.704 1014.2 149.23 1013.71 148.882C1013.23 148.534 1012.63 148.36 1011.91 148.36C1010.97 148.36 1010.22 148.684 1009.64 149.332C1009.07 149.968 1008.78 150.874 1008.78 152.05C1008.78 153.238 1009.07 154.156 1009.64 154.804C1010.22 155.452 1010.97 155.776 1011.91 155.776C1012.63 155.776 1013.23 155.608 1013.71 155.272C1014.19 154.936 1014.52 154.456 1014.7 153.832H1016.46C1016.2 154.84 1015.67 155.65 1014.88 156.262C1014.09 156.862 1013.1 157.162 1011.91 157.162C1010.97 157.162 1010.14 156.952 1009.41 156.532C1008.69 156.112 1008.12 155.518 1007.72 154.75C1007.31 153.982 1007.1 153.082 1007.1 152.05ZM1020.65 148.486V154.3C1020.65 154.78 1020.75 155.122 1020.95 155.326C1021.16 155.518 1021.51 155.614 1022.02 155.614H1023.22V157H1021.75C1020.83 157 1020.15 156.79 1019.69 156.37C1019.24 155.95 1019.01 155.26 1019.01 154.3V148.486H1017.73V147.136H1019.01V144.652H1020.65V147.136H1023.22V148.486H1020.65Z" fill="#1E1E1E" fill-opacity="0.5"/>
<path d="M961.668 201.538C962.124 201.61 962.538 201.796 962.91 202.096C963.294 202.396 963.594 202.768 963.81 203.212C964.038 203.656 964.152 204.13 964.152 204.634C964.152 205.27 963.99 205.846 963.666 206.362C963.342 206.866 962.868 207.268 962.244 207.568C961.632 207.856 960.906 208 960.066 208H955.386V195.454H959.886C960.738 195.454 961.464 195.598 962.064 195.886C962.664 196.162 963.114 196.54 963.414 197.02C963.714 197.5 963.864 198.04 963.864 198.64C963.864 199.384 963.66 200.002 963.252 200.494C962.856 200.974 962.328 201.322 961.668 201.538ZM957.024 200.872H959.778C960.546 200.872 961.14 200.692 961.56 200.332C961.98 199.972 962.19 199.474 962.19 198.838C962.19 198.202 961.98 197.704 961.56 197.344C961.14 196.984 960.534 196.804 959.742 196.804H957.024V200.872ZM959.922 206.65C960.738 206.65 961.374 206.458 961.83 206.074C962.286 205.69 962.514 205.156 962.514 204.472C962.514 203.776 962.274 203.23 961.794 202.834C961.314 202.426 960.672 202.222 959.868 202.222H957.024V206.65H959.922ZM968.063 194.68V208H966.425V194.68H968.063ZM975.157 208.162C974.233 208.162 973.393 207.952 972.637 207.532C971.893 207.112 971.305 206.518 970.873 205.75C970.453 204.97 970.243 204.07 970.243 203.05C970.243 202.042 970.459 201.154 970.891 200.386C971.335 199.606 971.935 199.012 972.691 198.604C973.447 198.184 974.293 197.974 975.229 197.974C976.165 197.974 977.011 198.184 977.767 198.604C978.523 199.012 979.117 199.6 979.549 200.368C979.993 201.136 980.215 202.03 980.215 203.05C980.215 204.07 979.987 204.97 979.531 205.75C979.087 206.518 978.481 207.112 977.713 207.532C976.945 207.952 976.093 208.162 975.157 208.162ZM975.157 206.722C975.745 206.722 976.297 206.584 976.813 206.308C977.329 206.032 977.743 205.618 978.055 205.066C978.379 204.514 978.541 203.842 978.541 203.05C978.541 202.258 978.385 201.586 978.073 201.034C977.761 200.482 977.353 200.074 976.849 199.81C976.345 199.534 975.799 199.396 975.211 199.396C974.611 199.396 974.059 199.534 973.555 199.81C973.063 200.074 972.667 200.482 972.367 201.034C972.067 201.586 971.917 202.258 971.917 203.05C971.917 203.854 972.061 204.532 972.349 205.084C972.649 205.636 973.045 206.05 973.537 206.326C974.029 206.59 974.569 206.722 975.157 206.722ZM986.436 197.974C987.288 197.974 988.032 198.16 988.668 198.532C989.316 198.904 989.796 199.372 990.108 199.936V198.136H991.764V208.216C991.764 209.116 991.572 209.914 991.188 210.61C990.804 211.318 990.252 211.87 989.532 212.266C988.824 212.662 987.996 212.86 987.048 212.86C985.752 212.86 984.672 212.554 983.808 211.942C982.944 211.33 982.434 210.496 982.278 209.44H983.898C984.078 210.04 984.45 210.52 985.014 210.88C985.578 211.252 986.256 211.438 987.048 211.438C987.948 211.438 988.68 211.156 989.244 210.592C989.82 210.028 990.108 209.236 990.108 208.216V206.146C989.784 206.722 989.304 207.202 988.668 207.586C988.032 207.97 987.288 208.162 986.436 208.162C985.56 208.162 984.762 207.946 984.042 207.514C983.334 207.082 982.776 206.476 982.368 205.696C981.96 204.916 981.756 204.028 981.756 203.032C981.756 202.024 981.96 201.142 982.368 200.386C982.776 199.618 983.334 199.024 984.042 198.604C984.762 198.184 985.56 197.974 986.436 197.974ZM990.108 203.05C990.108 202.306 989.958 201.658 989.658 201.106C989.358 200.554 988.95 200.134 988.434 199.846C987.93 199.546 987.372 199.396 986.76 199.396C986.148 199.396 985.59 199.54 985.086 199.828C984.582 200.116 984.18 200.536 983.88 201.088C983.58 201.64 983.43 202.288 983.43 203.032C983.43 203.788 983.58 204.448 983.88 205.012C984.18 205.564 984.582 205.99 985.086 206.29C985.59 206.578 986.148 206.722 986.76 206.722C987.372 206.722 987.93 206.578 988.434 206.29C988.95 205.99 989.358 205.564 989.658 205.012C989.958 204.448 990.108 203.794 990.108 203.05Z" fill="#1E1E1E" fill-opacity="0.5"/>
<path d="M1113.59 48.664C1113.59 47.416 1113.86 46.306 1114.4 45.334C1114.94 44.35 1115.69 43.588 1116.65 43.048C1117.63 42.496 1118.72 42.22 1119.95 42.22C1121.45 42.22 1122.73 42.616 1123.8 43.408C1124.87 44.2 1125.58 45.28 1125.94 46.648H1122.56C1122.31 46.12 1121.95 45.718 1121.48 45.442C1121.02 45.166 1120.5 45.028 1119.91 45.028C1118.96 45.028 1118.2 45.358 1117.61 46.018C1117.02 46.678 1116.73 47.56 1116.73 48.664C1116.73 49.768 1117.02 50.65 1117.61 51.31C1118.2 51.97 1118.96 52.3 1119.91 52.3C1120.5 52.3 1121.02 52.162 1121.48 51.886C1121.95 51.61 1122.31 51.208 1122.56 50.68H1125.94C1125.58 52.048 1124.87 53.128 1123.8 53.92C1122.73 54.7 1121.45 55.09 1119.95 55.09C1118.72 55.09 1117.63 54.82 1116.65 54.28C1115.69 53.728 1114.94 52.966 1114.4 51.994C1113.86 51.022 1113.59 49.912 1113.59 48.664ZM1132.4 55.144C1131.41 55.144 1130.53 54.934 1129.73 54.514C1128.95 54.094 1128.34 53.494 1127.88 52.714C1127.44 51.934 1127.21 51.022 1127.21 49.978C1127.21 48.946 1127.44 48.04 1127.9 47.26C1128.35 46.468 1128.98 45.862 1129.77 45.442C1130.56 45.022 1131.45 44.812 1132.43 44.812C1133.42 44.812 1134.31 45.022 1135.1 45.442C1135.89 45.862 1136.51 46.468 1136.97 47.26C1137.43 48.04 1137.65 48.946 1137.65 49.978C1137.65 51.01 1137.42 51.922 1136.95 52.714C1136.5 53.494 1135.87 54.094 1135.06 54.514C1134.27 54.934 1133.38 55.144 1132.4 55.144ZM1132.4 52.48C1132.99 52.48 1133.48 52.264 1133.89 51.832C1134.31 51.4 1134.52 50.782 1134.52 49.978C1134.52 49.174 1134.32 48.556 1133.91 48.124C1133.51 47.692 1133.02 47.476 1132.43 47.476C1131.83 47.476 1131.34 47.692 1130.94 48.124C1130.54 48.544 1130.35 49.162 1130.35 49.978C1130.35 50.782 1130.54 51.4 1130.92 51.832C1131.32 52.264 1131.81 52.48 1132.4 52.48ZM1152.1 44.848C1153.35 44.848 1154.34 45.226 1155.07 45.982C1155.82 46.738 1156.19 47.788 1156.19 49.132V55H1153.13V49.546C1153.13 48.898 1152.96 48.4 1152.61 48.052C1152.27 47.692 1151.8 47.512 1151.2 47.512C1150.6 47.512 1150.13 47.692 1149.78 48.052C1149.45 48.4 1149.28 48.898 1149.28 49.546V55H1146.22V49.546C1146.22 48.898 1146.04 48.4 1145.7 48.052C1145.36 47.692 1144.89 47.512 1144.29 47.512C1143.69 47.512 1143.22 47.692 1142.87 48.052C1142.53 48.4 1142.37 48.898 1142.37 49.546V55H1139.29V44.956H1142.37V46.216C1142.68 45.796 1143.09 45.466 1143.59 45.226C1144.09 44.974 1144.66 44.848 1145.3 44.848C1146.06 44.848 1146.73 45.01 1147.32 45.334C1147.92 45.658 1148.38 46.12 1148.72 46.72C1149.07 46.168 1149.54 45.718 1150.14 45.37C1150.74 45.022 1151.4 44.848 1152.1 44.848ZM1161.42 46.378C1161.72 45.91 1162.13 45.532 1162.66 45.244C1163.19 44.956 1163.81 44.812 1164.52 44.812C1165.34 44.812 1166.09 45.022 1166.77 45.442C1167.44 45.862 1167.97 46.462 1168.35 47.242C1168.75 48.022 1168.94 48.928 1168.94 49.96C1168.94 50.992 1168.75 51.904 1168.35 52.696C1167.97 53.476 1167.44 54.082 1166.77 54.514C1166.09 54.934 1165.34 55.144 1164.52 55.144C1163.82 55.144 1163.2 55 1162.66 54.712C1162.13 54.424 1161.72 54.052 1161.42 53.596V59.788H1158.34V44.956H1161.42V46.378ZM1165.81 49.96C1165.81 49.192 1165.6 48.592 1165.16 48.16C1164.74 47.716 1164.22 47.494 1163.6 47.494C1162.99 47.494 1162.46 47.716 1162.03 48.16C1161.61 48.604 1161.4 49.21 1161.4 49.978C1161.4 50.746 1161.61 51.352 1162.03 51.796C1162.46 52.24 1162.99 52.462 1163.6 52.462C1164.21 52.462 1164.73 52.24 1165.16 51.796C1165.6 51.34 1165.81 50.728 1165.81 49.96ZM1169.95 49.96C1169.95 48.928 1170.14 48.022 1170.52 47.242C1170.92 46.462 1171.45 45.862 1172.13 45.442C1172.8 45.022 1173.55 44.812 1174.38 44.812C1175.08 44.812 1175.7 44.956 1176.23 45.244C1176.77 45.532 1177.18 45.91 1177.47 46.378V44.956H1180.55V55H1177.47V53.578C1177.17 54.046 1176.75 54.424 1176.21 54.712C1175.68 55 1175.07 55.144 1174.36 55.144C1173.54 55.144 1172.8 54.934 1172.13 54.514C1171.45 54.082 1170.92 53.476 1170.52 52.696C1170.14 51.904 1169.95 50.992 1169.95 49.96ZM1177.47 49.978C1177.47 49.21 1177.26 48.604 1176.82 48.16C1176.4 47.716 1175.89 47.494 1175.28 47.494C1174.66 47.494 1174.14 47.716 1173.71 48.16C1173.29 48.592 1173.08 49.192 1173.08 49.96C1173.08 50.728 1173.29 51.34 1173.71 51.796C1174.14 52.24 1174.66 52.462 1175.28 52.462C1175.89 52.462 1176.4 52.24 1176.82 51.796C1177.26 51.352 1177.47 50.746 1177.47 49.978ZM1188.9 44.848C1190.07 44.848 1191.01 45.232 1191.7 46C1192.41 46.756 1192.77 47.8 1192.77 49.132V55H1189.71V49.546C1189.71 48.874 1189.53 48.352 1189.18 47.98C1188.84 47.608 1188.37 47.422 1187.78 47.422C1187.19 47.422 1186.72 47.608 1186.38 47.98C1186.03 48.352 1185.85 48.874 1185.85 49.546V55H1182.78V44.956H1185.85V46.288C1186.17 45.844 1186.59 45.496 1187.11 45.244C1187.64 44.98 1188.24 44.848 1188.9 44.848ZM1205.17 44.956L1198.87 59.77H1195.55L1197.86 54.658L1193.77 44.956H1197.21L1199.53 51.238L1201.84 44.956H1205.17Z" fill="#1E1E1E" fill-opacity="0.5"/>
<path d="M1113.77 99.718C1113.77 98.494 1114.05 97.396 1114.6 96.424C1115.15 95.44 1115.9 94.672 1116.85 94.12C1117.81 93.568 1118.87 93.292 1120.04 93.292C1121.41 93.292 1122.6 93.622 1123.62 94.282C1124.64 94.942 1125.38 95.878 1125.85 97.09H1123.89C1123.54 96.334 1123.04 95.752 1122.38 95.344C1121.73 94.936 1120.95 94.732 1120.04 94.732C1119.16 94.732 1118.38 94.936 1117.68 95.344C1116.98 95.752 1116.44 96.334 1116.04 97.09C1115.65 97.834 1115.45 98.71 1115.45 99.718C1115.45 100.714 1115.65 101.59 1116.04 102.346C1116.44 103.09 1116.98 103.666 1117.68 104.074C1118.38 104.482 1119.16 104.686 1120.04 104.686C1120.95 104.686 1121.73 104.488 1122.38 104.092C1123.04 103.684 1123.54 103.102 1123.89 102.346H1125.85C1125.38 103.546 1124.64 104.476 1123.62 105.136C1122.6 105.784 1121.41 106.108 1120.04 106.108C1118.87 106.108 1117.81 105.838 1116.85 105.298C1115.9 104.746 1115.15 103.984 1114.6 103.012C1114.05 102.04 1113.77 100.942 1113.77 99.718ZM1132.59 106.162C1131.67 106.162 1130.83 105.952 1130.07 105.532C1129.33 105.112 1128.74 104.518 1128.31 103.75C1127.89 102.97 1127.68 102.07 1127.68 101.05C1127.68 100.042 1127.89 99.154 1128.33 98.386C1128.77 97.606 1129.37 97.012 1130.13 96.604C1130.88 96.184 1131.73 95.974 1132.66 95.974C1133.6 95.974 1134.45 96.184 1135.2 96.604C1135.96 97.012 1136.55 97.6 1136.98 98.368C1137.43 99.136 1137.65 100.03 1137.65 101.05C1137.65 102.07 1137.42 102.97 1136.97 103.75C1136.52 104.518 1135.92 105.112 1135.15 105.532C1134.38 105.952 1133.53 106.162 1132.59 106.162ZM1132.59 104.722C1133.18 104.722 1133.73 104.584 1134.25 104.308C1134.76 104.032 1135.18 103.618 1135.49 103.066C1135.81 102.514 1135.98 101.842 1135.98 101.05C1135.98 100.258 1135.82 99.586 1135.51 99.034C1135.2 98.482 1134.79 98.074 1134.28 97.81C1133.78 97.534 1133.23 97.396 1132.65 97.396C1132.05 97.396 1131.49 97.534 1130.99 97.81C1130.5 98.074 1130.1 98.482 1129.8 99.034C1129.5 99.586 1129.35 100.258 1129.35 101.05C1129.35 101.854 1129.5 102.532 1129.78 103.084C1130.08 103.636 1130.48 104.05 1130.97 104.326C1131.46 104.59 1132 104.722 1132.59 104.722ZM1151.67 95.956C1152.43 95.956 1153.12 96.118 1153.72 96.442C1154.32 96.754 1154.79 97.228 1155.14 97.864C1155.49 98.5 1155.66 99.274 1155.66 100.186V106H1154.04V100.42C1154.04 99.436 1153.8 98.686 1153.3 98.17C1152.82 97.642 1152.17 97.378 1151.34 97.378C1150.49 97.378 1149.81 97.654 1149.31 98.206C1148.8 98.746 1148.55 99.532 1148.55 100.564V106H1146.93V100.42C1146.93 99.436 1146.69 98.686 1146.19 98.17C1145.71 97.642 1145.06 97.378 1144.23 97.378C1143.38 97.378 1142.7 97.654 1142.2 98.206C1141.69 98.746 1141.44 99.532 1141.44 100.564V106H1139.8V96.136H1141.44V97.558C1141.77 97.042 1142.2 96.646 1142.74 96.37C1143.29 96.094 1143.9 95.956 1144.56 95.956C1145.38 95.956 1146.12 96.142 1146.75 96.514C1147.39 96.886 1147.86 97.432 1148.17 98.152C1148.45 97.456 1148.91 96.916 1149.54 96.532C1150.18 96.148 1150.89 95.956 1151.67 95.956ZM1170.21 95.956C1170.98 95.956 1171.66 96.118 1172.26 96.442C1172.86 96.754 1173.34 97.228 1173.68 97.864C1174.03 98.5 1174.21 99.274 1174.21 100.186V106H1172.59V100.42C1172.59 99.436 1172.34 98.686 1171.85 98.17C1171.37 97.642 1170.71 97.378 1169.89 97.378C1169.03 97.378 1168.36 97.654 1167.85 98.206C1167.35 98.746 1167.1 99.532 1167.1 100.564V106H1165.48V100.42C1165.48 99.436 1165.23 98.686 1164.74 98.17C1164.26 97.642 1163.6 97.378 1162.78 97.378C1161.92 97.378 1161.25 97.654 1160.74 98.206C1160.24 98.746 1159.99 99.532 1159.99 100.564V106H1158.35V96.136H1159.99V97.558C1160.31 97.042 1160.74 96.646 1161.28 96.37C1161.83 96.094 1162.44 95.956 1163.1 95.956C1163.93 95.956 1164.66 96.142 1165.3 96.514C1165.93 96.886 1166.41 97.432 1166.72 98.152C1166.99 97.456 1167.45 96.916 1168.09 96.532C1168.72 96.148 1169.43 95.956 1170.21 95.956ZM1185.64 96.136V106H1184V104.542C1183.69 105.046 1183.25 105.442 1182.69 105.73C1182.14 106.006 1181.53 106.144 1180.85 106.144C1180.09 106.144 1179.4 105.988 1178.78 105.676C1178.17 105.352 1177.69 104.872 1177.33 104.236C1176.98 103.6 1176.8 102.826 1176.8 101.914V96.136H1178.42V101.698C1178.42 102.67 1178.67 103.42 1179.16 103.948C1179.65 104.464 1180.33 104.722 1181.18 104.722C1182.05 104.722 1182.74 104.452 1183.25 103.912C1183.75 103.372 1184 102.586 1184 101.554V96.136H1185.64ZM1193.21 95.956C1194.41 95.956 1195.39 96.322 1196.13 97.054C1196.87 97.774 1197.25 98.818 1197.25 100.186V106H1195.63V100.42C1195.63 99.436 1195.38 98.686 1194.89 98.17C1194.4 97.642 1193.72 97.378 1192.87 97.378C1192.01 97.378 1191.32 97.648 1190.8 98.188C1190.3 98.728 1190.05 99.514 1190.05 100.546V106H1188.41V96.136H1190.05V97.54C1190.37 97.036 1190.81 96.646 1191.36 96.37C1191.92 96.094 1192.54 95.956 1193.21 95.956ZM1200.77 94.534C1200.46 94.534 1200.19 94.426 1199.98 94.21C1199.76 93.994 1199.65 93.73 1199.65 93.418C1199.65 93.106 1199.76 92.842 1199.98 92.626C1200.19 92.41 1200.46 92.302 1200.77 92.302C1201.07 92.302 1201.32 92.41 1201.52 92.626C1201.74 92.842 1201.85 93.106 1201.85 93.418C1201.85 93.73 1201.74 93.994 1201.52 94.21C1201.32 94.426 1201.07 94.534 1200.77 94.534ZM1201.56 96.136V106H1199.92V96.136H1201.56ZM1206.35 97.486V103.3C1206.35 103.78 1206.45 104.122 1206.65 104.326C1206.86 104.518 1207.21 104.614 1207.72 104.614H1208.92V106H1207.45C1206.53 106 1205.85 105.79 1205.39 105.37C1204.94 104.95 1204.71 104.26 1204.71 103.3V97.486H1203.43V96.136H1204.71V93.652H1206.35V96.136H1208.92V97.486H1206.35ZM1219.4 96.136L1213.46 110.644H1211.77L1213.72 105.892L1209.74 96.136H1211.56L1214.65 104.128L1217.71 96.136H1219.4Z" fill="#1E1E1E" fill-opacity="0.5"/>
<path d="M1113.77 150.718C1113.77 149.494 1114.05 148.396 1114.6 147.424C1115.15 146.44 1115.9 145.672 1116.85 145.12C1117.81 144.568 1118.87 144.292 1120.04 144.292C1121.41 144.292 1122.6 144.622 1123.62 145.282C1124.64 145.942 1125.38 146.878 1125.85 148.09H1123.89C1123.54 147.334 1123.04 146.752 1122.38 146.344C1121.73 145.936 1120.95 145.732 1120.04 145.732C1119.16 145.732 1118.38 145.936 1117.68 146.344C1116.98 146.752 1116.44 147.334 1116.04 148.09C1115.65 148.834 1115.45 149.71 1115.45 150.718C1115.45 151.714 1115.65 152.59 1116.04 153.346C1116.44 154.09 1116.98 154.666 1117.68 155.074C1118.38 155.482 1119.16 155.686 1120.04 155.686C1120.95 155.686 1121.73 155.488 1122.38 155.092C1123.04 154.684 1123.54 154.102 1123.89 153.346H1125.85C1125.38 154.546 1124.64 155.476 1123.62 156.136C1122.6 156.784 1121.41 157.108 1120.04 157.108C1118.87 157.108 1117.81 156.838 1116.85 156.298C1115.9 155.746 1115.15 154.984 1114.6 154.012C1114.05 153.04 1113.77 151.942 1113.77 150.718ZM1127.68 152.032C1127.68 151.024 1127.88 150.142 1128.29 149.386C1128.7 148.618 1129.26 148.024 1129.96 147.604C1130.68 147.184 1131.48 146.974 1132.36 146.974C1133.22 146.974 1133.97 147.16 1134.61 147.532C1135.24 147.904 1135.72 148.372 1136.03 148.936V147.136H1137.69V157H1136.03V155.164C1135.71 155.74 1135.22 156.22 1134.57 156.604C1133.94 156.976 1133.19 157.162 1132.34 157.162C1131.46 157.162 1130.67 156.946 1129.96 156.514C1129.26 156.082 1128.7 155.476 1128.29 154.696C1127.88 153.916 1127.68 153.028 1127.68 152.032ZM1136.03 152.05C1136.03 151.306 1135.88 150.658 1135.58 150.106C1135.28 149.554 1134.87 149.134 1134.36 148.846C1133.85 148.546 1133.29 148.396 1132.68 148.396C1132.07 148.396 1131.51 148.54 1131.01 148.828C1130.5 149.116 1130.1 149.536 1129.8 150.088C1129.5 150.64 1129.35 151.288 1129.35 152.032C1129.35 152.788 1129.5 153.448 1129.8 154.012C1130.1 154.564 1130.5 154.99 1131.01 155.29C1131.51 155.578 1132.07 155.722 1132.68 155.722C1133.29 155.722 1133.85 155.578 1134.36 155.29C1134.87 154.99 1135.28 154.564 1135.58 154.012C1135.88 153.448 1136.03 152.794 1136.03 152.05ZM1142.09 148.738C1142.38 148.174 1142.79 147.736 1143.32 147.424C1143.86 147.112 1144.51 146.956 1145.28 146.956V148.648H1144.85C1143.01 148.648 1142.09 149.644 1142.09 151.636V157H1140.45V147.136H1142.09V148.738ZM1156.17 151.69C1156.17 152.002 1156.15 152.332 1156.12 152.68H1148.23C1148.29 153.652 1148.62 154.414 1149.22 154.966C1149.83 155.506 1150.57 155.776 1151.44 155.776C1152.14 155.776 1152.73 155.614 1153.2 155.29C1153.68 154.954 1154.02 154.51 1154.21 153.958H1155.97C1155.71 154.906 1155.18 155.68 1154.39 156.28C1153.6 156.868 1152.61 157.162 1151.44 157.162C1150.5 157.162 1149.66 156.952 1148.92 156.532C1148.18 156.112 1147.61 155.518 1147.19 154.75C1146.77 153.97 1146.56 153.07 1146.56 152.05C1146.56 151.03 1146.76 150.136 1147.17 149.368C1147.58 148.6 1148.15 148.012 1148.88 147.604C1149.62 147.184 1150.48 146.974 1151.44 146.974C1152.37 146.974 1153.2 147.178 1153.92 147.586C1154.64 147.994 1155.19 148.558 1155.58 149.278C1155.97 149.986 1156.17 150.79 1156.17 151.69ZM1154.48 151.348C1154.48 150.724 1154.34 150.19 1154.06 149.746C1153.79 149.29 1153.41 148.948 1152.93 148.72C1152.46 148.48 1151.94 148.36 1151.36 148.36C1150.54 148.36 1149.83 148.624 1149.24 149.152C1148.66 149.68 1148.33 150.412 1148.25 151.348H1154.48ZM1167.33 151.69C1167.33 152.002 1167.31 152.332 1167.28 152.68H1159.39C1159.45 153.652 1159.78 154.414 1160.38 154.966C1161 155.506 1161.73 155.776 1162.6 155.776C1163.31 155.776 1163.89 155.614 1164.36 155.29C1164.84 154.954 1165.18 154.51 1165.37 153.958H1167.13C1166.87 154.906 1166.34 155.68 1165.55 156.28C1164.76 156.868 1163.77 157.162 1162.6 157.162C1161.66 157.162 1160.82 156.952 1160.08 156.532C1159.35 156.112 1158.77 155.518 1158.35 154.75C1157.93 153.97 1157.72 153.07 1157.72 152.05C1157.72 151.03 1157.92 150.136 1158.33 149.368C1158.74 148.6 1159.31 148.012 1160.04 147.604C1160.79 147.184 1161.64 146.974 1162.6 146.974C1163.53 146.974 1164.36 147.178 1165.08 147.586C1165.8 147.994 1166.35 148.558 1166.74 149.278C1167.13 149.986 1167.33 150.79 1167.33 151.69ZM1165.64 151.348C1165.64 150.724 1165.5 150.19 1165.23 149.746C1164.95 149.29 1164.57 148.948 1164.09 148.72C1163.62 148.48 1163.1 148.36 1162.53 148.36C1161.7 148.36 1160.99 148.624 1160.4 149.152C1159.83 149.68 1159.5 150.412 1159.41 151.348H1165.64ZM1171.13 148.738C1171.42 148.174 1171.83 147.736 1172.36 147.424C1172.9 147.112 1173.55 146.956 1174.32 146.956V148.648H1173.89C1172.05 148.648 1171.13 149.644 1171.13 151.636V157H1169.49V147.136H1171.13V148.738Z" fill="#1E1E1E" fill-opacity="0.5"/>
<path d="M1120.07 208.126C1118.91 208.126 1117.85 207.856 1116.89 207.316C1115.93 206.764 1115.17 206.002 1114.6 205.03C1114.05 204.046 1113.77 202.942 1113.77 201.718C1113.77 200.494 1114.05 199.396 1114.6 198.424C1115.17 197.44 1115.93 196.678 1116.89 196.138C1117.85 195.586 1118.91 195.31 1120.07 195.31C1121.25 195.31 1122.32 195.586 1123.28 196.138C1124.24 196.678 1124.99 197.434 1125.55 198.406C1126.1 199.378 1126.37 200.482 1126.37 201.718C1126.37 202.954 1126.1 204.058 1125.55 205.03C1124.99 206.002 1124.24 206.764 1123.28 207.316C1122.32 207.856 1121.25 208.126 1120.07 208.126ZM1120.07 206.704C1120.95 206.704 1121.74 206.5 1122.43 206.092C1123.14 205.684 1123.69 205.102 1124.09 204.346C1124.5 203.59 1124.7 202.714 1124.7 201.718C1124.7 200.71 1124.5 199.834 1124.09 199.09C1123.69 198.334 1123.15 197.752 1122.45 197.344C1121.75 196.936 1120.96 196.732 1120.07 196.732C1119.19 196.732 1118.39 196.936 1117.7 197.344C1117 197.752 1116.45 198.334 1116.04 199.09C1115.65 199.834 1115.45 200.71 1115.45 201.718C1115.45 202.714 1115.65 203.59 1116.04 204.346C1116.45 205.102 1117 205.684 1117.7 206.092C1118.41 206.5 1119.2 206.704 1120.07 206.704ZM1137.28 198.136V208H1135.65V206.542C1135.33 207.046 1134.9 207.442 1134.33 207.73C1133.78 208.006 1133.17 208.144 1132.5 208.144C1131.73 208.144 1131.04 207.988 1130.43 207.676C1129.81 207.352 1129.33 206.872 1128.97 206.236C1128.62 205.6 1128.45 204.826 1128.45 203.914V198.136H1130.07V203.698C1130.07 204.67 1130.31 205.42 1130.8 205.948C1131.3 206.464 1131.97 206.722 1132.82 206.722C1133.7 206.722 1134.39 206.452 1134.89 205.912C1135.39 205.372 1135.65 204.586 1135.65 203.554V198.136H1137.28ZM1141.69 199.738C1141.98 199.174 1142.38 198.736 1142.91 198.424C1143.45 198.112 1144.11 197.956 1144.87 197.956V199.648H1144.44C1142.61 199.648 1141.69 200.644 1141.69 202.636V208H1140.05V198.136H1141.69V199.738ZM1155.06 208.162C1154.3 208.162 1153.62 208.036 1153.02 207.784C1152.42 207.52 1151.95 207.16 1151.6 206.704C1151.25 206.236 1151.06 205.702 1151.02 205.102H1152.72C1152.76 205.594 1152.99 205.996 1153.4 206.308C1153.82 206.62 1154.37 206.776 1155.04 206.776C1155.66 206.776 1156.15 206.638 1156.51 206.362C1156.87 206.086 1157.05 205.738 1157.05 205.318C1157.05 204.886 1156.86 204.568 1156.48 204.364C1156.09 204.148 1155.5 203.938 1154.7 203.734C1153.96 203.542 1153.36 203.35 1152.9 203.158C1152.44 202.954 1152.04 202.66 1151.71 202.276C1151.38 201.88 1151.22 201.364 1151.22 200.728C1151.22 200.224 1151.37 199.762 1151.67 199.342C1151.97 198.922 1152.4 198.592 1152.95 198.352C1153.5 198.1 1154.13 197.974 1154.84 197.974C1155.93 197.974 1156.81 198.25 1157.49 198.802C1158.16 199.354 1158.52 200.11 1158.57 201.07H1156.93C1156.89 200.554 1156.68 200.14 1156.3 199.828C1155.93 199.516 1155.42 199.36 1154.79 199.36C1154.2 199.36 1153.73 199.486 1153.38 199.738C1153.03 199.99 1152.86 200.32 1152.86 200.728C1152.86 201.052 1152.96 201.322 1153.17 201.538C1153.38 201.742 1153.65 201.91 1153.96 202.042C1154.28 202.162 1154.73 202.3 1155.29 202.456C1156 202.648 1156.57 202.84 1157.02 203.032C1157.46 203.212 1157.84 203.488 1158.15 203.86C1158.48 204.232 1158.64 204.718 1158.66 205.318C1158.66 205.858 1158.51 206.344 1158.21 206.776C1157.91 207.208 1157.48 207.55 1156.93 207.802C1156.39 208.042 1155.76 208.162 1155.06 208.162ZM1162.97 199.486V205.3C1162.97 205.78 1163.07 206.122 1163.27 206.326C1163.48 206.518 1163.83 206.614 1164.33 206.614H1165.54V208H1164.06C1163.15 208 1162.47 207.79 1162.01 207.37C1161.56 206.95 1161.33 206.26 1161.33 205.3V199.486H1160.05V198.136H1161.33V195.652H1162.97V198.136H1165.54V199.486H1162.97ZM1171.83 208.162C1170.9 208.162 1170.06 207.952 1169.31 207.532C1168.56 207.112 1167.97 206.518 1167.54 205.75C1167.12 204.97 1166.91 204.07 1166.91 203.05C1166.91 202.042 1167.13 201.154 1167.56 200.386C1168 199.606 1168.6 199.012 1169.36 198.604C1170.12 198.184 1170.96 197.974 1171.9 197.974C1172.83 197.974 1173.68 198.184 1174.44 198.604C1175.19 199.012 1175.79 199.6 1176.22 200.368C1176.66 201.136 1176.88 202.03 1176.88 203.05C1176.88 204.07 1176.66 204.97 1176.2 205.75C1175.76 206.518 1175.15 207.112 1174.38 207.532C1173.61 207.952 1172.76 208.162 1171.83 208.162ZM1171.83 206.722C1172.41 206.722 1172.97 206.584 1173.48 206.308C1174 206.032 1174.41 205.618 1174.72 205.066C1175.05 204.514 1175.21 203.842 1175.21 203.05C1175.21 202.258 1175.05 201.586 1174.74 201.034C1174.43 200.482 1174.02 200.074 1173.52 199.81C1173.01 199.534 1172.47 199.396 1171.88 199.396C1171.28 199.396 1170.73 199.534 1170.22 199.81C1169.73 200.074 1169.34 200.482 1169.04 201.034C1168.74 201.586 1168.59 202.258 1168.59 203.05C1168.59 203.854 1168.73 204.532 1169.02 205.084C1169.32 205.636 1169.71 206.05 1170.21 206.326C1170.7 206.59 1171.24 206.722 1171.83 206.722ZM1180.68 199.738C1180.96 199.174 1181.37 198.736 1181.9 198.424C1182.44 198.112 1183.09 197.956 1183.86 197.956V199.648H1183.43C1181.59 199.648 1180.68 200.644 1180.68 202.636V208H1179.04V198.136H1180.68V199.738ZM1194.25 198.136L1188.31 212.644H1186.62L1188.56 207.892L1184.58 198.136H1186.4L1189.5 206.128L1192.56 198.136H1194.25Z" fill="#1E1E1E" fill-opacity="0.5"/>
<path d="M1268.59 48.664C1268.59 47.416 1268.86 46.306 1269.4 45.334C1269.94 44.35 1270.69 43.588 1271.65 43.048C1272.63 42.496 1273.72 42.22 1274.95 42.22C1276.45 42.22 1277.73 42.616 1278.8 43.408C1279.87 44.2 1280.58 45.28 1280.94 46.648H1277.56C1277.31 46.12 1276.95 45.718 1276.48 45.442C1276.02 45.166 1275.5 45.028 1274.91 45.028C1273.96 45.028 1273.2 45.358 1272.61 46.018C1272.02 46.678 1271.73 47.56 1271.73 48.664C1271.73 49.768 1272.02 50.65 1272.61 51.31C1273.2 51.97 1273.96 52.3 1274.91 52.3C1275.5 52.3 1276.02 52.162 1276.48 51.886C1276.95 51.61 1277.31 51.208 1277.56 50.68H1280.94C1280.58 52.048 1279.87 53.128 1278.8 53.92C1277.73 54.7 1276.45 55.09 1274.95 55.09C1273.72 55.09 1272.63 54.82 1271.65 54.28C1270.69 53.728 1269.94 52.966 1269.4 51.994C1268.86 51.022 1268.59 49.912 1268.59 48.664ZM1287.4 55.144C1286.41 55.144 1285.53 54.934 1284.73 54.514C1283.95 54.094 1283.34 53.494 1282.88 52.714C1282.44 51.934 1282.21 51.022 1282.21 49.978C1282.21 48.946 1282.44 48.04 1282.9 47.26C1283.35 46.468 1283.98 45.862 1284.77 45.442C1285.56 45.022 1286.45 44.812 1287.43 44.812C1288.42 44.812 1289.31 45.022 1290.1 45.442C1290.89 45.862 1291.51 46.468 1291.97 47.26C1292.43 48.04 1292.65 48.946 1292.65 49.978C1292.65 51.01 1292.42 51.922 1291.95 52.714C1291.5 53.494 1290.87 54.094 1290.06 54.514C1289.27 54.934 1288.38 55.144 1287.4 55.144ZM1287.4 52.48C1287.99 52.48 1288.48 52.264 1288.89 51.832C1289.31 51.4 1289.52 50.782 1289.52 49.978C1289.52 49.174 1289.32 48.556 1288.91 48.124C1288.51 47.692 1288.02 47.476 1287.43 47.476C1286.83 47.476 1286.34 47.692 1285.94 48.124C1285.54 48.544 1285.35 49.162 1285.35 49.978C1285.35 50.782 1285.54 51.4 1285.92 51.832C1286.32 52.264 1286.81 52.48 1287.4 52.48ZM1300.41 44.848C1301.58 44.848 1302.52 45.232 1303.22 46C1303.92 46.756 1304.28 47.8 1304.28 49.132V55H1301.22V49.546C1301.22 48.874 1301.04 48.352 1300.7 47.98C1300.35 47.608 1299.88 47.422 1299.29 47.422C1298.7 47.422 1298.24 47.608 1297.89 47.98C1297.54 48.352 1297.37 48.874 1297.37 49.546V55H1294.29V44.956H1297.37V46.288C1297.68 45.844 1298.1 45.496 1298.63 45.244C1299.15 44.98 1299.75 44.848 1300.41 44.848ZM1312.01 52.39V55H1310.45C1309.33 55 1308.46 54.73 1307.84 54.19C1307.21 53.638 1306.9 52.744 1306.9 51.508V47.512H1305.68V44.956H1306.9V42.508H1309.98V44.956H1312V47.512H1309.98V51.544C1309.98 51.844 1310.05 52.06 1310.2 52.192C1310.34 52.324 1310.58 52.39 1310.92 52.39H1312.01ZM1313.12 49.96C1313.12 48.928 1313.31 48.022 1313.69 47.242C1314.09 46.462 1314.62 45.862 1315.3 45.442C1315.97 45.022 1316.72 44.812 1317.55 44.812C1318.25 44.812 1318.87 44.956 1319.4 45.244C1319.94 45.532 1320.35 45.91 1320.64 46.378V44.956H1323.72V55H1320.64V53.578C1320.34 54.046 1319.92 54.424 1319.38 54.712C1318.85 55 1318.24 55.144 1317.53 55.144C1316.71 55.144 1315.97 54.934 1315.3 54.514C1314.62 54.082 1314.09 53.476 1313.69 52.696C1313.31 51.904 1313.12 50.992 1313.12 49.96ZM1320.64 49.978C1320.64 49.21 1320.43 48.604 1319.99 48.16C1319.57 47.716 1319.06 47.494 1318.45 47.494C1317.83 47.494 1317.31 47.716 1316.88 48.16C1316.46 48.592 1316.25 49.192 1316.25 49.96C1316.25 50.728 1316.46 51.34 1316.88 51.796C1317.31 52.24 1317.83 52.462 1318.45 52.462C1319.06 52.462 1319.57 52.24 1319.99 51.796C1320.43 51.352 1320.64 50.746 1320.64 49.978ZM1325.33 49.978C1325.33 48.934 1325.54 48.022 1325.96 47.242C1326.4 46.462 1326.99 45.862 1327.75 45.442C1328.51 45.022 1329.39 44.812 1330.37 44.812C1331.63 44.812 1332.68 45.142 1333.52 45.802C1334.38 46.462 1334.93 47.392 1335.2 48.592H1331.92C1331.65 47.824 1331.11 47.44 1330.32 47.44C1329.76 47.44 1329.31 47.662 1328.97 48.106C1328.63 48.538 1328.47 49.162 1328.47 49.978C1328.47 50.794 1328.63 51.424 1328.97 51.868C1329.31 52.3 1329.76 52.516 1330.32 52.516C1331.11 52.516 1331.65 52.132 1331.92 51.364H1335.2C1334.93 52.54 1334.38 53.464 1333.52 54.136C1332.67 54.808 1331.62 55.144 1330.37 55.144C1329.39 55.144 1328.51 54.934 1327.75 54.514C1326.99 54.094 1326.4 53.494 1325.96 52.714C1325.54 51.934 1325.33 51.022 1325.33 49.978ZM1342.44 52.39V55H1340.88C1339.76 55 1338.89 54.73 1338.27 54.19C1337.64 53.638 1337.33 52.744 1337.33 51.508V47.512H1336.11V44.956H1337.33V42.508H1340.41V44.956H1342.42V47.512H1340.41V51.544C1340.41 51.844 1340.48 52.06 1340.62 52.192C1340.77 52.324 1341.01 52.39 1341.34 52.39H1342.44Z" fill="#1E1E1E"/>
<path d="M1278.89 97.09C1278.54 96.358 1278.04 95.794 1277.38 95.398C1276.72 94.99 1275.95 94.786 1275.07 94.786C1274.2 94.786 1273.41 94.99 1272.7 95.398C1272 95.794 1271.45 96.37 1271.04 97.126C1270.65 97.87 1270.45 98.734 1270.45 99.718C1270.45 100.702 1270.65 101.566 1271.04 102.31C1271.45 103.054 1272 103.63 1272.7 104.038C1273.41 104.434 1274.2 104.632 1275.07 104.632C1276.3 104.632 1277.31 104.266 1278.1 103.534C1278.89 102.802 1279.35 101.812 1279.48 100.564H1274.48V99.232H1281.23V100.492C1281.13 101.524 1280.81 102.472 1280.26 103.336C1279.71 104.188 1278.98 104.866 1278.08 105.37C1277.18 105.862 1276.18 106.108 1275.07 106.108C1273.91 106.108 1272.85 105.838 1271.89 105.298C1270.93 104.746 1270.17 103.984 1269.6 103.012C1269.05 102.04 1268.77 100.942 1268.77 99.718C1268.77 98.494 1269.05 97.396 1269.6 96.424C1270.17 95.44 1270.93 94.678 1271.89 94.138C1272.85 93.586 1273.91 93.31 1275.07 93.31C1276.41 93.31 1277.58 93.64 1278.6 94.3C1279.63 94.96 1280.38 95.89 1280.85 97.09H1278.89ZM1292.4 100.69C1292.4 101.002 1292.38 101.332 1292.34 101.68H1284.46C1284.52 102.652 1284.85 103.414 1285.45 103.966C1286.06 104.506 1286.8 104.776 1287.66 104.776C1288.37 104.776 1288.96 104.614 1289.43 104.29C1289.91 103.954 1290.24 103.51 1290.43 102.958H1292.2C1291.93 103.906 1291.41 104.68 1290.61 105.28C1289.82 105.868 1288.84 106.162 1287.66 106.162C1286.73 106.162 1285.89 105.952 1285.14 105.532C1284.41 105.112 1283.83 104.518 1283.41 103.75C1282.99 102.97 1282.78 102.07 1282.78 101.05C1282.78 100.03 1282.99 99.136 1283.4 98.368C1283.8 97.6 1284.37 97.012 1285.11 96.604C1285.85 96.184 1286.7 95.974 1287.66 95.974C1288.6 95.974 1289.43 96.178 1290.15 96.586C1290.87 96.994 1291.42 97.558 1291.8 98.278C1292.2 98.986 1292.4 99.79 1292.4 100.69ZM1290.7 100.348C1290.7 99.724 1290.57 99.19 1290.29 98.746C1290.01 98.29 1289.64 97.948 1289.16 97.72C1288.69 97.48 1288.17 97.36 1287.59 97.36C1286.76 97.36 1286.05 97.624 1285.47 98.152C1284.89 98.68 1284.56 99.412 1284.48 100.348H1290.7ZM1296.56 97.486V103.3C1296.56 103.78 1296.66 104.122 1296.86 104.326C1297.07 104.518 1297.42 104.614 1297.92 104.614H1299.13V106H1297.65C1296.74 106 1296.06 105.79 1295.6 105.37C1295.15 104.95 1294.92 104.26 1294.92 103.3V97.486H1293.64V96.136H1294.92V93.652H1296.56V96.136H1299.13V97.486H1296.56ZM1303.11 97.486V103.3C1303.11 103.78 1303.21 104.122 1303.42 104.326C1303.62 104.518 1303.98 104.614 1304.48 104.614H1305.69V106H1304.21C1303.3 106 1302.61 105.79 1302.16 105.37C1301.7 104.95 1301.47 104.26 1301.47 103.3V97.486H1300.2V96.136H1301.47V93.652H1303.11V96.136H1305.69V97.486H1303.11ZM1308.52 94.534C1308.21 94.534 1307.94 94.426 1307.73 94.21C1307.51 93.994 1307.4 93.73 1307.4 93.418C1307.4 93.106 1307.51 92.842 1307.73 92.626C1307.94 92.41 1308.21 92.302 1308.52 92.302C1308.82 92.302 1309.07 92.41 1309.27 92.626C1309.49 92.842 1309.6 93.106 1309.6 93.418C1309.6 93.73 1309.49 93.994 1309.27 94.21C1309.07 94.426 1308.82 94.534 1308.52 94.534ZM1309.31 96.136V106H1307.67V96.136H1309.31ZM1316.91 95.956C1318.11 95.956 1319.08 96.322 1319.82 97.054C1320.57 97.774 1320.94 98.818 1320.94 100.186V106H1319.32V100.42C1319.32 99.436 1319.07 98.686 1318.58 98.17C1318.09 97.642 1317.42 97.378 1316.56 97.378C1315.7 97.378 1315.01 97.648 1314.49 98.188C1313.99 98.728 1313.74 99.514 1313.74 100.546V106H1312.1V96.136H1313.74V97.54C1314.06 97.036 1314.5 96.646 1315.05 96.37C1315.62 96.094 1316.23 95.956 1316.91 95.956ZM1327.68 95.974C1328.53 95.974 1329.28 96.16 1329.91 96.532C1330.56 96.904 1331.04 97.372 1331.35 97.936V96.136H1333.01V106.216C1333.01 107.116 1332.82 107.914 1332.43 108.61C1332.05 109.318 1331.5 109.87 1330.78 110.266C1330.07 110.662 1329.24 110.86 1328.29 110.86C1327 110.86 1325.92 110.554 1325.05 109.942C1324.19 109.33 1323.68 108.496 1323.52 107.44H1325.14C1325.32 108.04 1325.7 108.52 1326.26 108.88C1326.82 109.252 1327.5 109.438 1328.29 109.438C1329.19 109.438 1329.93 109.156 1330.49 108.592C1331.07 108.028 1331.35 107.236 1331.35 106.216V104.146C1331.03 104.722 1330.55 105.202 1329.91 105.586C1329.28 105.97 1328.53 106.162 1327.68 106.162C1326.81 106.162 1326.01 105.946 1325.29 105.514C1324.58 105.082 1324.02 104.476 1323.61 103.696C1323.21 102.916 1323 102.028 1323 101.032C1323 100.024 1323.21 99.142 1323.61 98.386C1324.02 97.618 1324.58 97.024 1325.29 96.604C1326.01 96.184 1326.81 95.974 1327.68 95.974ZM1331.35 101.05C1331.35 100.306 1331.2 99.658 1330.9 99.106C1330.6 98.554 1330.2 98.134 1329.68 97.846C1329.18 97.546 1328.62 97.396 1328.01 97.396C1327.39 97.396 1326.84 97.54 1326.33 97.828C1325.83 98.116 1325.43 98.536 1325.13 99.088C1324.83 99.64 1324.68 100.288 1324.68 101.032C1324.68 101.788 1324.83 102.448 1325.13 103.012C1325.43 103.564 1325.83 103.99 1326.33 104.29C1326.84 104.578 1327.39 104.722 1328.01 104.722C1328.62 104.722 1329.18 104.578 1329.68 104.29C1330.2 103.99 1330.6 103.564 1330.9 103.012C1331.2 102.448 1331.35 101.794 1331.35 101.05ZM1344.56 106.126C1343.73 106.126 1342.98 105.982 1342.32 105.694C1341.68 105.394 1341.17 104.986 1340.79 104.47C1340.42 103.942 1340.23 103.336 1340.22 102.652H1341.96C1342.02 103.24 1342.26 103.738 1342.68 104.146C1343.12 104.542 1343.74 104.74 1344.56 104.74C1345.34 104.74 1345.95 104.548 1346.39 104.164C1346.85 103.768 1347.08 103.264 1347.08 102.652C1347.08 102.172 1346.94 101.782 1346.68 101.482C1346.42 101.182 1346.09 100.954 1345.69 100.798C1345.29 100.642 1344.76 100.474 1344.09 100.294C1343.26 100.078 1342.59 99.862 1342.09 99.646C1341.6 99.43 1341.17 99.094 1340.81 98.638C1340.46 98.17 1340.29 97.546 1340.29 96.766C1340.29 96.082 1340.46 95.476 1340.81 94.948C1341.16 94.42 1341.65 94.012 1342.27 93.724C1342.91 93.436 1343.63 93.292 1344.45 93.292C1345.62 93.292 1346.58 93.586 1347.33 94.174C1348.08 94.762 1348.51 95.542 1348.61 96.514H1346.81C1346.75 96.034 1346.49 95.614 1346.05 95.254C1345.61 94.882 1345.02 94.696 1344.29 94.696C1343.6 94.696 1343.04 94.876 1342.61 95.236C1342.18 95.584 1341.96 96.076 1341.96 96.712C1341.96 97.168 1342.09 97.54 1342.34 97.828C1342.61 98.116 1342.92 98.338 1343.3 98.494C1343.68 98.638 1344.21 98.806 1344.9 98.998C1345.73 99.226 1346.39 99.454 1346.9 99.682C1347.4 99.898 1347.83 100.24 1348.19 100.708C1348.55 101.164 1348.73 101.788 1348.73 102.58C1348.73 103.192 1348.57 103.768 1348.25 104.308C1347.92 104.848 1347.44 105.286 1346.81 105.622C1346.17 105.958 1345.42 106.126 1344.56 106.126ZM1353.14 97.486V103.3C1353.14 103.78 1353.24 104.122 1353.45 104.326C1353.65 104.518 1354 104.614 1354.51 104.614H1355.71V106H1354.24C1353.33 106 1352.64 105.79 1352.19 105.37C1351.73 104.95 1351.5 104.26 1351.5 103.3V97.486H1350.22V96.136H1351.5V93.652H1353.14V96.136H1355.71V97.486H1353.14ZM1357.09 101.032C1357.09 100.024 1357.29 99.142 1357.7 98.386C1358.11 97.618 1358.66 97.024 1359.37 96.604C1360.09 96.184 1360.89 95.974 1361.77 95.974C1362.63 95.974 1363.38 96.16 1364.02 96.532C1364.65 96.904 1365.13 97.372 1365.44 97.936V96.136H1367.09V106H1365.44V104.164C1365.11 104.74 1364.63 105.22 1363.98 105.604C1363.34 105.976 1362.6 106.162 1361.75 106.162C1360.87 106.162 1360.08 105.946 1359.37 105.514C1358.66 105.082 1358.11 104.476 1357.7 103.696C1357.29 102.916 1357.09 102.028 1357.09 101.032ZM1365.44 101.05C1365.44 100.306 1365.29 99.658 1364.99 99.106C1364.69 98.554 1364.28 98.134 1363.76 97.846C1363.26 97.546 1362.7 97.396 1362.09 97.396C1361.48 97.396 1360.92 97.54 1360.42 97.828C1359.91 98.116 1359.51 98.536 1359.21 99.088C1358.91 99.64 1358.76 100.288 1358.76 101.032C1358.76 101.788 1358.91 102.448 1359.21 103.012C1359.51 103.564 1359.91 103.99 1360.42 104.29C1360.92 104.578 1361.48 104.722 1362.09 104.722C1362.7 104.722 1363.26 104.578 1363.76 104.29C1364.28 103.99 1364.69 103.564 1364.99 103.012C1365.29 102.448 1365.44 101.794 1365.44 101.05ZM1371.5 97.738C1371.79 97.174 1372.2 96.736 1372.72 96.424C1373.26 96.112 1373.92 95.956 1374.69 95.956V97.648H1374.25C1372.42 97.648 1371.5 98.644 1371.5 100.636V106H1369.86V96.136H1371.5V97.738ZM1378.58 97.486V103.3C1378.58 103.78 1378.68 104.122 1378.88 104.326C1379.09 104.518 1379.44 104.614 1379.94 104.614H1381.15V106H1379.67C1378.76 106 1378.08 105.79 1377.62 105.37C1377.17 104.95 1376.94 104.26 1376.94 103.3V97.486H1375.66V96.136H1376.94V93.652H1378.58V96.136H1381.15V97.486H1378.58ZM1392.13 100.69C1392.13 101.002 1392.12 101.332 1392.08 101.68H1384.2C1384.26 102.652 1384.59 103.414 1385.19 103.966C1385.8 104.506 1386.54 104.776 1387.4 104.776C1388.11 104.776 1388.7 104.614 1389.16 104.29C1389.64 103.954 1389.98 103.51 1390.17 102.958H1391.94C1391.67 103.906 1391.14 104.68 1390.35 105.28C1389.56 105.868 1388.58 106.162 1387.4 106.162C1386.46 106.162 1385.62 105.952 1384.88 105.532C1384.15 105.112 1383.57 104.518 1383.15 103.75C1382.73 102.97 1382.52 102.07 1382.52 101.05C1382.52 100.03 1382.73 99.136 1383.13 98.368C1383.54 97.6 1384.11 97.012 1384.84 96.604C1385.59 96.184 1386.44 95.974 1387.4 95.974C1388.34 95.974 1389.16 96.178 1389.88 96.586C1390.6 96.994 1391.16 97.558 1391.54 98.278C1391.94 98.986 1392.13 99.79 1392.13 100.69ZM1390.44 100.348C1390.44 99.724 1390.3 99.19 1390.03 98.746C1389.75 98.29 1389.37 97.948 1388.89 97.72C1388.43 97.48 1387.9 97.36 1387.33 97.36C1386.5 97.36 1385.79 97.624 1385.2 98.152C1384.63 98.68 1384.3 99.412 1384.21 100.348H1390.44ZM1393.68 101.032C1393.68 100.024 1393.89 99.142 1394.3 98.386C1394.7 97.618 1395.26 97.024 1395.97 96.604C1396.69 96.184 1397.49 95.974 1398.38 95.974C1399.15 95.974 1399.86 96.154 1400.52 96.514C1401.18 96.862 1401.69 97.324 1402.04 97.9V92.68H1403.69V106H1402.04V104.146C1401.71 104.734 1401.23 105.22 1400.6 105.604C1399.96 105.976 1399.22 106.162 1398.36 106.162C1397.49 106.162 1396.69 105.946 1395.97 105.514C1395.26 105.082 1394.7 104.476 1394.3 103.696C1393.89 102.916 1393.68 102.028 1393.68 101.032ZM1402.04 101.05C1402.04 100.306 1401.89 99.658 1401.59 99.106C1401.29 98.554 1400.88 98.134 1400.36 97.846C1399.86 97.546 1399.3 97.396 1398.69 97.396C1398.08 97.396 1397.52 97.54 1397.01 97.828C1396.51 98.116 1396.11 98.536 1395.81 99.088C1395.51 99.64 1395.36 100.288 1395.36 101.032C1395.36 101.788 1395.51 102.448 1395.81 103.012C1396.11 103.564 1396.51 103.99 1397.01 104.29C1397.52 104.578 1398.08 104.722 1398.69 104.722C1399.3 104.722 1399.86 104.578 1400.36 104.29C1400.88 103.99 1401.29 103.564 1401.59 103.012C1401.89 102.448 1402.04 101.794 1402.04 101.05Z" fill="#1E1E1E" fill-opacity="0.5"/>
<path d="M1277.77 148.126C1277.77 149.17 1277.41 150.04 1276.69 150.736C1275.99 151.42 1274.9 151.762 1273.44 151.762H1271.02V157H1269.39V144.454H1273.44C1274.85 144.454 1275.93 144.796 1276.66 145.48C1277.4 146.164 1277.77 147.046 1277.77 148.126ZM1273.44 150.412C1274.35 150.412 1275.02 150.214 1275.45 149.818C1275.88 149.422 1276.1 148.858 1276.1 148.126C1276.1 146.578 1275.21 145.804 1273.44 145.804H1271.02V150.412H1273.44ZM1281.45 148.738C1281.74 148.174 1282.14 147.736 1282.67 147.424C1283.21 147.112 1283.87 146.956 1284.63 146.956V148.648H1284.2C1282.37 148.648 1281.45 149.644 1281.45 151.636V157H1279.81V147.136H1281.45V148.738ZM1287.37 145.534C1287.06 145.534 1286.79 145.426 1286.58 145.21C1286.36 144.994 1286.25 144.73 1286.25 144.418C1286.25 144.106 1286.36 143.842 1286.58 143.626C1286.79 143.41 1287.06 143.302 1287.37 143.302C1287.67 143.302 1287.92 143.41 1288.13 143.626C1288.34 143.842 1288.45 144.106 1288.45 144.418C1288.45 144.73 1288.34 144.994 1288.13 145.21C1287.92 145.426 1287.67 145.534 1287.37 145.534ZM1288.16 147.136V157H1286.52V147.136H1288.16ZM1290.34 152.05C1290.34 151.03 1290.55 150.142 1290.95 149.386C1291.36 148.618 1291.93 148.024 1292.65 147.604C1293.38 147.184 1294.21 146.974 1295.15 146.974C1296.36 146.974 1297.36 147.268 1298.14 147.856C1298.93 148.444 1299.45 149.26 1299.7 150.304H1297.94C1297.77 149.704 1297.44 149.23 1296.95 148.882C1296.47 148.534 1295.87 148.36 1295.15 148.36C1294.21 148.36 1293.46 148.684 1292.88 149.332C1292.3 149.968 1292.02 150.874 1292.02 152.05C1292.02 153.238 1292.3 154.156 1292.88 154.804C1293.46 155.452 1294.21 155.776 1295.15 155.776C1295.87 155.776 1296.47 155.608 1296.95 155.272C1297.43 154.936 1297.76 154.456 1297.94 153.832H1299.7C1299.44 154.84 1298.91 155.65 1298.12 156.262C1297.33 156.862 1296.34 157.162 1295.15 157.162C1294.21 157.162 1293.38 156.952 1292.65 156.532C1291.93 156.112 1291.36 155.518 1290.95 154.75C1290.55 153.982 1290.34 153.082 1290.34 152.05ZM1302.73 145.534C1302.42 145.534 1302.16 145.426 1301.94 145.21C1301.73 144.994 1301.62 144.73 1301.62 144.418C1301.62 144.106 1301.73 143.842 1301.94 143.626C1302.16 143.41 1302.42 143.302 1302.73 143.302C1303.03 143.302 1303.29 143.41 1303.49 143.626C1303.71 143.842 1303.81 144.106 1303.81 144.418C1303.81 144.73 1303.71 144.994 1303.49 145.21C1303.29 145.426 1303.03 145.534 1302.73 145.534ZM1303.53 147.136V157H1301.89V147.136H1303.53ZM1311.12 146.956C1312.32 146.956 1313.3 147.322 1314.04 148.054C1314.78 148.774 1315.16 149.818 1315.16 151.186V157H1313.54V151.42C1313.54 150.436 1313.29 149.686 1312.8 149.17C1312.31 148.642 1311.63 148.378 1310.78 148.378C1309.92 148.378 1309.23 148.648 1308.71 149.188C1308.21 149.728 1307.96 150.514 1307.96 151.546V157H1306.32V147.136H1307.96V148.54C1308.28 148.036 1308.72 147.646 1309.27 147.37C1309.83 147.094 1310.45 146.956 1311.12 146.956ZM1321.9 146.974C1322.75 146.974 1323.5 147.16 1324.13 147.532C1324.78 147.904 1325.26 148.372 1325.57 148.936V147.136H1327.23V157.216C1327.23 158.116 1327.04 158.914 1326.65 159.61C1326.27 160.318 1325.72 160.87 1325 161.266C1324.29 161.662 1323.46 161.86 1322.51 161.86C1321.22 161.86 1320.14 161.554 1319.27 160.942C1318.41 160.33 1317.9 159.496 1317.74 158.44H1319.36C1319.54 159.04 1319.91 159.52 1320.48 159.88C1321.04 160.252 1321.72 160.438 1322.51 160.438C1323.41 160.438 1324.14 160.156 1324.71 159.592C1325.28 159.028 1325.57 158.236 1325.57 157.216V155.146C1325.25 155.722 1324.77 156.202 1324.13 156.586C1323.5 156.97 1322.75 157.162 1321.9 157.162C1321.02 157.162 1320.23 156.946 1319.51 156.514C1318.8 156.082 1318.24 155.476 1317.83 154.696C1317.42 153.916 1317.22 153.028 1317.22 152.032C1317.22 151.024 1317.42 150.142 1317.83 149.386C1318.24 148.618 1318.8 148.024 1319.51 147.604C1320.23 147.184 1321.02 146.974 1321.9 146.974ZM1325.57 152.05C1325.57 151.306 1325.42 150.658 1325.12 150.106C1324.82 149.554 1324.41 149.134 1323.9 148.846C1323.39 148.546 1322.84 148.396 1322.22 148.396C1321.61 148.396 1321.05 148.54 1320.55 148.828C1320.05 149.116 1319.64 149.536 1319.34 150.088C1319.04 150.64 1318.89 151.288 1318.89 152.032C1318.89 152.788 1319.04 153.448 1319.34 154.012C1319.64 154.564 1320.05 154.99 1320.55 155.29C1321.05 155.578 1321.61 155.722 1322.22 155.722C1322.84 155.722 1323.39 155.578 1323.9 155.29C1324.41 154.99 1324.82 154.564 1325.12 154.012C1325.42 153.448 1325.57 152.794 1325.57 152.05Z" fill="#1E1E1E" fill-opacity="0.5"/>
<path d="M1275.99 208L1273 202.87H1271.02V208H1269.39V195.454H1273.44C1274.38 195.454 1275.18 195.616 1275.83 195.94C1276.49 196.264 1276.98 196.702 1277.31 197.254C1277.63 197.806 1277.79 198.436 1277.79 199.144C1277.79 200.008 1277.54 200.77 1277.04 201.43C1276.54 202.09 1275.8 202.528 1274.8 202.744L1277.95 208H1275.99ZM1271.02 201.556H1273.44C1274.32 201.556 1274.99 201.34 1275.43 200.908C1275.88 200.464 1276.1 199.876 1276.1 199.144C1276.1 198.4 1275.88 197.824 1275.43 197.416C1275 197.008 1274.34 196.804 1273.44 196.804H1271.02V201.556ZM1289.34 202.69C1289.34 203.002 1289.32 203.332 1289.28 203.68H1281.4C1281.46 204.652 1281.79 205.414 1282.39 205.966C1283 206.506 1283.74 206.776 1284.6 206.776C1285.31 206.776 1285.9 206.614 1286.37 206.29C1286.85 205.954 1287.18 205.51 1287.38 204.958H1289.14C1288.88 205.906 1288.35 206.68 1287.56 207.28C1286.76 207.868 1285.78 208.162 1284.6 208.162C1283.67 208.162 1282.83 207.952 1282.08 207.532C1281.35 207.112 1280.78 206.518 1280.36 205.75C1279.94 204.97 1279.73 204.07 1279.73 203.05C1279.73 202.03 1279.93 201.136 1280.34 200.368C1280.75 199.6 1281.32 199.012 1282.05 198.604C1282.79 198.184 1283.64 197.974 1284.6 197.974C1285.54 197.974 1286.37 198.178 1287.09 198.586C1287.81 198.994 1288.36 199.558 1288.74 200.278C1289.14 200.986 1289.34 201.79 1289.34 202.69ZM1287.65 202.348C1287.65 201.724 1287.51 201.19 1287.23 200.746C1286.96 200.29 1286.58 199.948 1286.1 199.72C1285.63 199.48 1285.11 199.36 1284.53 199.36C1283.7 199.36 1283 199.624 1282.41 200.152C1281.83 200.68 1281.5 201.412 1281.42 202.348H1287.65ZM1294.99 208.162C1294.24 208.162 1293.56 208.036 1292.96 207.784C1292.36 207.52 1291.88 207.16 1291.54 206.704C1291.19 206.236 1291 205.702 1290.96 205.102H1292.65C1292.7 205.594 1292.93 205.996 1293.34 206.308C1293.76 206.62 1294.3 206.776 1294.97 206.776C1295.6 206.776 1296.09 206.638 1296.45 206.362C1296.81 206.086 1296.99 205.738 1296.99 205.318C1296.99 204.886 1296.8 204.568 1296.41 204.364C1296.03 204.148 1295.44 203.938 1294.63 203.734C1293.9 203.542 1293.3 203.35 1292.83 203.158C1292.38 202.954 1291.98 202.66 1291.64 202.276C1291.32 201.88 1291.16 201.364 1291.16 200.728C1291.16 200.224 1291.31 199.762 1291.61 199.342C1291.91 198.922 1292.33 198.592 1292.89 198.352C1293.44 198.1 1294.07 197.974 1294.78 197.974C1295.87 197.974 1296.75 198.25 1297.42 198.802C1298.09 199.354 1298.45 200.11 1298.5 201.07H1296.86C1296.83 200.554 1296.62 200.14 1296.23 199.828C1295.86 199.516 1295.36 199.36 1294.72 199.36C1294.13 199.36 1293.67 199.486 1293.32 199.738C1292.97 199.99 1292.8 200.32 1292.8 200.728C1292.8 201.052 1292.9 201.322 1293.1 201.538C1293.32 201.742 1293.58 201.91 1293.89 202.042C1294.22 202.162 1294.66 202.3 1295.23 202.456C1295.93 202.648 1296.51 202.84 1296.95 203.032C1297.4 203.212 1297.78 203.488 1298.09 203.86C1298.41 204.232 1298.58 204.718 1298.59 205.318C1298.59 205.858 1298.44 206.344 1298.14 206.776C1297.84 207.208 1297.42 207.55 1296.86 207.802C1296.32 208.042 1295.7 208.162 1294.99 208.162ZM1305.21 208.162C1304.28 208.162 1303.44 207.952 1302.69 207.532C1301.94 207.112 1301.35 206.518 1300.92 205.75C1300.5 204.97 1300.29 204.07 1300.29 203.05C1300.29 202.042 1300.51 201.154 1300.94 200.386C1301.38 199.606 1301.98 199.012 1302.74 198.604C1303.5 198.184 1304.34 197.974 1305.28 197.974C1306.21 197.974 1307.06 198.184 1307.82 198.604C1308.57 199.012 1309.17 199.6 1309.6 200.368C1310.04 201.136 1310.26 202.03 1310.26 203.05C1310.26 204.07 1310.04 204.97 1309.58 205.75C1309.14 206.518 1308.53 207.112 1307.76 207.532C1306.99 207.952 1306.14 208.162 1305.21 208.162ZM1305.21 206.722C1305.79 206.722 1306.35 206.584 1306.86 206.308C1307.38 206.032 1307.79 205.618 1308.1 205.066C1308.43 204.514 1308.59 203.842 1308.59 203.05C1308.59 202.258 1308.43 201.586 1308.12 201.034C1307.81 200.482 1307.4 200.074 1306.9 199.81C1306.39 199.534 1305.85 199.396 1305.26 199.396C1304.66 199.396 1304.11 199.534 1303.6 199.81C1303.11 200.074 1302.72 200.482 1302.42 201.034C1302.12 201.586 1301.97 202.258 1301.97 203.05C1301.97 203.854 1302.11 204.532 1302.4 205.084C1302.7 205.636 1303.09 206.05 1303.59 206.326C1304.08 206.59 1304.62 206.722 1305.21 206.722ZM1321.17 198.136V208H1319.53V206.542C1319.22 207.046 1318.78 207.442 1318.21 207.73C1317.66 208.006 1317.05 208.144 1316.38 208.144C1315.61 208.144 1314.92 207.988 1314.31 207.676C1313.7 207.352 1313.21 206.872 1312.85 206.236C1312.5 205.6 1312.33 204.826 1312.33 203.914V198.136H1313.95V203.698C1313.95 204.67 1314.19 205.42 1314.69 205.948C1315.18 206.464 1315.85 206.722 1316.7 206.722C1317.58 206.722 1318.27 206.452 1318.77 205.912C1319.28 205.372 1319.53 204.586 1319.53 203.554V198.136H1321.17ZM1325.57 199.738C1325.86 199.174 1326.26 198.736 1326.79 198.424C1327.33 198.112 1327.99 197.956 1328.75 197.956V199.648H1328.32C1326.49 199.648 1325.57 200.644 1325.57 202.636V208H1323.93V198.136H1325.57V199.738ZM1330.03 203.05C1330.03 202.03 1330.24 201.142 1330.65 200.386C1331.05 199.618 1331.62 199.024 1332.34 198.604C1333.07 198.184 1333.9 197.974 1334.84 197.974C1336.05 197.974 1337.05 198.268 1337.83 198.856C1338.62 199.444 1339.14 200.26 1339.39 201.304H1337.63C1337.46 200.704 1337.13 200.23 1336.64 199.882C1336.16 199.534 1335.56 199.36 1334.84 199.36C1333.9 199.36 1333.15 199.684 1332.57 200.332C1332 200.968 1331.71 201.874 1331.71 203.05C1331.71 204.238 1332 205.156 1332.57 205.804C1333.15 206.452 1333.9 206.776 1334.84 206.776C1335.56 206.776 1336.16 206.608 1336.64 206.272C1337.12 205.936 1337.45 205.456 1337.63 204.832H1339.39C1339.13 205.84 1338.6 206.65 1337.81 207.262C1337.02 207.862 1336.03 208.162 1334.84 208.162C1333.9 208.162 1333.07 207.952 1332.34 207.532C1331.62 207.112 1331.05 206.518 1330.65 205.75C1330.24 204.982 1330.03 204.082 1330.03 203.05ZM1350.58 202.69C1350.58 203.002 1350.56 203.332 1350.53 203.68H1342.64C1342.7 204.652 1343.03 205.414 1343.63 205.966C1344.24 206.506 1344.98 206.776 1345.85 206.776C1346.55 206.776 1347.14 206.614 1347.61 206.29C1348.09 205.954 1348.43 205.51 1348.62 204.958H1350.38C1350.12 205.906 1349.59 206.68 1348.8 207.28C1348.01 207.868 1347.02 208.162 1345.85 208.162C1344.91 208.162 1344.07 207.952 1343.33 207.532C1342.59 207.112 1342.02 206.518 1341.6 205.75C1341.18 204.97 1340.97 204.07 1340.97 203.05C1340.97 202.03 1341.17 201.136 1341.58 200.368C1341.99 199.6 1342.56 199.012 1343.29 198.604C1344.03 198.184 1344.89 197.974 1345.85 197.974C1346.78 197.974 1347.61 198.178 1348.33 198.586C1349.05 198.994 1349.6 199.558 1349.99 200.278C1350.38 200.986 1350.58 201.79 1350.58 202.69ZM1348.89 202.348C1348.89 201.724 1348.75 201.19 1348.47 200.746C1348.2 200.29 1347.82 199.948 1347.34 199.72C1346.87 199.48 1346.35 199.36 1345.77 199.36C1344.95 199.36 1344.24 199.624 1343.65 200.152C1343.07 200.68 1342.74 201.412 1342.66 202.348H1348.89ZM1356.23 208.162C1355.48 208.162 1354.8 208.036 1354.2 207.784C1353.6 207.52 1353.13 207.16 1352.78 206.704C1352.43 206.236 1352.24 205.702 1352.2 205.102H1353.89C1353.94 205.594 1354.17 205.996 1354.58 206.308C1355 206.62 1355.54 206.776 1356.22 206.776C1356.84 206.776 1357.33 206.638 1357.69 206.362C1358.05 206.086 1358.23 205.738 1358.23 205.318C1358.23 204.886 1358.04 204.568 1357.66 204.364C1357.27 204.148 1356.68 203.938 1355.87 203.734C1355.14 203.542 1354.54 203.35 1354.07 203.158C1353.62 202.954 1353.22 202.66 1352.89 202.276C1352.56 201.88 1352.4 201.364 1352.4 200.728C1352.4 200.224 1352.55 199.762 1352.85 199.342C1353.15 198.922 1353.58 198.592 1354.13 198.352C1354.68 198.1 1355.31 197.974 1356.02 197.974C1357.11 197.974 1357.99 198.25 1358.66 198.802C1359.34 199.354 1359.7 200.11 1359.74 201.07H1358.11C1358.07 200.554 1357.86 200.14 1357.48 199.828C1357.1 199.516 1356.6 199.36 1355.96 199.36C1355.38 199.36 1354.91 199.486 1354.56 199.738C1354.21 199.99 1354.04 200.32 1354.04 200.728C1354.04 201.052 1354.14 201.322 1354.34 201.538C1354.56 201.742 1354.82 201.91 1355.14 202.042C1355.46 202.162 1355.9 202.3 1356.47 202.456C1357.18 202.648 1357.75 202.84 1358.2 203.032C1358.64 203.212 1359.02 203.488 1359.33 203.86C1359.65 204.232 1359.82 204.718 1359.83 205.318C1359.83 205.858 1359.68 206.344 1359.38 206.776C1359.08 207.208 1358.66 207.55 1358.11 207.802C1357.57 208.042 1356.94 208.162 1356.23 208.162Z" fill="#1E1E1E" fill-opacity="0.5"/>
<defs>
<filter id="filter0_d_532_2" x="-49.2" y="0.8" width="1596.4" height="329.4" filterUnits="userSpaceOnUse" color-interpolation-filters="sRGB">
<feFlood flood-opacity="0" result="BackgroundImageFix"/>
<feColorMatrix in="SourceAlpha" type="matrix" values="0 0 0 0 0 0 0 0 0 0 0 0 0 0 0 0 0 0 127 0" result="hardAlpha"/>
<feMorphology radius="15" operator="dilate" in="SourceAlpha" result="effect1_dropShadow_532_2"/>
<feOffset dx="3" dy="8"/>
<feGaussianBlur stdDeviation="6.6"/>
<feComposite in2="hardAlpha" operator="out"/>
<feColorMatrix type="matrix" values="0 0 0 0 0 0 0 0 0 0 0 0 0 0 0 0 0 0 0.25 0"/>
<feBlend mode="normal" in2="BackgroundImageFix" result="effect1_dropShadow_532_2"/>
<feBlend mode="normal" in="SourceGraphic" in2="effect1_dropShadow_532_2" result="shape"/>
</filter>
</defs>
</svg>
