<svg width="1022" height="161" viewBox="0 0 1022 161" fill="none" xmlns="http://www.w3.org/2000/svg">
<g filter="url(#filter0_d_563_2)">
<rect x="15" y="11" width="992" height="131" rx="13" fill="#C1DCDC"/>
</g>
<path d="M61.224 63.016V63.976C60.616 64.104 60.008 64.504 59.4 65.176C58.792 65.816 58.12 66.84 57.384 68.248L47.688 87.448H46.872L35.64 66.712C35 65.528 34.456 64.792 34.008 64.504C33.592 64.184 33.208 64.024 32.856 64.024V63.016C33.496 63.048 34.152 63.08 34.824 63.112C35.528 63.144 36.28 63.16 37.08 63.16C38.136 63.16 39.256 63.16 40.44 63.16C41.656 63.128 42.776 63.08 43.8 63.016V64.024C43 64.024 42.296 64.12 41.688 64.312C41.08 64.504 40.68 64.856 40.488 65.368C40.296 65.88 40.44 66.6 40.92 67.528L49.032 83.08L48.648 83.368L55.032 70.648C55.928 68.888 56.36 67.528 56.328 66.568C56.328 65.608 55.96 64.952 55.224 64.6C54.488 64.216 53.448 64.008 52.104 63.976V63.016C53.032 63.048 53.976 63.08 54.936 63.112C55.896 63.144 56.792 63.16 57.624 63.16C58.456 63.16 59.144 63.144 59.688 63.112C60.232 63.08 60.744 63.048 61.224 63.016ZM49.848 82.408V91.912C49.848 93.064 49.944 93.928 50.136 94.504C50.328 95.08 50.696 95.464 51.24 95.656C51.816 95.848 52.648 95.976 53.736 96.04V97C53 96.936 52.072 96.904 50.952 96.904C49.864 96.872 48.76 96.856 47.64 96.856C46.392 96.856 45.224 96.872 44.136 96.904C43.048 96.904 42.168 96.936 41.496 97V96.04C42.584 95.976 43.4 95.848 43.944 95.656C44.52 95.464 44.904 95.08 45.096 94.504C45.288 93.928 45.384 93.064 45.384 91.912V82.072L47.976 85.048L49.848 82.408ZM71.277 71.608C73.325 71.608 75.165 72.056 76.797 72.952C78.429 73.848 79.725 75.256 80.685 77.176C81.677 79.096 82.173 81.592 82.173 84.664C82.173 87.736 81.677 90.232 80.685 92.152C79.725 94.04 78.429 95.432 76.797 96.328C75.165 97.224 73.325 97.672 71.277 97.672C69.261 97.672 67.421 97.224 65.757 96.328C64.125 95.432 62.813 94.04 61.821 92.152C60.861 90.232 60.381 87.736 60.381 84.664C60.381 81.592 60.861 79.096 61.821 77.176C62.813 75.256 64.125 73.848 65.757 72.952C67.421 72.056 69.261 71.608 71.277 71.608ZM71.277 72.568C69.453 72.568 67.949 73.512 66.765 75.4C65.613 77.288 65.037 80.376 65.037 84.664C65.037 88.952 65.613 92.04 66.765 93.928C67.949 95.784 69.453 96.712 71.277 96.712C73.101 96.712 74.589 95.784 75.741 93.928C76.925 92.04 77.517 88.952 77.517 84.664C77.517 80.376 76.925 77.288 75.741 75.4C74.589 73.512 73.101 72.568 71.277 72.568ZM107.606 71.752V91.816C107.606 93.256 107.862 94.328 108.374 95.032C108.918 95.704 109.878 96.04 111.254 96.04V97.048C110.262 96.952 109.27 96.904 108.278 96.904C107.35 96.904 106.454 96.952 105.59 97.048C104.758 97.144 103.99 97.32 103.286 97.576V91.912C102.486 93.992 101.35 95.48 99.8779 96.376C98.4379 97.24 96.9499 97.672 95.4139 97.672C94.2939 97.672 93.3179 97.512 92.4859 97.192C91.6539 96.872 90.9659 96.424 90.4219 95.848C89.8139 95.208 89.3979 94.376 89.1739 93.352C88.9499 92.328 88.8379 91.064 88.8379 89.56V77.512C88.8379 76.072 88.5819 75.016 88.0699 74.344C87.5579 73.64 86.5979 73.288 85.1899 73.288V72.28C86.2139 72.376 87.2059 72.424 88.1659 72.424C89.0939 72.424 89.9739 72.376 90.8059 72.28C91.6699 72.152 92.4539 71.976 93.1579 71.752V90.616C93.1579 91.608 93.2219 92.52 93.3499 93.352C93.4779 94.184 93.7979 94.856 94.3099 95.368C94.8219 95.88 95.6539 96.136 96.8059 96.136C98.0539 96.136 99.1579 95.752 100.118 94.984C101.11 94.216 101.878 93.176 102.422 91.864C102.998 90.552 103.286 89.08 103.286 87.448V77.512C103.286 76.072 103.03 75.016 102.518 74.344C102.006 73.64 101.046 73.288 99.6379 73.288V72.28C100.662 72.376 101.654 72.424 102.614 72.424C103.542 72.424 104.422 72.376 105.254 72.28C106.118 72.152 106.902 71.976 107.606 71.752ZM128.633 71.608C129.497 71.608 130.249 71.784 130.889 72.136C131.561 72.488 132.073 72.952 132.425 73.528C132.809 74.072 133.001 74.696 133.001 75.4C133.001 76.2 132.745 76.904 132.233 77.512C131.753 78.12 131.097 78.424 130.265 78.424C129.593 78.424 129.001 78.216 128.489 77.8C127.977 77.352 127.721 76.728 127.721 75.928C127.721 75.32 127.881 74.808 128.201 74.392C128.553 73.944 128.937 73.592 129.353 73.336C129.129 73.016 128.793 72.856 128.345 72.856C127.353 72.856 126.441 73.16 125.609 73.768C124.777 74.344 124.073 75.096 123.497 76.024C122.921 76.952 122.473 77.944 122.153 79C121.833 80.024 121.673 80.984 121.673 81.88V92.056C121.673 93.624 122.121 94.68 123.017 95.224C123.945 95.736 125.193 95.992 126.761 95.992V97C126.025 96.968 124.985 96.936 123.641 96.904C122.297 96.84 120.873 96.808 119.368 96.808C118.281 96.808 117.193 96.84 116.105 96.904C115.049 96.936 114.249 96.968 113.705 97V95.992C115.017 95.992 115.945 95.752 116.489 95.272C117.065 94.792 117.353 93.88 117.353 92.536V77.512C117.353 76.072 117.097 75.016 116.585 74.344C116.073 73.64 115.113 73.288 113.705 73.288V72.28C114.729 72.376 115.721 72.424 116.681 72.424C117.609 72.424 118.489 72.376 119.321 72.28C120.185 72.152 120.969 71.976 121.673 71.752V77.752C122.025 76.824 122.521 75.896 123.161 74.968C123.833 74.008 124.633 73.208 125.561 72.568C126.489 71.928 127.513 71.608 128.633 71.608ZM162.657 62.344C164.737 62.344 166.417 62.664 167.697 63.304C168.977 63.912 170.177 64.632 171.297 65.464C171.713 65.784 172.033 65.944 172.257 65.944C172.865 65.944 173.265 64.968 173.457 63.016H174.561C174.497 64.2 174.449 65.64 174.417 67.336C174.385 69.032 174.369 71.272 174.369 74.056H173.265C173.041 72.712 172.769 71.416 172.449 70.168C172.129 68.92 171.601 67.848 170.865 66.952C169.937 65.768 168.721 64.856 167.217 64.216C165.713 63.544 164.161 63.208 162.561 63.208C160.961 63.208 159.505 63.608 158.193 64.408C156.913 65.176 155.809 66.296 154.881 67.768C153.953 69.24 153.233 71.016 152.721 73.096C152.241 75.144 152.001 77.464 152.001 80.056C152.001 85.816 152.929 90.04 154.785 92.728C156.641 95.384 159.521 96.712 163.425 96.712C164.577 96.712 165.569 96.552 166.401 96.232C167.265 95.88 167.937 95.544 168.417 95.224C169.025 94.808 169.409 94.424 169.569 94.072C169.729 93.688 169.809 93.192 169.809 92.584V87.976C169.809 86.664 169.681 85.688 169.425 85.048C169.169 84.408 168.689 83.976 167.985 83.752C167.313 83.528 166.305 83.4 164.961 83.368V82.408C165.537 82.44 166.209 82.472 166.977 82.504C167.745 82.504 168.545 82.52 169.377 82.552C170.241 82.552 171.025 82.552 171.729 82.552C172.785 82.552 173.729 82.536 174.561 82.504C175.425 82.472 176.145 82.44 176.721 82.408V83.368C176.017 83.4 175.489 83.512 175.137 83.704C174.785 83.896 174.545 84.28 174.417 84.856C174.321 85.432 174.273 86.312 174.273 87.496V97H173.313C173.281 96.456 173.153 95.864 172.929 95.224C172.737 94.584 172.433 94.264 172.017 94.264C171.825 94.264 171.633 94.312 171.441 94.408C171.249 94.504 170.913 94.728 170.433 95.08C169.377 95.88 168.257 96.52 167.073 97C165.889 97.448 164.513 97.672 162.945 97.672C159.649 97.672 156.817 97 154.449 95.656C152.113 94.28 150.321 92.312 149.073 89.752C147.825 87.192 147.201 84.136 147.201 80.584C147.201 76.84 147.873 73.608 149.217 70.888C150.561 68.168 152.385 66.072 154.689 64.6C157.025 63.096 159.681 62.344 162.657 62.344ZM194.679 71.608C195.543 71.608 196.295 71.784 196.935 72.136C197.607 72.488 198.119 72.952 198.471 73.528C198.855 74.072 199.047 74.696 199.047 75.4C199.047 76.2 198.791 76.904 198.279 77.512C197.799 78.12 197.143 78.424 196.311 78.424C195.639 78.424 195.047 78.216 194.535 77.8C194.023 77.352 193.767 76.728 193.767 75.928C193.767 75.32 193.927 74.808 194.247 74.392C194.599 73.944 194.983 73.592 195.399 73.336C195.175 73.016 194.839 72.856 194.391 72.856C193.399 72.856 192.487 73.16 191.655 73.768C190.823 74.344 190.119 75.096 189.543 76.024C188.967 76.952 188.519 77.944 188.199 79C187.879 80.024 187.719 80.984 187.719 81.88V92.056C187.719 93.624 188.167 94.68 189.063 95.224C189.991 95.736 191.239 95.992 192.807 95.992V97C192.071 96.968 191.031 96.936 189.687 96.904C188.343 96.84 186.919 96.808 185.415 96.808C184.327 96.808 183.239 96.84 182.151 96.904C181.095 96.936 180.295 96.968 179.751 97V95.992C181.063 95.992 181.991 95.752 182.535 95.272C183.111 94.792 183.399 93.88 183.399 92.536V77.512C183.399 76.072 183.143 75.016 182.631 74.344C182.119 73.64 181.159 73.288 179.751 73.288V72.28C180.775 72.376 181.767 72.424 182.727 72.424C183.655 72.424 184.535 72.376 185.367 72.28C186.231 72.152 187.015 71.976 187.719 71.752V77.752C188.071 76.824 188.567 75.896 189.207 74.968C189.879 74.008 190.679 73.208 191.607 72.568C192.535 71.928 193.559 71.608 194.679 71.608ZM211.853 71.608C214.669 71.608 216.861 72.472 218.429 74.2C220.029 75.896 220.829 78.552 220.829 82.168H203.885L203.837 81.256H216.221C216.285 79.688 216.157 78.248 215.837 76.936C215.517 75.592 215.005 74.52 214.301 73.72C213.629 72.92 212.749 72.52 211.661 72.52C210.189 72.52 208.877 73.256 207.725 74.728C206.605 76.2 205.933 78.536 205.709 81.736L205.853 81.928C205.789 82.408 205.741 82.936 205.709 83.512C205.677 84.088 205.661 84.664 205.661 85.24C205.661 87.416 206.013 89.288 206.717 90.856C207.421 92.424 208.333 93.624 209.453 94.456C210.605 95.256 211.789 95.656 213.005 95.656C213.965 95.656 214.877 95.512 215.741 95.224C216.605 94.904 217.405 94.392 218.141 93.688C218.877 92.984 219.517 92.04 220.061 90.856L221.021 91.24C220.669 92.296 220.093 93.32 219.293 94.312C218.493 95.304 217.485 96.12 216.269 96.76C215.053 97.368 213.645 97.672 212.045 97.672C209.741 97.672 207.757 97.144 206.093 96.088C204.461 95.032 203.197 93.576 202.301 91.72C201.437 89.832 201.005 87.672 201.005 85.24C201.005 82.424 201.453 80.008 202.349 77.992C203.245 75.944 204.509 74.376 206.141 73.288C207.773 72.168 209.677 71.608 211.853 71.608ZM236.134 71.608C238.95 71.608 241.142 72.472 242.71 74.2C244.31 75.896 245.11 78.552 245.11 82.168H228.166L228.118 81.256H240.502C240.566 79.688 240.438 78.248 240.118 76.936C239.798 75.592 239.286 74.52 238.582 73.72C237.91 72.92 237.03 72.52 235.942 72.52C234.47 72.52 233.158 73.256 232.006 74.728C230.886 76.2 230.214 78.536 229.99 81.736L230.134 81.928C230.07 82.408 230.022 82.936 229.99 83.512C229.958 84.088 229.942 84.664 229.942 85.24C229.942 87.416 230.294 89.288 230.998 90.856C231.702 92.424 232.614 93.624 233.734 94.456C234.886 95.256 236.07 95.656 237.286 95.656C238.246 95.656 239.158 95.512 240.022 95.224C240.886 94.904 241.686 94.392 242.422 93.688C243.158 92.984 243.798 92.04 244.342 90.856L245.302 91.24C244.95 92.296 244.374 93.32 243.574 94.312C242.774 95.304 241.766 96.12 240.55 96.76C239.334 97.368 237.926 97.672 236.326 97.672C234.022 97.672 232.038 97.144 230.374 96.088C228.742 95.032 227.478 93.576 226.582 91.72C225.718 89.832 225.286 87.672 225.286 85.24C225.286 82.424 225.734 80.008 226.63 77.992C227.526 75.944 228.79 74.376 230.422 73.288C232.054 72.168 233.958 71.608 236.134 71.608ZM264.879 71.608C266.095 71.608 267.103 71.768 267.903 72.088C268.735 72.408 269.423 72.856 269.967 73.432C270.575 74.072 271.007 74.872 271.263 75.832C271.519 76.792 271.647 78.088 271.647 79.72V92.536C271.647 93.88 271.919 94.792 272.463 95.272C273.039 95.752 273.983 95.992 275.295 95.992V97C274.751 96.968 273.919 96.936 272.799 96.904C271.679 96.84 270.591 96.808 269.535 96.808C268.479 96.808 267.439 96.84 266.415 96.904C265.423 96.936 264.671 96.968 264.159 97V95.992C265.311 95.992 266.127 95.752 266.607 95.272C267.087 94.792 267.327 93.88 267.327 92.536V78.664C267.327 77.672 267.247 76.76 267.087 75.928C266.927 75.096 266.559 74.424 265.983 73.912C265.439 73.4 264.591 73.144 263.439 73.144C262.095 73.144 260.911 73.528 259.887 74.296C258.895 75.064 258.111 76.12 257.535 77.464C256.991 78.776 256.719 80.248 256.719 81.88V92.536C256.719 93.88 256.959 94.792 257.439 95.272C257.919 95.752 258.735 95.992 259.887 95.992V97C259.375 96.968 258.607 96.936 257.583 96.904C256.591 96.84 255.567 96.808 254.511 96.808C253.455 96.808 252.367 96.84 251.247 96.904C250.127 96.936 249.295 96.968 248.751 97V95.992C250.063 95.992 250.991 95.752 251.535 95.272C252.111 94.792 252.399 93.88 252.399 92.536V77.512C252.399 76.072 252.143 75.016 251.631 74.344C251.119 73.64 250.159 73.288 248.751 73.288V72.28C249.775 72.376 250.767 72.424 251.727 72.424C252.655 72.424 253.535 72.376 254.367 72.28C255.231 72.152 256.015 71.976 256.719 71.752V77.416C257.551 75.24 258.703 73.736 260.175 72.904C261.679 72.04 263.247 71.608 264.879 71.608ZM317.099 63.016V63.976C316.491 64.104 315.819 64.472 315.083 65.08C314.347 65.656 313.755 66.68 313.307 68.152L304.235 97.24C304.171 97.24 304.107 97.24 304.043 97.24C303.979 97.24 303.915 97.24 303.851 97.24C303.787 97.24 303.723 97.24 303.659 97.24C303.595 97.24 303.531 97.24 303.467 97.24L293.291 67.048C292.875 65.8 292.411 64.984 291.899 64.6C291.387 64.216 290.907 64.008 290.459 63.976V63.016C291.035 63.048 291.755 63.08 292.619 63.112C293.483 63.144 294.315 63.16 295.115 63.16C296.363 63.16 297.531 63.144 298.619 63.112C299.707 63.08 300.587 63.048 301.259 63.016V63.976C300.299 64.008 299.531 64.104 298.955 64.264C298.411 64.424 298.091 64.776 297.995 65.32C297.931 65.864 298.091 66.76 298.475 68.008L305.627 90.136L304.955 90.712L311.291 70.792C311.867 69.032 312.123 67.672 312.059 66.712C312.027 65.72 311.675 65.032 311.003 64.648C310.331 64.232 309.323 64.008 307.979 63.976V63.016C308.907 63.048 309.851 63.08 310.811 63.112C311.771 63.144 312.667 63.16 313.499 63.16C314.331 63.16 315.019 63.144 315.563 63.112C316.107 63.08 316.619 63.048 317.099 63.016ZM283.547 63.016V63.976C282.715 64.04 282.107 64.2 281.723 64.456C281.371 64.712 281.195 65.128 281.195 65.704C281.227 66.248 281.403 67.016 281.723 68.008L289.163 90.712L287.963 91.912L294.683 70.456L295.403 71.608L287.483 97.24C287.419 97.24 287.355 97.24 287.291 97.24C287.227 97.24 287.163 97.24 287.099 97.24C287.035 97.24 286.971 97.24 286.907 97.24C286.843 97.24 286.779 97.24 286.715 97.24L276.539 67.048C276.123 65.8 275.595 64.984 274.955 64.6C274.315 64.216 273.739 64.008 273.226 63.976V63.016C273.867 63.048 274.651 63.08 275.579 63.112C276.539 63.144 277.467 63.16 278.363 63.16C279.419 63.16 280.395 63.144 281.291 63.112C282.219 63.08 282.971 63.048 283.547 63.016ZM326.84 71.608C328.888 71.608 330.728 72.056 332.36 72.952C333.992 73.848 335.288 75.256 336.248 77.176C337.24 79.096 337.736 81.592 337.736 84.664C337.736 87.736 337.24 90.232 336.248 92.152C335.288 94.04 333.992 95.432 332.36 96.328C330.728 97.224 328.888 97.672 326.84 97.672C324.824 97.672 322.984 97.224 321.32 96.328C319.688 95.432 318.376 94.04 317.384 92.152C316.424 90.232 315.944 87.736 315.944 84.664C315.944 81.592 316.424 79.096 317.384 77.176C318.376 75.256 319.688 73.848 321.32 72.952C322.984 72.056 324.824 71.608 326.84 71.608ZM326.84 72.568C325.016 72.568 323.512 73.512 322.328 75.4C321.176 77.288 320.6 80.376 320.6 84.664C320.6 88.952 321.176 92.04 322.328 93.928C323.512 95.784 325.016 96.712 326.84 96.712C328.664 96.712 330.152 95.784 331.304 93.928C332.488 92.04 333.08 88.952 333.08 84.664C333.08 80.376 332.488 77.288 331.304 75.4C330.152 73.512 328.664 72.568 326.84 72.568ZM356.304 71.608C357.168 71.608 357.92 71.784 358.56 72.136C359.232 72.488 359.744 72.952 360.096 73.528C360.48 74.072 360.672 74.696 360.672 75.4C360.672 76.2 360.416 76.904 359.904 77.512C359.424 78.12 358.768 78.424 357.936 78.424C357.264 78.424 356.672 78.216 356.16 77.8C355.648 77.352 355.392 76.728 355.392 75.928C355.392 75.32 355.552 74.808 355.872 74.392C356.224 73.944 356.608 73.592 357.024 73.336C356.8 73.016 356.464 72.856 356.016 72.856C355.024 72.856 354.112 73.16 353.28 73.768C352.448 74.344 351.744 75.096 351.168 76.024C350.592 76.952 350.144 77.944 349.824 79C349.504 80.024 349.344 80.984 349.344 81.88V92.056C349.344 93.624 349.792 94.68 350.688 95.224C351.616 95.736 352.864 95.992 354.432 95.992V97C353.696 96.968 352.656 96.936 351.312 96.904C349.968 96.84 348.544 96.808 347.04 96.808C345.952 96.808 344.864 96.84 343.776 96.904C342.72 96.936 341.92 96.968 341.376 97V95.992C342.688 95.992 343.616 95.752 344.16 95.272C344.736 94.792 345.024 93.88 345.024 92.536V77.512C345.024 76.072 344.768 75.016 344.256 74.344C343.744 73.64 342.784 73.288 341.376 73.288V72.28C342.4 72.376 343.392 72.424 344.352 72.424C345.28 72.424 346.16 72.376 346.992 72.28C347.856 72.152 348.64 71.976 349.344 71.752V77.752C349.696 76.824 350.192 75.896 350.832 74.968C351.504 74.008 352.304 73.208 353.232 72.568C354.16 71.928 355.184 71.608 356.304 71.608ZM369.446 59.368V92.536C369.446 93.88 369.718 94.792 370.262 95.272C370.838 95.752 371.782 95.992 373.094 95.992V97C372.55 96.968 371.718 96.936 370.598 96.904C369.51 96.84 368.406 96.808 367.286 96.808C366.198 96.808 365.094 96.84 363.974 96.904C362.854 96.936 362.022 96.968 361.478 97V95.992C362.79 95.992 363.718 95.752 364.262 95.272C364.838 94.792 365.126 93.88 365.126 92.536V65.128C365.126 63.688 364.87 62.632 364.358 61.96C363.846 61.256 362.886 60.904 361.478 60.904V59.896C362.502 59.992 363.494 60.04 364.454 60.04C365.382 60.04 366.262 59.992 367.094 59.896C367.958 59.768 368.742 59.592 369.446 59.368ZM396.92 59.368V91.768C396.92 93.208 397.176 94.28 397.688 94.984C398.232 95.656 399.192 95.992 400.568 95.992V97C399.576 96.904 398.584 96.856 397.592 96.856C396.664 96.856 395.768 96.904 394.904 97C394.072 97.096 393.304 97.272 392.6 97.528V65.128C392.6 63.688 392.344 62.632 391.832 61.96C391.32 61.256 390.36 60.904 388.952 60.904V59.896C389.976 59.992 390.968 60.04 391.928 60.04C392.856 60.04 393.736 59.992 394.568 59.896C395.432 59.768 396.216 59.592 396.92 59.368ZM386.84 71.608C388.248 71.608 389.56 71.944 390.776 72.616C392.024 73.288 392.856 74.44 393.272 76.072L392.648 76.552C392.2 75.208 391.496 74.232 390.536 73.624C389.608 73.016 388.504 72.712 387.224 72.712C385.336 72.712 383.752 73.688 382.472 75.64C381.224 77.592 380.616 80.6 380.648 84.664C380.648 87.256 380.888 89.416 381.368 91.144C381.88 92.84 382.616 94.12 383.576 94.984C384.568 95.816 385.768 96.232 387.176 96.232C388.52 96.232 389.736 95.656 390.824 94.504C391.912 93.352 392.568 91.656 392.792 89.416L393.368 90.088C393.112 92.52 392.328 94.392 391.016 95.704C389.736 97.016 387.992 97.672 385.784 97.672C383.8 97.672 382.056 97.192 380.552 96.232C379.08 95.272 377.944 93.832 377.144 91.912C376.376 89.992 375.992 87.576 375.992 84.664C375.992 81.752 376.488 79.336 377.48 77.416C378.504 75.464 379.832 74.008 381.464 73.048C383.128 72.088 384.92 71.608 386.84 71.608ZM426.923 71.608C427.947 71.608 428.939 71.736 429.899 71.992C430.859 72.248 431.723 72.632 432.491 73.144C433.227 73.624 433.787 74.184 434.171 74.824C434.555 75.432 434.747 76.104 434.747 76.84C434.747 77.704 434.507 78.376 434.027 78.856C433.547 79.304 432.939 79.528 432.203 79.528C431.499 79.528 430.875 79.32 430.331 78.904C429.819 78.488 429.563 77.896 429.563 77.128C429.563 76.392 429.755 75.8 430.139 75.352C430.555 74.904 431.035 74.616 431.579 74.488C431.259 73.912 430.683 73.432 429.851 73.048C429.051 72.664 428.187 72.472 427.259 72.472C426.459 72.472 425.659 72.664 424.859 73.048C424.059 73.432 423.323 74.072 422.651 74.968C421.979 75.832 421.435 77.032 421.019 78.568C420.603 80.072 420.395 81.96 420.395 84.232C420.395 87.048 420.715 89.288 421.355 90.952C421.995 92.616 422.827 93.816 423.851 94.552C424.907 95.256 426.059 95.608 427.307 95.608C428.139 95.608 428.987 95.448 429.851 95.128C430.715 94.808 431.531 94.296 432.299 93.592C433.067 92.856 433.723 91.88 434.267 90.664L435.179 91C434.859 92.024 434.331 93.064 433.595 94.12C432.859 95.144 431.899 95.992 430.715 96.664C429.531 97.336 428.075 97.672 426.347 97.672C424.363 97.672 422.571 97.16 420.971 96.136C419.371 95.112 418.091 93.656 417.131 91.768C416.203 89.848 415.739 87.576 415.739 84.952C415.739 82.328 416.203 80.024 417.131 78.04C418.091 76.024 419.419 74.456 421.115 73.336C422.811 72.184 424.747 71.608 426.923 71.608ZM445.083 97.336C443.771 97.336 442.635 97.096 441.675 96.616C440.715 96.104 439.979 95.4 439.467 94.504C438.987 93.608 438.747 92.568 438.747 91.384C438.747 89.976 439.067 88.824 439.707 87.928C440.379 87.032 441.227 86.312 442.251 85.768C443.275 85.224 444.347 84.776 445.467 84.424C446.619 84.04 447.707 83.688 448.731 83.368C449.755 83.016 450.587 82.616 451.227 82.168C451.899 81.72 452.235 81.128 452.235 80.392V77.416C452.235 76.072 452.027 75.048 451.611 74.344C451.227 73.64 450.699 73.176 450.027 72.952C449.355 72.696 448.603 72.568 447.771 72.568C446.971 72.568 446.107 72.68 445.179 72.904C444.283 73.128 443.563 73.592 443.019 74.296C443.627 74.424 444.155 74.744 444.603 75.256C445.051 75.768 445.275 76.424 445.275 77.224C445.275 78.024 445.019 78.664 444.507 79.144C443.995 79.592 443.339 79.816 442.539 79.816C441.611 79.816 440.923 79.528 440.475 78.952C440.059 78.344 439.851 77.672 439.851 76.936C439.851 76.104 440.059 75.432 440.475 74.92C440.891 74.408 441.419 73.928 442.059 73.48C442.795 72.968 443.739 72.536 444.891 72.184C446.075 71.8 447.403 71.608 448.875 71.608C450.187 71.608 451.307 71.768 452.235 72.088C453.163 72.376 453.931 72.808 454.539 73.384C455.371 74.152 455.915 75.096 456.171 76.216C456.427 77.304 456.555 78.616 456.555 80.152V93.496C456.555 94.296 456.667 94.872 456.891 95.224C457.147 95.576 457.531 95.752 458.043 95.752C458.395 95.752 458.731 95.672 459.051 95.512C459.371 95.352 459.755 95.096 460.203 94.744L460.731 95.56C460.059 96.072 459.419 96.504 458.811 96.856C458.203 97.176 457.387 97.336 456.363 97.336C455.435 97.336 454.667 97.176 454.059 96.856C453.451 96.536 452.987 96.072 452.667 95.464C452.379 94.824 452.235 94.024 452.235 93.064C451.371 94.504 450.331 95.576 449.115 96.28C447.931 96.984 446.587 97.336 445.083 97.336ZM446.811 95.416C447.867 95.416 448.843 95.112 449.739 94.504C450.667 93.896 451.499 92.984 452.235 91.768V82.36C451.851 82.904 451.291 83.368 450.555 83.752C449.819 84.104 449.019 84.472 448.155 84.856C447.291 85.208 446.459 85.64 445.659 86.152C444.891 86.632 444.251 87.272 443.739 88.072C443.227 88.872 442.971 89.912 442.971 91.192C442.971 92.472 443.307 93.496 443.979 94.264C444.683 95.032 445.627 95.416 446.811 95.416ZM477.101 71.608C477.965 71.608 478.717 71.784 479.357 72.136C480.029 72.488 480.541 72.952 480.893 73.528C481.277 74.072 481.469 74.696 481.469 75.4C481.469 76.2 481.213 76.904 480.701 77.512C480.221 78.12 479.565 78.424 478.733 78.424C478.061 78.424 477.469 78.216 476.957 77.8C476.445 77.352 476.189 76.728 476.189 75.928C476.189 75.32 476.349 74.808 476.669 74.392C477.021 73.944 477.405 73.592 477.821 73.336C477.597 73.016 477.261 72.856 476.813 72.856C475.821 72.856 474.909 73.16 474.077 73.768C473.245 74.344 472.541 75.096 471.965 76.024C471.389 76.952 470.941 77.944 470.621 79C470.301 80.024 470.141 80.984 470.141 81.88V92.056C470.141 93.624 470.589 94.68 471.485 95.224C472.413 95.736 473.661 95.992 475.229 95.992V97C474.493 96.968 473.453 96.936 472.109 96.904C470.765 96.84 469.341 96.808 467.837 96.808C466.749 96.808 465.661 96.84 464.573 96.904C463.517 96.936 462.717 96.968 462.173 97V95.992C463.485 95.992 464.413 95.752 464.957 95.272C465.533 94.792 465.821 93.88 465.821 92.536V77.512C465.821 76.072 465.565 75.016 465.053 74.344C464.541 73.64 463.581 73.288 462.173 73.288V72.28C463.197 72.376 464.189 72.424 465.149 72.424C466.077 72.424 466.957 72.376 467.789 72.28C468.653 72.152 469.437 71.976 470.141 71.752V77.752C470.493 76.824 470.989 75.896 471.629 74.968C472.301 74.008 473.101 73.208 474.029 72.568C474.957 71.928 475.981 71.608 477.101 71.608ZM491.276 64.312V72.328H498.38V73.288H491.276V91.864C491.276 93.368 491.548 94.424 492.092 95.032C492.636 95.64 493.388 95.944 494.348 95.944C495.308 95.944 496.14 95.56 496.844 94.792C497.548 93.992 498.156 92.664 498.668 90.808L499.628 91.048C499.308 92.904 498.668 94.472 497.708 95.752C496.78 97.032 495.34 97.672 493.388 97.672C492.3 97.672 491.404 97.528 490.7 97.24C489.996 96.984 489.372 96.6 488.828 96.088C488.124 95.352 487.628 94.472 487.34 93.448C487.084 92.424 486.956 91.064 486.956 89.368V73.288H482.348V72.328H486.956V64.984C487.756 64.952 488.524 64.888 489.26 64.792C489.996 64.696 490.668 64.536 491.276 64.312ZM517.145 60.28C517.977 60.28 518.697 60.584 519.305 61.192C519.913 61.8 520.217 62.52 520.217 63.352C520.217 64.184 519.913 64.904 519.305 65.512C518.697 66.12 517.977 66.424 517.145 66.424C516.313 66.424 515.593 66.12 514.985 65.512C514.377 64.904 514.073 64.184 514.073 63.352C514.073 62.52 514.377 61.8 514.985 61.192C515.593 60.584 516.313 60.28 517.145 60.28ZM519.641 71.752V92.536C519.641 93.88 519.913 94.792 520.457 95.272C521.033 95.752 521.977 95.992 523.289 95.992V97C522.745 96.968 521.913 96.936 520.793 96.904C519.705 96.84 518.601 96.808 517.481 96.808C516.393 96.808 515.289 96.84 514.169 96.904C513.049 96.936 512.217 96.968 511.673 97V95.992C512.985 95.992 513.913 95.752 514.457 95.272C515.033 94.792 515.321 93.88 515.321 92.536V77.512C515.321 76.072 515.065 75.016 514.553 74.344C514.041 73.64 513.081 73.288 511.673 73.288V72.28C512.697 72.376 513.689 72.424 514.649 72.424C515.577 72.424 516.457 72.376 517.289 72.28C518.153 72.152 518.937 71.976 519.641 71.752ZM534.328 71.608C535.608 71.608 536.696 71.816 537.592 72.232C538.488 72.648 539.144 73.032 539.56 73.384C540.616 74.248 541.256 73.672 541.48 71.656H542.584C542.52 72.552 542.472 73.624 542.44 74.872C542.408 76.088 542.392 77.736 542.392 79.816H541.288C541.096 78.632 540.76 77.48 540.28 76.36C539.832 75.24 539.16 74.328 538.264 73.624C537.368 72.888 536.2 72.52 534.76 72.52C533.64 72.52 532.696 72.84 531.928 73.48C531.192 74.088 530.824 75 530.824 76.216C530.824 77.176 531.112 78.008 531.688 78.712C532.264 79.384 533.016 80.024 533.944 80.632C534.872 81.208 535.88 81.848 536.968 82.552C538.184 83.32 539.288 84.104 540.28 84.904C541.272 85.704 542.056 86.584 542.632 87.544C543.24 88.504 543.544 89.64 543.544 90.952C543.544 92.424 543.16 93.656 542.392 94.648C541.624 95.64 540.616 96.392 539.368 96.904C538.152 97.416 536.808 97.672 535.336 97.672C534.632 97.672 533.96 97.608 533.32 97.48C532.712 97.384 532.12 97.224 531.544 97C531.224 96.84 530.888 96.648 530.536 96.424C530.216 96.2 529.896 95.96 529.576 95.704C529.256 95.448 528.968 95.464 528.712 95.752C528.456 96.008 528.264 96.536 528.136 97.336H527.032C527.096 96.312 527.144 95.064 527.176 93.592C527.208 92.12 527.224 90.168 527.224 87.736H528.328C528.552 89.528 528.872 91.096 529.288 92.44C529.704 93.784 530.36 94.84 531.256 95.608C532.152 96.344 533.4 96.712 535 96.712C535.64 96.712 536.28 96.568 536.92 96.28C537.592 95.992 538.152 95.512 538.6 94.84C539.048 94.168 539.272 93.272 539.272 92.152C539.272 90.744 538.76 89.592 537.736 88.696C536.712 87.8 535.416 86.856 533.848 85.864C532.696 85.128 531.608 84.392 530.584 83.656C529.592 82.92 528.776 82.088 528.136 81.16C527.528 80.232 527.224 79.112 527.224 77.8C527.224 76.36 527.544 75.192 528.184 74.296C528.856 73.368 529.736 72.696 530.824 72.28C531.912 71.832 533.08 71.608 534.328 71.608ZM570.822 71.608C573.638 71.608 575.83 72.472 577.398 74.2C578.998 75.896 579.798 78.552 579.798 82.168H562.854L562.806 81.256H575.19C575.254 79.688 575.126 78.248 574.806 76.936C574.486 75.592 573.974 74.52 573.27 73.72C572.598 72.92 571.718 72.52 570.63 72.52C569.158 72.52 567.846 73.256 566.694 74.728C565.574 76.2 564.902 78.536 564.678 81.736L564.822 81.928C564.758 82.408 564.71 82.936 564.678 83.512C564.646 84.088 564.63 84.664 564.63 85.24C564.63 87.416 564.982 89.288 565.686 90.856C566.39 92.424 567.302 93.624 568.422 94.456C569.574 95.256 570.758 95.656 571.974 95.656C572.934 95.656 573.846 95.512 574.71 95.224C575.574 94.904 576.374 94.392 577.11 93.688C577.846 92.984 578.486 92.04 579.03 90.856L579.99 91.24C579.638 92.296 579.062 93.32 578.262 94.312C577.462 95.304 576.454 96.12 575.238 96.76C574.022 97.368 572.614 97.672 571.014 97.672C568.71 97.672 566.726 97.144 565.062 96.088C563.43 95.032 562.166 93.576 561.27 91.72C560.406 89.832 559.974 87.672 559.974 85.24C559.974 82.424 560.422 80.008 561.318 77.992C562.214 75.944 563.478 74.376 565.11 73.288C566.742 72.168 568.646 71.608 570.822 71.608ZM599.279 71.608C600.399 71.608 601.375 71.768 602.207 72.088C603.039 72.408 603.727 72.856 604.271 73.432C604.879 74.072 605.295 74.904 605.519 75.928C605.743 76.952 605.855 78.216 605.855 79.72V92.536C605.855 93.88 606.127 94.792 606.671 95.272C607.247 95.752 608.191 95.992 609.503 95.992V97C608.959 96.968 608.127 96.936 607.007 96.904C605.887 96.84 604.799 96.808 603.743 96.808C602.687 96.808 601.647 96.84 600.623 96.904C599.631 96.936 598.879 96.968 598.367 97V95.992C599.519 95.992 600.335 95.752 600.815 95.272C601.295 94.792 601.535 93.88 601.535 92.536V78.664C601.535 77.672 601.471 76.76 601.343 75.928C601.215 75.096 600.895 74.424 600.383 73.912C599.871 73.4 599.039 73.144 597.887 73.144C596.639 73.144 595.519 73.528 594.527 74.296C593.567 75.064 592.799 76.12 592.223 77.464C591.679 78.776 591.407 80.248 591.407 81.88V92.536C591.407 93.88 591.647 94.792 592.127 95.272C592.607 95.752 593.423 95.992 594.575 95.992V97C594.063 96.968 593.295 96.936 592.271 96.904C591.279 96.84 590.255 96.808 589.199 96.808C588.143 96.808 587.055 96.84 585.935 96.904C584.815 96.936 583.983 96.968 583.439 97V95.992C584.751 95.992 585.679 95.752 586.223 95.272C586.799 94.792 587.087 93.88 587.087 92.536V77.512C587.087 76.072 586.831 75.016 586.319 74.344C585.807 73.64 584.847 73.288 583.439 73.288V72.28C584.463 72.376 585.455 72.424 586.415 72.424C587.343 72.424 588.223 72.376 589.055 72.28C589.919 72.152 590.703 71.976 591.407 71.752V77.416C592.239 75.336 593.375 73.848 594.815 72.952C596.255 72.056 597.743 71.608 599.279 71.608ZM613.727 71.608C614.847 71.608 615.823 71.768 616.655 72.088C617.487 72.408 618.175 72.856 618.719 73.432C619.327 74.072 619.743 74.904 619.967 75.928C620.191 76.952 620.303 78.216 620.303 79.72V92.536C620.303 93.88 620.575 94.792 621.119 95.272C621.695 95.752 622.639 95.992 623.951 95.992V97C623.407 96.968 622.575 96.936 621.455 96.904C620.335 96.84 619.247 96.808 618.191 96.808C617.135 96.808 616.095 96.84 615.071 96.904C614.079 96.936 613.327 96.968 612.815 97V95.992C613.967 95.992 614.783 95.752 615.263 95.272C615.743 94.792 615.983 93.88 615.983 92.536V78.664C615.983 77.672 615.919 76.76 615.791 75.928C615.663 75.096 615.343 74.424 614.831 73.912C614.319 73.4 613.487 73.144 612.335 73.144C611.087 73.144 609.967 73.528 608.975 74.296C608.015 75.064 607.247 76.104 606.671 77.416C606.127 78.728 605.855 80.2 605.855 81.832L605.711 77.368C606.575 75.16 607.743 73.656 609.215 72.856C610.687 72.024 612.191 71.608 613.727 71.608ZM633.68 71.752V101.224C633.68 102.6 634.08 103.512 634.88 103.96C635.712 104.44 636.848 104.68 638.288 104.68V105.688C637.584 105.656 636.608 105.608 635.36 105.544C634.112 105.512 632.784 105.496 631.376 105.496C630.384 105.496 629.392 105.512 628.4 105.544C627.44 105.608 626.704 105.656 626.192 105.688V104.68C627.344 104.68 628.16 104.472 628.64 104.056C629.12 103.64 629.36 102.856 629.36 101.704V77.512C629.36 76.072 629.104 75.016 628.592 74.344C628.08 73.64 627.12 73.288 625.712 73.288V72.28C626.736 72.376 627.728 72.424 628.688 72.424C629.616 72.424 630.496 72.376 631.328 72.28C632.192 72.152 632.976 71.976 633.68 71.752ZM641.36 71.608C643.056 71.608 644.576 72.072 645.92 73C647.264 73.896 648.32 75.224 649.088 76.984C649.888 78.744 650.288 80.92 650.288 83.512C650.288 85.24 650.08 86.952 649.664 88.648C649.248 90.312 648.592 91.832 647.696 93.208C646.832 94.552 645.696 95.64 644.288 96.472C642.912 97.272 641.248 97.672 639.296 97.672C637.792 97.672 636.48 97.32 635.36 96.616C634.272 95.912 633.536 95.064 633.152 94.072L633.632 93.4C634.08 94.296 634.72 95.048 635.552 95.656C636.416 96.264 637.488 96.568 638.768 96.568C640.56 96.568 641.952 96.008 642.944 94.888C643.936 93.768 644.624 92.28 645.008 90.424C645.424 88.536 645.632 86.456 645.632 84.184C645.632 81.624 645.424 79.528 645.008 77.896C644.592 76.264 643.968 75.048 643.136 74.248C642.304 73.448 641.28 73.048 640.064 73.048C638.496 73.048 637.072 73.704 635.792 75.016C634.512 76.296 633.696 78.248 633.344 80.872L632.768 80.2C633.12 77.48 634.08 75.368 635.648 73.864C637.248 72.36 639.152 71.608 641.36 71.608ZM661.667 64.312V72.328H668.771V73.288H661.667V91.864C661.667 93.368 661.939 94.424 662.483 95.032C663.027 95.64 663.779 95.944 664.739 95.944C665.699 95.944 666.531 95.56 667.235 94.792C667.939 93.992 668.547 92.664 669.059 90.808L670.019 91.048C669.699 92.904 669.059 94.472 668.099 95.752C667.171 97.032 665.731 97.672 663.779 97.672C662.691 97.672 661.795 97.528 661.091 97.24C660.387 96.984 659.763 96.6 659.219 96.088C658.515 95.352 658.019 94.472 657.731 93.448C657.475 92.424 657.347 91.064 657.347 89.368V73.288H652.739V72.328H657.347V64.984C658.147 64.952 658.915 64.888 659.651 64.792C660.387 64.696 661.059 64.536 661.667 64.312ZM693.228 72.28V73.24C692.62 73.304 692.06 73.576 691.548 74.056C691.036 74.536 690.556 75.384 690.108 76.6L682.236 97.24H681.42L672.588 75.976C671.98 74.728 671.372 73.976 670.764 73.72C670.188 73.432 669.708 73.288 669.324 73.288V72.28C670.028 72.376 670.764 72.456 671.532 72.52C672.3 72.552 673.132 72.568 674.028 72.568C675.02 72.568 676.06 72.536 677.148 72.472C678.268 72.408 679.308 72.344 680.268 72.28V73.288C679.468 73.288 678.748 73.352 678.108 73.48C677.5 73.576 677.116 73.912 676.956 74.488C676.796 75.032 676.988 75.976 677.532 77.32L683.436 91.96L683.148 92.056L688.62 77.752C689.036 76.696 689.196 75.864 689.1 75.256C689.036 74.616 688.716 74.136 688.14 73.816C687.564 73.496 686.7 73.304 685.548 73.24V72.28C686.124 72.312 686.62 72.344 687.036 72.376C687.452 72.376 687.852 72.392 688.236 72.424C688.652 72.424 689.1 72.424 689.58 72.424C690.316 72.424 690.972 72.408 691.548 72.376C692.156 72.344 692.716 72.312 693.228 72.28ZM682.236 97.24L680.604 101.416C680.284 102.216 679.948 102.888 679.596 103.432C679.276 103.976 678.924 104.424 678.54 104.776C678.028 105.256 677.42 105.576 676.716 105.736C676.012 105.928 675.372 106.024 674.796 106.024C674.188 106.024 673.628 105.912 673.116 105.688C672.636 105.464 672.252 105.128 671.964 104.68C671.676 104.264 671.532 103.752 671.532 103.144C671.532 102.376 671.756 101.752 672.204 101.272C672.652 100.824 673.276 100.6 674.076 100.6C674.748 100.6 675.324 100.792 675.804 101.176C676.284 101.56 676.524 102.12 676.524 102.856C676.524 103.4 676.396 103.848 676.14 104.2C675.884 104.552 675.58 104.824 675.228 105.016C675.292 105.048 675.34 105.064 675.372 105.064C675.436 105.064 675.484 105.064 675.516 105.064C676.38 105.064 677.148 104.76 677.82 104.152C678.492 103.576 679.084 102.632 679.596 101.32L681.324 96.856L682.236 97.24ZM734.681 71.656C735.513 71.656 736.233 71.96 736.841 72.568C737.449 73.176 737.753 73.896 737.753 74.728C737.753 75.56 737.449 76.28 736.841 76.888C736.233 77.496 735.513 77.8 734.681 77.8C733.849 77.8 733.129 77.496 732.521 76.888C731.913 76.28 731.609 75.56 731.609 74.728C731.609 73.896 731.913 73.176 732.521 72.568C733.129 71.96 733.849 71.656 734.681 71.656ZM734.681 91.528C735.513 91.528 736.233 91.832 736.841 92.44C737.449 93.048 737.753 93.768 737.753 94.6C737.753 95.432 737.449 96.152 736.841 96.76C736.233 97.368 735.513 97.672 734.681 97.672C733.849 97.672 733.129 97.368 732.521 96.76C731.913 96.152 731.609 95.432 731.609 94.6C731.609 93.768 731.913 93.048 732.521 92.44C733.129 91.832 733.849 91.528 734.681 91.528ZM753.719 58.312L754.391 58.936C751.703 62.072 749.831 65.512 748.775 69.256C747.719 72.968 747.191 77.224 747.191 82.024C747.191 86.824 747.719 91.096 748.775 94.84C749.831 98.552 751.703 101.976 754.391 105.112L753.719 105.736C750.487 102.792 747.911 99.352 745.991 95.416C744.103 91.448 743.159 86.984 743.159 82.024C743.159 77.064 744.103 72.616 745.991 68.68C747.911 64.712 750.487 61.256 753.719 58.312Z" fill="#1E1E1E" fill-opacity="0.85"/>
<defs>
<filter id="filter0_d_563_2" x="0.3" y="0.3" width="1021.4" height="160.4" filterUnits="userSpaceOnUse" color-interpolation-filters="sRGB">
<feFlood flood-opacity="0" result="BackgroundImageFix"/>
<feColorMatrix in="SourceAlpha" type="matrix" values="0 0 0 0 0 0 0 0 0 0 0 0 0 0 0 0 0 0 127 0" result="hardAlpha"/>
<feMorphology radius="2" operator="dilate" in="SourceAlpha" result="effect1_dropShadow_563_2"/>
<feOffset dy="4"/>
<feGaussianBlur stdDeviation="6.35"/>
<feComposite in2="hardAlpha" operator="out"/>
<feColorMatrix type="matrix" values="0 0 0 0 0 0 0 0 0 0 0 0 0 0 0 0 0 0 0.25 0"/>
<feBlend mode="normal" in2="BackgroundImageFix" result="effect1_dropShadow_563_2"/>
<feBlend mode="normal" in="SourceGraphic" in2="effect1_dropShadow_563_2" result="shape"/>
</filter>
</defs>
</svg>
