<svg width="355" height="104" viewBox="0 0 355 104" fill="none" xmlns="http://www.w3.org/2000/svg">
<g filter="url(#filter0_d_563_3)">
<rect x="10" y="9" width="331" height="80" rx="14" fill="#C1DCDC"/>
</g>
<path d="M36.96 64.2C35.5733 64.2 34.4933 63.9067 33.72 63.32C32.9733 62.7333 32.44 61.7467 32.12 60.36C31.8 58.9467 31.64 56.9467 31.64 54.36C31.64 52.8133 31.6533 51.6533 31.68 50.88C31.7067 48.0267 31.68 45.72 31.6 43.96C31.52 42.2 31.2667 40.5333 30.84 38.96C30.44 37.36 29.76 36.0533 28.8 35.04C29.76 34.32 30.7867 33.96 31.88 33.96C33.16 33.96 34.1333 34.44 34.8 35.4C35.4933 36.36 35.9733 37.9333 36.24 40.12C36.5067 42.28 36.64 45.3467 36.64 49.32C36.64 52.9467 36.64 55.5467 36.64 57.12C36.64 58.6667 36.6267 59.72 36.6 60.28H37.08C40.8133 54.7333 43.52 50.2667 45.2 46.88C46.88 43.4667 47.72 40.88 47.72 39.12C47.72 38.2667 47.64 37.52 47.48 36.88C47.3467 36.2133 47.1067 35.6 46.76 35.04C47.56 34.6133 48.2 34.3333 48.68 34.2C49.1867 34.04 49.7067 33.96 50.24 33.96C50.9867 33.96 51.5733 34.28 52 34.92C52.4533 35.56 52.68 36.4133 52.68 37.48C52.68 39.48 51.72 42.4933 49.8 46.52C47.9067 50.5467 45.08 55.4267 41.32 61.16L42.08 62.52C41.5733 63 40.8267 63.4 39.84 63.72C38.8533 64.04 37.8933 64.2 36.96 64.2ZM59.5275 64C58.6208 64 57.9408 63.7733 57.4875 63.32C57.0342 62.8667 56.8075 62.1467 56.8075 61.16C56.8075 60.0667 57.0608 58.12 57.5675 55.32C58.1008 52.52 58.9942 48.3067 60.2475 42.68L58.4875 40.68C59.1275 40.1733 59.8608 39.7733 60.6875 39.48C61.5408 39.16 62.3142 39 63.0075 39C63.8075 39 64.3675 39.1733 64.6875 39.52C65.0342 39.84 65.2075 40.4 65.2075 41.2C65.2075 41.3333 65.1275 41.7333 64.9675 42.4C64.8342 43.0667 64.6608 43.8133 64.4475 44.64C63.6208 48.0267 62.9275 51.0933 62.3675 53.84C61.8342 56.5867 61.5675 58.9067 61.5675 60.8C61.5675 61.8133 61.8075 62.52 62.2875 62.92C61.4075 63.64 60.4875 64 59.5275 64ZM63.0875 35.6C62.2342 35.6 61.5542 35.4 61.0475 35C60.5408 34.5733 60.2875 34.0133 60.2875 33.32C60.2875 32.7867 60.4342 32.2933 60.7275 31.84C61.0475 31.3867 61.4742 31.0267 62.0075 30.76C62.5408 30.4667 63.1542 30.32 63.8475 30.32C64.7275 30.32 65.4075 30.5333 65.8875 30.96C66.3942 31.36 66.6475 31.8933 66.6475 32.56C66.6475 33.4133 66.3142 34.1333 65.6475 34.72C64.9808 35.3067 64.1275 35.6 63.0875 35.6ZM80.3553 64C77.5286 64 75.3153 63.1333 73.7153 61.4C72.1153 59.6667 71.3153 57.28 71.3153 54.24C71.3153 51.36 71.942 48.76 73.1953 46.44C74.4486 44.12 76.182 42.3067 78.3953 41C80.6086 39.6667 83.0753 39 85.7953 39C87.902 39 89.542 39.5067 90.7153 40.52C91.9153 41.5333 92.5153 42.9333 92.5153 44.72C92.5153 46.6133 91.8353 48.24 90.4753 49.6C89.1153 50.9333 87.1286 51.96 84.5153 52.68C81.9286 53.3733 78.7953 53.72 75.1153 53.72L75.5953 51.48C79.5686 51.5067 82.6486 50.92 84.8353 49.72C87.0486 48.4933 88.1553 46.7867 88.1553 44.6C88.1553 43.6667 87.8753 42.92 87.3153 42.36C86.7553 41.8 86.022 41.52 85.1153 41.52C83.542 41.52 82.0753 42.1067 80.7153 43.28C79.3553 44.4267 78.2753 46 77.4753 48C76.6753 49.9733 76.2753 52.1333 76.2753 54.48C76.2753 56.6133 76.6753 58.2933 77.4753 59.52C78.2753 60.72 79.3686 61.32 80.7553 61.32C82.4886 61.32 83.902 60.7733 84.9953 59.68C86.0886 58.5867 86.6886 57.1333 86.7953 55.32C87.8353 55.32 88.6353 55.52 89.1953 55.92C89.7553 56.2933 90.0353 56.8933 90.0353 57.72C90.0353 58.7867 89.6086 59.8133 88.7553 60.8C87.902 61.76 86.7286 62.5333 85.2353 63.12C83.7686 63.7067 82.142 64 80.3553 64ZM102.691 64C101.918 64 101.331 63.84 100.931 63.52C100.531 63.2267 100.238 62.7333 100.051 62.04C99.8909 61.32 99.8109 60.2933 99.8109 58.96C99.8109 57.5467 99.8243 56.48 99.8509 55.76C99.8776 52.8267 99.8509 50.5067 99.7709 48.8C99.6909 47.0933 99.4643 45.4533 99.0909 43.88C98.7176 42.3067 98.1043 41.0133 97.2509 40C98.1043 39.3333 99.0509 39 100.091 39C101.211 39 102.064 39.3867 102.651 40.16C103.264 40.9333 103.691 42.2 103.931 43.96C104.171 45.6933 104.291 48.16 104.291 51.36V56.4C104.291 58.72 104.278 60.1067 104.251 60.56H104.651C107.398 57.12 109.411 53.96 110.691 51.08C111.971 48.1733 112.771 45.9333 113.091 44.36C113.118 44.3067 113.131 44.2667 113.131 44.24C113.131 44.1867 113.131 44.1467 113.131 44.12C113.131 43.8533 113.024 43.5333 112.811 43.16C112.598 42.76 112.384 42.3867 112.171 42.04C111.904 41.6933 111.731 41.4133 111.651 41.2C112.158 40.8267 112.598 40.5733 112.971 40.44C113.371 40.28 113.784 40.2 114.211 40.2C114.984 40.2 115.584 40.4533 116.011 40.96C116.464 41.4667 116.691 42.1733 116.691 43.08C116.691 44.28 116.398 45.6 115.811 47.04C115.224 48.4533 114.224 50.44 112.811 53C112.678 53.2133 112.544 53.44 112.411 53.68C112.278 53.92 112.144 54.1733 112.011 54.44C110.571 57.0267 109.344 59 108.331 60.36C107.318 61.72 106.371 62.6667 105.491 63.2C104.638 63.7333 103.704 64 102.691 64ZM116.531 64C115.571 64 114.824 63.7733 114.291 63.32C113.758 62.8667 113.371 62.2533 113.131 61.48C112.918 60.68 112.771 59.6533 112.691 58.4L111.451 41.24C111.771 40.8933 112.171 40.64 112.651 40.48C113.131 40.2933 113.651 40.2 114.211 40.2L115.251 42.6L115.891 60.56H116.291C118.984 56.1333 120.944 52.52 122.171 49.72C123.424 46.8933 124.051 44.76 124.051 43.32C124.051 42.0133 123.784 40.9067 123.251 40C123.918 39.6267 124.478 39.3733 124.931 39.24C125.411 39.08 125.918 39 126.451 39C127.144 39 127.678 39.2667 128.051 39.8C128.451 40.3333 128.651 41.0533 128.651 41.96C128.651 43.0267 128.344 44.44 127.731 46.2C127.144 47.9333 126.238 50.04 125.011 52.52C123.784 55 122.238 57.8533 120.371 61.08L121.011 62.28C120.531 62.7867 119.864 63.2 119.011 63.52C118.158 63.84 117.331 64 116.531 64ZM142.933 64C140.107 64 137.893 63.1333 136.293 61.4C134.693 59.6667 133.893 57.28 133.893 54.24C133.893 51.36 134.52 48.76 135.773 46.44C137.027 44.12 138.76 42.3067 140.973 41C143.187 39.6667 145.653 39 148.373 39C150.48 39 152.12 39.5067 153.293 40.52C154.493 41.5333 155.093 42.9333 155.093 44.72C155.093 46.6133 154.413 48.24 153.053 49.6C151.693 50.9333 149.707 51.96 147.093 52.68C144.507 53.3733 141.373 53.72 137.693 53.72L138.173 51.48C142.147 51.5067 145.227 50.92 147.413 49.72C149.627 48.4933 150.733 46.7867 150.733 44.6C150.733 43.6667 150.453 42.92 149.893 42.36C149.333 41.8 148.6 41.52 147.693 41.52C146.12 41.52 144.653 42.1067 143.293 43.28C141.933 44.4267 140.853 46 140.053 48C139.253 49.9733 138.853 52.1333 138.853 54.48C138.853 56.6133 139.253 58.2933 140.053 59.52C140.853 60.72 141.947 61.32 143.333 61.32C145.067 61.32 146.48 60.7733 147.573 59.68C148.667 58.5867 149.267 57.1333 149.373 55.32C150.413 55.32 151.213 55.52 151.773 55.92C152.333 56.2933 152.613 56.8933 152.613 57.72C152.613 58.7867 152.187 59.8133 151.333 60.8C150.48 61.76 149.307 62.5333 147.813 63.12C146.347 63.7067 144.72 64 142.933 64ZM167.069 64C165.629 64 164.349 63.6133 163.229 62.84C162.136 62.0667 161.282 60.9733 160.669 59.56C160.082 58.12 159.789 56.4667 159.789 54.6C159.789 51.9067 160.469 49.4533 161.829 47.24C163.189 45 165.042 43.24 167.389 41.96C169.736 40.6533 172.322 40 175.149 40C176.589 40 177.842 40.1067 178.909 40.32C179.229 40.8267 179.389 41.4533 179.389 42.2C176.429 42.2 173.842 42.72 171.629 43.76C169.416 44.8 167.709 46.2533 166.509 48.12C165.309 49.96 164.709 52.08 164.709 54.48C164.709 56.2933 165.082 57.7067 165.829 58.72C166.576 59.7333 167.629 60.24 168.989 60.24C170.456 60.24 171.896 59.5867 173.309 58.28C174.722 56.9733 175.816 55.2133 176.589 53L176.229 58.44L175.429 58.12C174.469 59.9867 173.256 61.44 171.789 62.48C170.349 63.4933 168.776 64 167.069 64ZM178.189 64C177.362 64 176.736 63.7333 176.309 63.2C175.882 62.6933 175.669 61.9067 175.669 60.84C175.669 59.8267 175.949 57.4667 176.509 53.76C177.069 50.0267 177.749 45.7333 178.549 40.88C178.736 39.9467 178.896 39.0533 179.029 38.2C179.189 37.32 179.336 36.4933 179.469 35.72L177.709 33.72C178.349 33.1867 179.096 32.7733 179.949 32.48C180.802 32.16 181.589 32 182.309 32C183.056 32 183.589 32.1733 183.909 32.52C184.229 32.84 184.389 33.4 184.389 34.2C184.389 34.7333 184.269 35.56 184.029 36.68C183.816 37.8 183.562 39.0267 183.269 40.36C182.389 44.2533 181.682 47.7733 181.149 50.92C180.616 54.04 180.349 57.2133 180.349 60.44C180.349 60.92 180.416 61.3867 180.549 61.84C180.709 62.2933 180.922 62.64 181.189 62.88C180.762 63.2267 180.296 63.4933 179.789 63.68C179.309 63.8933 178.776 64 178.189 64ZM206.481 64C205.574 64 204.894 63.7733 204.441 63.32C203.987 62.8667 203.761 62.1467 203.761 61.16C203.761 60.0667 204.014 58.12 204.521 55.32C205.054 52.52 205.947 48.3067 207.201 42.68L205.441 40.68C206.081 40.1733 206.814 39.7733 207.641 39.48C208.494 39.16 209.267 39 209.961 39C210.761 39 211.321 39.1733 211.641 39.52C211.987 39.84 212.161 40.4 212.161 41.2C212.161 41.3333 212.081 41.7333 211.921 42.4C211.787 43.0667 211.614 43.8133 211.401 44.64C210.574 48.0267 209.881 51.0933 209.321 53.84C208.787 56.5867 208.521 58.9067 208.521 60.8C208.521 61.8133 208.761 62.52 209.241 62.92C208.361 63.64 207.441 64 206.481 64ZM210.041 35.6C209.187 35.6 208.507 35.4 208.001 35C207.494 34.5733 207.241 34.0133 207.241 33.32C207.241 32.7867 207.387 32.2933 207.681 31.84C208.001 31.3867 208.427 31.0267 208.961 30.76C209.494 30.4667 210.107 30.32 210.801 30.32C211.681 30.32 212.361 30.5333 212.841 30.96C213.347 31.36 213.601 31.8933 213.601 32.56C213.601 33.4133 213.267 34.1333 212.601 34.72C211.934 35.3067 211.081 35.6 210.041 35.6ZM223.548 64C222.722 64 222.068 63.76 221.588 63.28C221.108 62.8 220.868 61.9067 220.868 60.6C220.868 59.2933 221.042 57.8 221.388 56.12C221.735 54.44 222.242 52.28 222.908 49.64C223.522 47.24 223.975 45.3333 224.268 43.92C224.562 42.48 224.708 41.24 224.708 40.2C224.708 39.24 224.575 38.16 224.308 36.96L224.228 36.64C224.682 36.16 225.282 35.7867 226.028 35.52C226.775 35.2267 227.508 35.08 228.228 35.08C229.002 35.08 229.562 35.2533 229.908 35.6C230.255 35.9467 230.428 36.52 230.428 37.32C230.428 37.96 230.295 38.7867 230.028 39.8C229.788 40.8133 229.388 42.24 228.828 44.08C227.815 47.44 227.015 50.3733 226.428 52.88C225.868 55.36 225.602 57.8667 225.628 60.4L226.908 62.56C226.428 63.04 225.882 63.4 225.268 63.64C224.682 63.88 224.108 64 223.548 64ZM221.508 45.48C220.842 45.48 220.362 45.36 220.068 45.12C219.775 44.8533 219.628 44.4533 219.628 43.92C219.628 43.2267 219.842 42.5733 220.268 41.96C221.015 42.2 222.228 42.32 223.908 42.32C224.922 42.32 226.255 42.1733 227.908 41.88C228.602 41.7733 229.322 41.68 230.068 41.6C230.815 41.4933 231.495 41.44 232.108 41.44C232.802 41.44 233.282 41.5733 233.548 41.84C233.815 42.1067 233.948 42.5067 233.948 43.04C233.948 43.7333 233.735 44.36 233.308 44.92C232.908 44.8133 232.362 44.7333 231.668 44.68C231.002 44.6 230.375 44.56 229.788 44.56C229.228 44.56 228.588 44.6133 227.868 44.72C227.148 44.8 226.455 44.8933 225.788 45C223.868 45.32 222.442 45.48 221.508 45.48ZM245.16 64C242.333 64 240.12 63.1333 238.52 61.4C236.92 59.6667 236.12 57.28 236.12 54.24C236.12 51.36 236.747 48.76 238 46.44C239.253 44.12 240.987 42.3067 243.2 41C245.413 39.6667 247.88 39 250.6 39C252.707 39 254.347 39.5067 255.52 40.52C256.72 41.5333 257.32 42.9333 257.32 44.72C257.32 46.6133 256.64 48.24 255.28 49.6C253.92 50.9333 251.933 51.96 249.32 52.68C246.733 53.3733 243.6 53.72 239.92 53.72L240.4 51.48C244.373 51.5067 247.453 50.92 249.64 49.72C251.853 48.4933 252.96 46.7867 252.96 44.6C252.96 43.6667 252.68 42.92 252.12 42.36C251.56 41.8 250.827 41.52 249.92 41.52C248.347 41.52 246.88 42.1067 245.52 43.28C244.16 44.4267 243.08 46 242.28 48C241.48 49.9733 241.08 52.1333 241.08 54.48C241.08 56.6133 241.48 58.2933 242.28 59.52C243.08 60.72 244.173 61.32 245.56 61.32C247.293 61.32 248.707 60.7733 249.8 59.68C250.893 58.5867 251.493 57.1333 251.6 55.32C252.64 55.32 253.44 55.52 254 55.92C254.56 56.2933 254.84 56.8933 254.84 57.72C254.84 58.7867 254.413 59.8133 253.56 60.8C252.707 61.76 251.533 62.5333 250.04 63.12C248.573 63.7067 246.947 64 245.16 64ZM265.896 64C264.962 64 264.269 63.76 263.816 63.28C263.389 62.8 263.176 62.0933 263.176 61.16C263.176 59.8267 263.549 57.2533 264.296 53.44C265.069 49.6267 265.856 46.1467 266.656 43L264.856 41C265.496 40.44 266.242 39.9867 267.096 39.64C267.976 39.2933 268.762 39.12 269.456 39.12C270.256 39.12 270.816 39.28 271.136 39.6C271.456 39.92 271.616 40.4933 271.616 41.32C271.616 42.0133 271.496 42.8 271.256 43.68C271.042 44.56 270.749 45.3733 270.376 46.12L270.776 46.32C272.136 43.7333 273.616 41.8667 275.216 40.72C276.842 39.5733 278.642 39 280.616 39C282.269 39 283.482 39.4533 284.256 40.36C285.029 41.24 285.416 42.4667 285.416 44.04C285.416 44.7067 285.322 45.4 285.136 46.12L285.536 46.32C286.949 43.7333 288.482 41.8667 290.136 40.72C291.789 39.5733 293.616 39 295.616 39C297.349 39 298.642 39.44 299.496 40.32C300.349 41.1733 300.776 42.5067 300.776 44.32C300.776 45.3867 300.656 46.4933 300.416 47.64C300.202 48.7867 299.882 50.2267 299.456 51.96C298.949 53.9867 298.576 55.6533 298.336 56.96C298.096 58.24 297.976 59.52 297.976 60.8C297.976 61.7867 298.136 62.48 298.456 62.88C297.682 63.6267 296.856 64 295.976 64C295.042 64 294.349 63.7467 293.896 63.24C293.442 62.76 293.216 62.04 293.216 61.08C293.216 60.0667 293.322 58.92 293.536 57.64C293.776 56.3333 294.122 54.7067 294.576 52.76C295.002 50.8667 295.309 49.4 295.496 48.36C295.682 47.32 295.776 46.4133 295.776 45.64C295.776 44.5733 295.576 43.7733 295.176 43.24C294.802 42.68 294.176 42.4 293.296 42.4C291.776 42.4 290.202 43.2 288.576 44.8C286.976 46.4 285.629 48.6133 284.536 51.44C283.469 54.24 282.936 57.36 282.936 60.8C282.936 61.8133 283.109 62.5067 283.456 62.88C282.682 63.6267 281.842 64 280.936 64C280.002 64 279.309 63.7467 278.856 63.24C278.429 62.76 278.216 62.04 278.216 61.08C278.216 60.0667 278.322 58.92 278.536 57.64C278.776 56.3333 279.122 54.7067 279.576 52.76C280.002 50.8667 280.309 49.4 280.496 48.36C280.682 47.32 280.776 46.4133 280.776 45.64C280.776 43.48 279.949 42.4 278.296 42.4C276.776 42.4 275.202 43.2 273.576 44.8C271.976 46.4 270.629 48.6133 269.536 51.44C268.469 54.24 267.936 57.36 267.936 60.8C267.936 61.7867 268.096 62.48 268.416 62.88C267.642 63.6267 266.802 64 265.896 64ZM314.383 64C311.743 64 309.663 63.64 308.143 62.92C306.623 62.2 305.863 61.2 305.863 59.92C305.863 59.3867 306.023 58.88 306.343 58.4C306.663 57.92 307.116 57.52 307.703 57.2C308.37 58.5333 309.263 59.56 310.383 60.28C311.503 60.9733 312.743 61.32 314.103 61.32C316.023 61.32 317.57 60.96 318.743 60.24C319.916 59.52 320.503 58.48 320.503 57.12C320.503 56.2933 320.063 55.6267 319.183 55.12C318.33 54.6133 317.01 54.0533 315.223 53.44C313.57 52.88 312.21 52.3467 311.143 51.84C310.076 51.3333 309.17 50.6533 308.423 49.8C307.676 48.92 307.303 47.84 307.303 46.56C307.303 45.0933 307.81 43.7867 308.823 42.64C309.836 41.4933 311.236 40.6 313.023 39.96C314.836 39.32 316.916 39 319.263 39C321.396 39 323.143 39.32 324.503 39.96C325.89 40.6 326.583 41.4133 326.583 42.4C326.583 43.36 326.263 44.1067 325.623 44.64C324.983 45.1467 324.143 45.4 323.103 45.4C322.09 45.4 321.223 45.08 320.503 44.44C319.783 43.8 319.236 42.8667 318.863 41.64C316.676 41.88 314.956 42.4 313.703 43.2C312.476 43.9733 311.863 44.92 311.863 46.04C311.863 46.6 312.076 47.08 312.503 47.48C312.956 47.88 313.516 48.2267 314.183 48.52C314.85 48.7867 315.796 49.1333 317.023 49.56C318.73 50.1467 320.103 50.6933 321.143 51.2C322.21 51.7067 323.116 52.4 323.863 53.28C324.636 54.1333 325.023 55.2133 325.023 56.52C325.023 57.9333 324.596 59.2133 323.743 60.36C322.89 61.48 321.65 62.36 320.023 63C318.423 63.6667 316.543 64 314.383 64Z" fill="#363A3A"/>
<defs>
<filter id="filter0_d_563_3" x="0.1" y="0.1" width="354.8" height="103.8" filterUnits="userSpaceOnUse" color-interpolation-filters="sRGB">
<feFlood flood-opacity="0" result="BackgroundImageFix"/>
<feColorMatrix in="SourceAlpha" type="matrix" values="0 0 0 0 0 0 0 0 0 0 0 0 0 0 0 0 0 0 127 0" result="hardAlpha"/>
<feMorphology radius="2" operator="erode" in="SourceAlpha" result="effect1_dropShadow_563_3"/>
<feOffset dx="2" dy="3"/>
<feGaussianBlur stdDeviation="6.95"/>
<feComposite in2="hardAlpha" operator="out"/>
<feColorMatrix type="matrix" values="0 0 0 0 0 0 0 0 0 0 0 0 0 0 0 0 0 0 0.25 0"/>
<feBlend mode="normal" in2="BackgroundImageFix" result="effect1_dropShadow_563_3"/>
<feBlend mode="normal" in="SourceGraphic" in2="effect1_dropShadow_563_3" result="shape"/>
</filter>
</defs>
</svg>
